<svg xmlns="http://www.w3.org/2000/svg" width="600" height="600" viewBox="0 0 200 200" style="overflow:hidden!important">
    <path d="M0 0h200v200H0V0z" fill="#ecf0f1"/>
    <path d="M77.6 118.3c0 19.3 3.4 44.1-10 51.9-13.4 7.9-31.9 11.3-37.8 22s-4.4 25.3-4.4 25.3h149.3s.7-18.9-5.1-26.4c-8.1-10.4-27.8-15.5-37.7-20.9s-13.4-25.1-13.4-52.4l-40.9.5z" fill="#fff"/>
    <path d="M175.8 218.7H24.4l-.1-1c-.1-.6-1.5-15.1 4.5-26 4.1-7.4 13.5-11.3 23.5-15.5 5-2.1 10.2-4.3 14.8-6.9 10.6-6.2 10.1-23.9 9.6-41-.1-3.5-.2-6.8-.2-10v-1.1l43.2-.4v1.1c0 29.9 4.2 46.7 12.8 51.4 2.9 1.6 6.7 3.2 10.8 4.9 10 4.1 21.3 8.8 27.2 16.3 6.1 7.7 5.4 26.4 5.4 27.1l-.1 1.1zm-149.3-2.2h147.1c0-4.1-.2-18.5-4.9-24.6-5.5-7-16.6-11.6-26.3-15.6-4.1-1.7-8-3.3-11-5-5.1-2.8-8.7-8.9-10.9-18.7-2-8.4-2.9-19.4-3-33.5l-38.6.4c0 2.8.1 5.7.2 8.8.5 17.8 1 36.1-10.7 43-4.7 2.7-9.9 4.9-15 7.1-9.6 4-18.7 7.8-22.4 14.5-5 8.6-4.7 20.1-4.5 23.6z"/>
    <path d="M93.9 153.8c-.5 1.8-.4 3.4.5 5.2.8 1.6 2.1 2.7 3.9 2.9.4 0 .7-.5.5-.8-1.6-2.2-3.5-4.2-3.7-7.1 0-.7-1-.9-1.2-.2zM112.5 187.5c8.8.5 18.1-.7 26.6-2.9.7-.2.6-1.4-.2-1.3-8.8 1.1-17.7 2-26.5 3.3-.5.1-.3.9.1.9zM63.1 182.5c3.8.9 7.6 1.9 11.5 2.8 3.6.8 7.4 2 11.1 2.1.7 0 .8-.9.2-1.2-3.5-1.4-7.5-1.7-11.2-2.5-3.8-.7-7.5-1.3-11.3-2-.5 0-.7.7-.3.8z"/>
    <path d="M77.6 140.5s-8.6 2.8-13.1 5.9-5.6 10-5.6 10-2.3-3.3-4.5 1.9-1.8 5.6-4 7.9c-2.3 2.3-1 6.8-.2 7.9 0 0-4 2.8-8.4 4s-10.3 4.2-12.1 6.6-9.6 12.8-5.6 34h153.6s0-21-3-27.5-7.7-7.5-7.7-7.5-9.8-7-11.7-8.2-11-4.2-11-4.2-.5-4.2-1.2-7.2-4.6-8.1-6.6-8.4c-2.1-.4-3-2.8-5.6-7-2.6-4.2-5.8-6.5-7.3-7-1.6-.5-3.3-.2-3.3-.2s1.2 8.9 1.2 13.6-.9 7.7-4.6 12.2c-3.7 4.6-6.1 5.8-11.4 9.3s-6.3 5.4-6.3 5.4-3.2-5.1-8.8-8.6S83 166 79 162.5s-1.1-6.1-1.4-11.2c-.3-5.1 0-10.8 0-10.8z" fill="#fff"/>
    <path d="M175.6 190.8c-2.8-6.1-7.1-7.7-8.2-8-1.3-.9-9.8-7-11.6-8.1-1.8-1.1-8.5-3.4-10.6-4.1-.2-1.3-.6-4.3-1.2-6.6-.7-3-4.7-8.7-7.5-9.1-1.1-.2-1.8-1.3-3.3-3.9-.5-.8-1-1.6-1.6-2.6-2.6-4.2-5.9-6.8-7.9-7.4-1.8-.6-3.8-.2-3.8-.2-.5.1-.9.6-.8 1.1 0 .1 1.2 8.9 1.2 13.5 0 4.2-.7 7.1-4.3 11.6-3 3.8-5.1 5.1-9 7.6-.7.4-1.4.9-2.2 1.4-3.1 2.1-4.8 3.6-5.7 4.6-1.3-1.8-4.1-5.1-8.3-7.7-3.3-2.1-5.2-4.4-7.1-6.6-1.2-1.4-2.5-2.9-4.1-4.4-2.2-1.9-1.9-3.4-1.5-5.7.3-1.4.6-2.9.4-4.8-.3-4.9 0-10.7 0-10.7 0-.3-.1-.6-.4-.9-.3-.2-.6-.3-.9-.2-.4.1-8.8 2.9-13.4 6.1-3.5 2.4-5 6.7-5.7 9-.4-.2-.8-.3-1.3-.2-1.4.1-2.5 1.3-3.5 3.6-.7 1.7-1.2 2.9-1.5 3.8-.7 1.9-.9 2.4-2.3 3.8-2.2 2.2-1.7 6.2-.8 8.3-1.3.8-4.3 2.5-7.3 3.4-4.6 1.3-10.7 4.3-12.6 7l-.1.2c-6.4 8.9-8.3 20.6-5.6 34.6.1.5.5.8 1 .8h153.6c.6 0 1-.4 1-1 0-1.2-.1-21.6-3.1-28.2zm-33-23.6c.3 1.9.6 3.7.6 4.1 0 .2-.1.8-.6 1.6.3-1.8.2-3.8 0-5.7zm-20.7-19.4c.5.2 1.2.5 1.9.9-.2.1-.3.1-.5.1l-1.2.3c-.2-.5-.2-.9-.2-1.3zm-.1 12.5h1.5c-.6.4-1.3 1-2 1.6.2-.5.4-1 .5-1.6zm4.2-3.1c-1.2.1-2.6.4-3.8.6.1-.5.1-1 .1-1.5 1.3-.1 2.7-.3 3.9-.5 0 .5-.1 1-.2 1.4zm.1-5c.1.5.1.9.1 1.3-1.3 0-2.7.4-3.9.8 0-.5 0-1-.1-1.5 1.3-.2 2.7-.3 3.9-.6zm-3.8 3.6v-1.1c.7-.2 1.4-.3 2.2-.4.6-.1 1.2-.1 1.8-.2v1.1c-1.3 0-2.7.3-4 .6zm-.1-3.5c0-.4-.1-.8-.1-1.1.6-.1 1.1-.1 1.7-.2.6-.1 1.2-.2 1.7-.3.2.3.3.6.4 1-1.2 0-2.5.3-3.7.6zm1.9-2c-.6.1-1.3.2-1.9.4 0-.3-.1-.7-.1-1 .4-.1.9-.2 1.3-.3.3-.1.7-.1 1-.3l.9.9c-.5.1-.9.2-1.2.3zm-1.9 8c1.1-.1 2.4-.2 3.5-.4-.3.7-.9 1.3-1.6 1.8-.7 0-1.5.1-2.2.1l.3-1.5zM76 159.6c-1.2-1.1-2.3-2.2-2.7-3.1-.1-.1-.1-.2-.1-.4.9.7 1.8 1.5 2.8 2.1-.1.5-.1 1 0 1.4zm-.5-10.9c.3.4.7.7 1.1 1 0 .4 0 .9.1 1.3-.3-.2-.5-.4-.8-.6-.4-.3-.7-.6-1.1-.9.1-.2.4-.5.7-.8zm.3-.3c.2-.2.4-.3.6-.4v1c-.1-.2-.3-.4-.6-.6zm-1.4 1.5c.4.4.8.7 1.2 1 .3.3.6.6 1 .8v1c-.8-.7-1.8-1.4-2.7-2 .2-.2.3-.5.5-.8zm-.7 1.4c.9.8 1.8 1.7 2.8 2.3 0 .3-.1.6-.1.9-.4-.3-.9-.6-1.4-.9-.6-.4-1.2-.8-1.7-1.2.1-.4.3-.8.4-1.1zm-.5 1.5c.5.4 1.1.8 1.6 1.2.5.4 1 .8 1.6 1.1 0 .2-.1.4-.1.5 0 .1-.1.3-.1.4-.5-.3-1-.6-1.4-.9l-1.8-1.2c0-.3.1-.7.2-1.1zm2.7 4.8c-.9-.8-1.9-1.5-2.9-2.1v-1c.4.4.9.7 1.4 1.1.5.4 1.1.8 1.7 1.2-.1.2-.1.5-.2.8zm-22.1 4.8c.3-.9.8-2 1.5-3.7.9-2.1 1.6-2.3 1.8-2.4.3 0 .6.2.8.4.1 2.2 1.5 13.1 16.7 21.5.2.1.3.1.5.1.3 0 .7-.2.8-.5.1.2.2.5.3.7.1.1.3.1.3-.1-.2-2-.6-3.7-.3-5.7 0-.2-.3-.4-.4-.1-.2 1.2-.4 2.5-.2 3.8l-.1-.1c-.1-.1-.2-.1-.3-.2-.3-1.7-.5-3.3-.4-5 0-.3-.4-.3-.4 0-.2 1.5-.2 3.1.1 4.6-.4-.3-.9-.5-1.3-.8-.2-.5-.3-1.1-.4-1.6-.2-1.1-.1-2.1.1-3.1 0-.2-.3-.3-.3-.1-.3 1.3-.4 3 0 4.4-.4-.2-.7-.5-1-.7-.1-2.3-.2-4.5.1-6.8 0-.3-.4-.2-.4 0-.3 2.1-.4 4.2-.2 6.4-.6-.4-1.2-.9-1.7-1.4-.1-2.1-.1-4.2.3-6.4 0-.2-.2-.3-.3-.1-.5 2-.7 4-.6 6-.4-.4-.8-.8-1.2-1.1 0-1-.1-2.1 0-3.1.1-1.4.4-2.8.8-4.1.1-.2-.2-.3-.3-.1-.7 2-1.3 4.5-1 6.7-.4-.4-.7-.8-1.1-1.1-.2-1 .2-3.2.2-3.5.2-1.4.5-2.7 1-4 .1-.2-.2-.2-.3-.1-.8 2.3-1.3 4.7-1.4 7.1-.3-.3-.5-.6-.8-1 .1-.1.1-.2.1-.2.1-.1-.1-.3-.2-.2.2-2.9.8-5.8 1.8-8.5.1-.2-.2-.3-.3-.1-1 2.7-1.7 5.5-1.9 8.3-.3-.5-.6-.9-.9-1.4.7-2.8 1.1-5.7 2.1-8.5.1-.3-.3-.4-.4-.1-.9 2.5-1.8 5.3-2 8-.4-.6-.7-1.2-1-1.8.7-3 1.1-5.8 2.5-8.6.1-.2-.2-.4-.3-.2-1.3 2.4-2.4 5.3-2.6 8.1-.3-.8-.6-1.6-.8-2.2 1.2-2.8 1.9-5.8 3.1-8.6.1-.2-.2-.4-.3-.2-1.2 2.5-2.6 5.3-3.1 8-.3-1.4-.4-2.3-.4-2.6 1.2-2.5 2.1-5.1 3.3-7.6.5-.6 1.1-1.2 1.8-1.7 3.3-2.3 8.9-4.4 11.5-5.3 0 1-.1 2.4-.1 3.9-1.9.7-3.5 2.3-4.5 4.5-1.1 2.5-1.3 5.3-.5 7.1 1.1 2.4 5.2 5.4 8.7 7.8.3.2.5.3.6.4l1.5 1.8c2 2.3 4 4.8 7.6 7 5.3 3.3 8.4 8.2 8.4 8.2.2.3.5.5.9.5.3 0 .7-.2.8-.5 0 0 1.1-1.8 6-5.1.8-.5 1.5-1 2.2-1.4 3.2-2.1 5.4-3.5 7.8-6.2.2 0 .4-.1.5-.3.1-.1 5.5-6.1 8.3-7.9 3.5-2.4 3.9-5.5 3.3-9.8-.6-4.3-5-5.9-6.5-6.3-.2-1.3-.3-2.4-.4-3.2.5 0 1.2 0 1.9.2 1.4.5 4.3 2.6 6.8 6.6.6.9 1.1 1.8 1.5 2.6 0 0 0 .1.1.1l-.7-.7c-.1-.1-.3.1-.2.2.7.8 1.3 1.7 2 2.5v.1s.3 1.1.3 2.9c-.5-.8-1.1-1.6-1.4-2.5-.1-.2-.4-.1-.4.1.4 1.2.9 2.4 1.8 3.3 0 .3 0 .7-.1 1.1-.5-.7-1.1-1.3-1.5-1.9-.1-.2-.5 0-.3.2.5.7.9 1.4 1.4 2.1.1.2.2.3.3.5-.1.6-.2 1.2-.3 1.9-.5-.6-1-1.2-1.4-1.8-.1-.2-.4.1-.3.2.5.7 1 1.6 1.6 2.3-.1.5-.3 1.1-.6 1.7-.2-.4-.4-.9-.5-1.3-.1-.2-.5-.1-.4.1.2.6.4 1.4.6 2.1-.2.5-.5 1.1-.9 1.6-.1-.3-.1-.6-.1-.9 0-.3-.4-.3-.4 0 0 .5.1 1.1.1 1.6-.4.5-.8 1.1-1.2 1.6-.1-.6-.2-1.3-.3-1.9 0-.2-.4-.2-.4.1.1.8.1 1.6.2 2.3-.4.4-.8.9-1.2 1.3 0-.8-.1-1.5-.2-2.3 0-.3-.4-.3-.4 0 0 .9-.1 1.9 0 2.9-.3.3-.6.6-.9.8 0-.2 0-.5-.1-.7 0-.8-.1-1.5-.1-2.2 0-.3-.4-.3-.4 0 0 .8 0 1.5.1 2.2v1.2c-.4.4-.9.7-1.3 1.1 0-.2-.1-.4-.1-.7 0-.6 0-1.1.1-1.7 0-.3-.3-.4-.4-.1-.2.9-.4 2-.1 2.9-.3.3-.7.5-1 .8 0-.4-.1-.8-.1-1.2 0-.3-.5-.3-.5 0v1.6c-.4.3-.7.5-1.1.8 0-.4-.1-.9-.1-1.3 0-.3-.5-.3-.5 0 0 .6 0 1.1.1 1.6-.4.3-.8.5-1.1.7v-1.8c0-.3-.4-.3-.4 0 0 .6-.1 1.1-.1 1.7v.5c-.4.2-.7.4-1.1.6v-1.4c0-.3-.4-.2-.4 0-.1.5-.1 1.1-.1 1.6-.2.1-.5.2-.7.3-.1 0-.1 0-.1.1 0-.4.1-.7.1-1.1 0-.2-.4-.2-.4 0-.1.4-.1.8-.2 1.3-.3.1-.7.3-1 .4v-1.3c0-.2-.4-.2-.4 0 0 .5-.1 1-.2 1.5-.5.2-1 .4-1.4.5v-1c0-.3-.4-.3-.4 0 0 .4-.1.8-.1 1.2-.3.1-.6.2-.8.3 0-.4.1-.7.1-1.1 0-.2-.4-.3-.4-.1-.1.4-.1.9-.2 1.3-.2.1-.4.1-.4.1-.5.2-.8.7-.7 1.2.1.4.5.7 1 .7h.3c.1 0 1.5-.5 4.4-1.6v.1c0 .2.3.1.3 0s0-.1.1-.2c.4-.1.7-.3 1.1-.4 3.7-1.5 13.6-8.3 16.3-15 1.5-3.6 1.7-6.9 1.6-9 .4.2.8.4 1.2.4 1.4.2 5 4.6 5.8 7.4-.1 0-.2.1-.2.2.3 3.2.1 6.4.2 9.5-.2.2-.4.5-.6.7v-8.7c0-.2-.4-.2-.4 0-.1 3.1-.2 6.2-.2 9.3l-.5.5c0-2.4-.3-4.8-.4-7.2 0-.2-.4-.3-.4 0 .1 2.6-.1 5.2.2 7.8-.2.1-.4.3-.5.4.1-2 0-4.1-.1-6.1 0-.2-.4-.2-.4 0-.1 2.2-.4 4.5-.3 6.7-.2.2-.5.3-.7.5.2-2 .1-4 0-6 0-.2-.4-.2-.4 0 0 2.1-.2 4.3-.3 6.4-.4.2-.9.5-1.4.7.2-1.9 0-3.9 0-5.8 0-.3-.4-.3-.4 0-.1 2-.3 4.1-.2 6.1-.4.2-.8.4-1.3.6.2-1.3.2-2.7.3-4 0-.3-.4-.3-.4 0-.2 1.4-.5 2.9-.6 4.3-.4.2-.9.4-1.3.5.2-1.4.2-2.9.6-4.3.1-.3-.4-.4-.4-.1-.3 1.4-.8 3.1-.9 4.7-.5.2-.9.3-1.4.5.1-1.2 0-2.6.1-3.8 0-.3-.4-.3-.4 0-.1 1.2-.4 2.7-.3 4-.6.2-1.3.4-1.9.7 0-.4 0-.9.1-1.3.1-.9.3-1.7.6-2.5.1-.2-.3-.3-.4-.1-.5 1.2-1 2.7-1 4.1l-.9.3v-.1c.1-.7.1-1.4 0-2.1 0-.3-.5-.3-.5 0 0 .7 0 1.3-.1 2 0 .1-.1.3-.1.5-.4.1-.8.3-1.2.4.1-.6.1-1.2.1-1.8 0-.3-.4-.3-.5 0-.1.6-.2 1.3-.3 2-.5.1-1 .3-1.5.5v-1c0-.3-.5-.3-.4 0v1.2c-.5.2-1 .3-1.5.5.1-.5.3-1.1.4-1.6.1-.3-.3-.4-.4-.1-.2.6-.4 1.3-.6 1.9-.4.1-.8.2-1.2.4.1-.6.2-1.1.3-1.6.1-.3-.4-.4-.4-.1-.2.6-.4 1.3-.5 1.9-.2.1-.4.1-.6.2.1-.4.2-.9.4-1.3.1-.2-.3-.4-.4-.1-.2.5-.4 1-.6 1.6-.2.1-.3.1-.5.1 0-.2.1-.4.1-.6.1-.2-.3-.3-.3-.1-.1.3-.2.5-.3.8-.5.1-.9.3-1.3.4 0-.1-.2-.2-.3 0 0 .1-.1.1-.1.1-.8.2-1.6.4-2.2.6-1.6.4-2.7.8-3.1.9-.3.1-1.2.2-2.4.2-.2-1.3-.6-2.7-1.5-4.8-.2-.5-.8-.7-1.3-.5s-.7.8-.5 1.3c.8 1.7 1.1 2.9 1.3 3.9H101c-.3-.4-.6-.7-1-1-.2-.2-.5.1-.3.3l.7.7h-1.2c-.2-.2-.4-.5-.6-.7-.4-.6-.7-1.2-.9-1.9-.1-.3-.5-.2-.4.1.2.8.6 1.7 1.1 2.5-.4 0-.9 0-1.3-.1-.1-1.8-.1-3.5-.1-4.4 0-.6-.4-1-1-1s-1 .4-1 1c0 .4 0 2.2.1 4.3h-.2c-.3-.4-.7-.8-.9-1.3-.4-.7-.6-1.5-.7-2.3 0-.2-.4-.3-.4 0 .1 1.1.4 2.6 1.2 3.5-.5 0-.9-.1-1.4-.1-.2-.4-.5-.9-.7-1.3-.3-.7-.5-1.5-.5-2.3 0-.2-.4-.3-.4 0 0 1.1.3 2.6 1 3.6-.3 0-.5 0-.8-.1-.2-.6-.7-1.1-.9-1.7-.3-.7-.4-1.4-.4-2.1 0-.3-.4-.3-.4 0-.1 1.1.2 2.9 1.1 3.8-.4 0-.8-.1-1.3-.1-.3-.6-.8-1.2-1.1-1.8-.3-.8-.5-1.6-.5-2.4 0-.3-.4-.3-.4 0 0 1.3.3 3.1 1.3 4.1-.6-.1-1.2-.1-1.8-.2-.3-.4-.5-.9-.7-1.4-.3-.8-.4-1.6-.5-2.4 0-.3-.5-.3-.4 0 0 1.2.3 2.6.9 3.7-.4-.1-.9-.1-1.3-.2-.2-.4-.5-.9-.7-1.4-.3-.8-.5-1.5-.5-2.3 0-.3-.4-.3-.4 0 .1 1.2.3 2.5 1 3.6-.5-.1-.9-.1-1.3-.2-.4-.6-.8-1.1-1-1.7-.4-.8-.6-1.7-.8-2.6 0-.2-.4-.1-.3.1.1 1.3.5 3 1.3 4.1-.7-.1-1.3-.3-1.8-.4-1-1.4-1.8-2.7-2.2-4.5-.1-.2-.3-.1-.3.1.2 1.4.8 2.9 1.7 4.1-.2-.1-.5-.2-.6-.3-.3-.2-.8-.4-1.3-.6-.7-1.5-1.4-3-1.8-4.7-.1-.3-.5-.2-.4.1.2 1.4.6 2.9 1.3 4.1-.3-.1-.7-.3-1-.4-.8-1.6-1.6-3-1.9-4.9 0-.2-.4-.2-.4.1.2 1.5.6 3.2 1.4 4.5-.3-.1-.6-.2-.9-.4-.4-.8-.8-1.5-1.1-2.2-.4-1.1-.7-2.2-.8-3.3 0-.3-.5-.2-.5.1.2 1.6.6 3.6 1.5 5.1l-1.5-.6c-.3-.7-.7-1.3-1-2-.4-.9-.7-1.9-.9-2.9-.1-.3-.5-.2-.4.1.3 1.4.7 3.2 1.6 4.5-.2-.1-.4-.1-.5-.2-.5-.2-1-.4-1.6-.6-.9-1.5-1.5-3-1.8-4.8 0-.2-.4-.2-.4.1 0 1.5.5 3.1 1.3 4.4-.7-.3-1.4-.6-2.1-.8-.8-1.7-1.5-3.4-1.7-5.3 0-.3-.4-.3-.4 0 .1 1.7.5 3.5 1.3 5-.4-.2-.8-.3-1.2-.5-.5-.8-1-1.5-1.4-2.4-.5-1.2-.8-2.5-.9-3.8 0-.3-.4-.3-.4 0 .1 1.9.6 4.1 1.7 5.8-.6-.3-1.3-.5-1.9-.8-1.2-2.1-2.1-4-2.2-6.6 0-.3-.4-.3-.4 0 0 2.1.5 4.4 1.6 6.1-.5-.2-1.1-.5-1.6-.7-1.3-2.3-2.1-4.5-2-7.2 0-.3-.4-.3-.4 0-.2 2.3.3 4.8 1.6 6.8-.3-.2-.7-.3-1-.5-1.3-2.7-2.2-5.2-2.2-8.2 0-.3-.4-.3-.4 0-.1 2.7.5 5.6 1.9 7.9-.7-.4-1.3-.7-1.9-1-1.6-2.4-2.2-4.8-2-7.9v-.1c.8-1.9 1.1-2.7 1.9-4.7zm-3.3 5.3c-.3 2.1.2 4.4 1.3 6.3-.3-.2-.6-.4-.8-.6-.6-.7-1.5-3.7-.5-5.7zM33.2 183c.3.9.8 2.5 1.4 4.6-.7-.3-1.5-.5-2.1-.9-.7-.4-1.3-1-1.8-1.6.5-.7 1.4-1.4 2.5-2.1zm-2.8 2.5c1.1 1.3 2.7 2.5 4.4 2.6.2.8.5 1.7.7 2.7l-.1-.1c-2.4-.9-4.4-1.8-6.2-3.4l1.2-1.8zm-6.2 27.4c3.5 2.2 7.7 4.1 11.8 4.8H24.9c-.3-1.6-.5-3.2-.7-4.8zm12.9 4.8c0-.1 0-.2-.1-.3-4.5-1.5-8.6-2.9-12.8-5.1-.1-.9-.1-1.9-.2-2.8 4.6 2.7 10 5.1 15.2 6.1.2 0 .3-.2.1-.3-5.1-2.2-10.2-4.2-15.3-6.5v-2.9c3.5 2.5 7.6 4.5 11.9 5.4.3.1.4-.4.1-.5-4.2-1.6-8.2-3.2-12-5.5 0-1.2.1-2.3.3-3.4 2.9 1.7 5.9 3.1 9.1 4 .3.1.4-.4.1-.5-3.1-1.3-6.2-2.6-9.2-4.1.1-.9.3-1.8.4-2.6 3 2.4 6.6 4.4 10.4 5 .2 0 .3-.2.1-.3-3.7-1.5-7.1-3.1-10.4-5.2l.6-2.4c2.8 1.9 5.8 3.8 9 4.7.2.1.3-.2.1-.3-3-1.7-6-3.1-8.9-4.9.3-.9.5-1.7.9-2.5 2.4 1.8 5.3 3.1 8.3 3.6.3 0 .4-.3.1-.4-2.9-1-5.6-2.2-8.2-3.8.2-.6.5-1.2.8-1.8 2.2 2 4.9 3.6 7.8 3.9.2 0 .2-.2 0-.3-2.8-1.1-5.3-2.2-7.6-4.1.4-.7.7-1.4 1.1-2.1 1.7 1.8 4.1 3.1 6.5 3.3.1 0 .1 0 .2-.1 1.4 5.9 3.1 14.8 4.1 26.7h-2.5zm4.5 0C39.9 196.6 36 184.9 35 182c2.2-1.2 4.9-2.3 7-2.9 3.5-1 6.7-2.9 8.1-3.7 3.3 2.5 11.8 5.9 18.6 8.6 3.8 1.5 7.2 2.8 8.6 3.6 2.4 1.3 10.3 2.2 17.6 2.6.2 1.5.4 2.9.7 3.8.7 1.9.5 3.3-.2 7.5l-.3 1.8c-.3 1.9-.7 3.4-1.1 4.8-.7 2.6-1.3 4.6-.2 6.8.2.4.5.6.9.6.1 0 .3 0 .4-.1.5-.2.7-.8.5-1.3-.8-1.6-.3-3 .3-5.4.4-1.3.8-3 1.2-5l.3-1.8c.7-4.3 1-6.1.1-8.5-.2-.6-.4-1.8-.6-3 2.3.1 4.5.2 6.4.2 0 .5-.1 1.1-.1 1.7-.1.7-.1 1.5-.2 2.4-.2 4.4.8 10 .9 10.9l-.2 9c0 .6.4 1 1 1 .5 0 1-.4 1-1l.2-9.1v-.2c0-.1-1.1-6-.9-10.5 0-.9.1-1.7.2-2.4s.1-1.3.1-1.9c1.5 0 2.5-.1 2.9-.3.4-.1 1.5-.4 3-.9 2.4-.7 5.7-1.6 9.2-2.7.1.1.3.1.4 0l.1-.1c6.8-2.1 14.4-4.6 17.7-6.8 4.4-2.9 5.9-5.5 6.4-7 3 1 8.4 2.9 9.8 3.8 1.6 1 9.1 6.4 11.1 7.8-.6 3.2-3.3 18.3-2.9 33.6l-121.4-.2zm123.3-1.3c.9.5 1.8.9 2.8 1.3H165c0-.4 0-.9-.1-1.3zm4.4 1.3c-1.4-.7-2.9-1.4-4.4-1.9v-3.1c2.8 2 6 3.5 9.3 4 .3 0 .4-.4.1-.4-3.4-1.1-6.5-2.3-9.4-4.2 0-1.1.1-2.1.1-3.2 2.6 1.2 5.3 2.4 8 3.2.2.1.4-.3.2-.4-2.6-1.3-5.4-2.4-8.1-3.4.1-1.1.1-2.1.2-3.1 2.3 1.5 4.8 2.8 7.4 3.6.2.1.4-.3.2-.4-2.6-1.2-5.1-2.3-7.6-3.8.1-.9.1-1.8.2-2.7 1.8 1.7 4.7 2.7 7.1 2.8.2 0 .3-.3.1-.4-1.4-.4-2.8-.8-4.2-1.4-1-.5-1.9-1.1-2.9-1.7.1-.9.2-1.7.2-2.6 2.1 1.2 4.2 2.5 6.4 3.3.2.1.3-.2.1-.3-2-1.4-4.3-2.4-6.5-3.4.1-1.1.2-2.1.4-3 1.6 1.1 3.2 2.2 4.9 3.1.2.1.3-.1.1-.2-1.6-1.2-3.3-2.3-5-3.2.3-2.3.6-4.3.8-6 1 .9 2 1.8 3.1 2.5.2.1.4-.1.2-.3-.9-1-2.1-1.9-3.2-2.7.2-1.4.4-2.5.6-3.2 1.4.7 4.1 2.4 6 6.6 2.5 5.4 2.8 21.9 2.9 26.1l-7.3-.2zm-2.3-25.9c-.3-.1-.4.2-.2.4 1.2.9 2.5 1.9 3.8 2.4.2.1.5-.2.3-.4-1.2-1-2.6-1.8-3.9-2.4zm-87.4-12.2c-.1-.8-.4-1.6-.6-2.5-.2-1-.2-1.9-.1-2.9 0-.3-.4-.3-.4 0-.2 1.7-.1 4 .8 5.5.1.2.3.1.3-.1zm1.9.9c.1-1.6-.3-3.4-.5-5 0-.3-.4-.3-.4 0 .1 1.7.1 3.5.5 5.1.1.2.4.1.4-.1zm1.2.1c.1-1.3-.3-2.7-.5-4.1 0-.2-.3-.1-.3.1.1 1.3.1 2.8.5 4.1 0 .2.3.1.3-.1zm2 1c-.2-1.5-.8-2.8-1-4.3 0-.3-.4-.3-.4 0 .1 1.4.3 3.2 1.1 4.4.1.2.3.1.3-.1zm2.1.2c.1.1.2-.1.1-.2-.3-.3-.6-.6-.8-1-.2-.4-.4-.8-.4-1.2 0-.3-.5-.2-.4.1 0 .9.5 2 1.5 2.3zm2.4.7c.1.1.3 0 .3-.2-.4-.9-1.1-1.8-1.7-2.6-.2-.2-.6 0-.4.2.6.9 1.1 1.8 1.8 2.6zm19 .3c.2-.5.2-1.2.2-1.8 0-.2-.4-.2-.4 0-.1.6-.3 1.2-.1 1.8.1.1.3.1.3 0zm1.3-.4c.2-.4.2-.8.3-1.2.1-.5.2-.9.3-1.4.1-.3-.3-.4-.4-.1l-.3 1.5c-.1.4-.2.8-.1 1.2-.1.1.1.2.2 0z"/>
    <path d="M60.8 86.8s-2.1-5.1-4.3-8.3c-2.2-3.2-5.5-7.6-7.6-8.7s-3.6-.4-3 2.6 3 12.6 3.6 15.6c.7 3 2.2 9.4 4.2 13.6 1.9 4.2 3.1 6.1 5.2.5 2.1-5.7 3.4-11.8 1.9-15.3z" fill="#fff"/>
    <path d="M52.9 102c-2-4.4-3.6-11.1-4.2-13.8-.2-1-.7-2.9-1.2-5-.9-3.9-2.1-8.7-2.4-10.7-.4-2.2.2-3.3.9-3.7.5-.4 1.6-.8 3.5.2 2.3 1.2 6.6 3.9 8.9 7.3 2.2 3.3 3.3 10 3.4 10.2 1.7 4.1 1.3 10.3-.6 15.3-1 2.8-3.3 4.7-4.5 4.8h-.1c-1.5-.1-2.5-1.9-3.7-4.6zm2.9-23.1c-3-4.5-5.7-7.6-7.2-8.4-.9-.5-1.4-.5-1.6-.3-.2.2-.4.8-.2 2 .4 1.9 1.5 6.7 2.4 10.6.5 2.1.9 4 1.2 5 .6 2.6 2.2 9.2 4.1 13.4.4.9 1.5 3.3 2 3.5.1 0 .6-.3 1.6-2.9 2.4-6.6 3.1-11.8 2-14.7-.1-.1-2.2-5.1-4.3-8.2z"/>
    <path d="M47.6 73.1c3.5 4 6.5 10.6 7 16.9 0 .4-.4.5-.5.1-.1-.6-.2-1.1-.4-1.7-.3-.8-.9-.9-1.6-.2.1.5.1 1 .3 1.4.2.6.4 1.3.6 1.9.6 1.5 1.3 2.6 2 3.9.1.3 0 .7-.3.5-1.7-1.4-3.4-5.4-3.4-8.2 0-.8.3-1.6.9-1.7.4 0 .7.1.9.4-1.3-4.9-3-8.9-5.8-13 0-.2.1-.5.3-.3z"/>
    <path d="M139.2 86.8s2.1-5.1 4.3-8.3c2.2-3.2 5.5-7.6 7.6-8.7 2.1-1.1 3.6-.4 3 2.6-.6 3-2.9 12.7-3.6 15.7-.7 3-2.2 9.4-4.2 13.6-1.9 4.2-3.1 6.1-5.2.5-2.1-5.8-3.4-11.9-1.9-15.4z" fill="#fff"/>
    <path d="M143.5 106.5s-.1 0 0 0c-1.3 0-3.5-1.9-4.6-4.8-1.8-5-2.3-11.2-.6-15.3.1-.2 1.2-6.9 3.4-10.2 2.3-3.4 6.6-6.1 8.9-7.3 1.9-1 3-.5 3.5-.2.6.5 1.3 1.5.9 3.7-.4 1.9-1.5 6.8-2.4 10.7-.5 2.1-.9 4-1.2 5-.6 2.7-2.2 9.4-4.2 13.8-1.3 2.8-2.3 4.6-3.7 4.6zM140 87.1c-1.2 2.8-.5 8 2 14.7 1 2.6 1.5 2.9 1.6 2.9.5-.2 1.6-2.6 2-3.5 1.9-4.2 3.5-10.8 4.1-13.4.2-1 .7-2.9 1.2-5 .9-3.9 2.1-8.7 2.4-10.6.2-1.2 0-1.8-.2-2-.2-.1-.7-.1-1.5.3-1.5.8-4.2 4-7.2 8.4-2.3 3.1-4.4 8.1-4.4 8.2z"/>
    <path d="M152.4 73.1c-3.5 4-6.5 10.6-7 16.9 0 .4.4.5.5.1.1-.6.2-1.1.4-1.7.3-.8.9-.9 1.6-.2-.1.5-.1 1-.3 1.4-.2.6-.4 1.3-.6 1.9-.6 1.5-1.3 2.6-2 3.9-.1.3 0 .7.3.5 1.7-1.4 3.4-5.4 3.4-8.2 0-.8-.3-1.6-.9-1.7-.4 0-.7.1-.9.4 1.3-4.9 3-8.9 5.8-13 0-.2-.1-.5-.3-.3z"/>
    <path d="M142.4 53.6c-2.3-11.4-15.1-28.8-42.4-28.8S63.6 38.2 59.6 48.1c-2.5 6.2-3.2 15.2-3.4 19.7 0 0 5.1 28.9 14.7 45.8 9.6 16.8 20.9 26.9 25.5 30.1 4.6 3.2 22.8-13.2 30.1-26s16.1-37.4 17.4-49.9c-.1-3.2-.4-8.9-1.5-14.2z" fill="#fff"/>
    <path d="M97.8 145.2c-.8 0-1.5-.2-2.1-.6-1.5-1-14.5-10.5-25.8-30.4-9.5-16.8-14.6-45-14.8-46.1v-.2c.2-4.8.9-13.8 3.4-20.1 6.6-16.2 20.1-24 41.5-24 12.3 0 23.2 3.6 31.3 10.4 6.3 5.2 10.9 12.5 12.2 19.3 1.1 5.5 1.3 11.4 1.4 14.4v.2c-1.3 12.1-9.9 37.1-17.5 50.3-6.4 11.2-21.1 25.2-28.2 26.8h-1.4zM57.3 67.8c.4 2 5.5 29.4 14.5 45.3 11 19.5 23.8 28.7 25.2 29.7.4.3 1.2.2 1.7.1 6.5-1.4 20.7-15.1 26.7-25.7 7.4-13 16-37.4 17.2-49.4 0-3-.3-8.7-1.4-14-1.3-6.4-5.6-13.1-11.5-18-7.7-6.5-18-9.9-29.9-9.9-20.3 0-33.2 7.4-39.4 22.6-2.2 6-2.9 14.6-3.1 19.3z"/>
    <path d="M113.77 117.76c-.37.06-.74.14-1.11.21-2.95-1-5.96-1.67-9.06-2.03-.11-.01-.16.04-.2.12-1.14.59-2.28 1.18-3.43 1.78-1.21-.44-2.36-1-3.45-1.67-.12-.08-.24-.02-.3.07l-8.19 2.31c-.03.01-.03.03-.05.04-.44-.04-.88-.09-1.32-.12-.63-.04-.63.94 0 .98.52.03 1.03.08 1.55.14 3.7 3.09 7.35 7.51 12.61 7.33 5.19-.18 8.91-4.27 12.02-7.98.4-.08.79-.15 1.19-.22.62-.13.36-1.07-.26-.96zm-17.32-1.09c1.09.65 2.23 1.2 3.42 1.64.03.01.04-.01.07 0 .06.03.13.03.21-.01 1.19-.62 2.38-1.24 3.58-1.85 2.71.32 5.35.9 7.94 1.72-3.46.71-6.98 1.58-10.47 1.8-4.03.25-8-.73-11.99-1.25 2.41-.69 4.83-1.37 7.24-2.05zm4.37 9.75c-4.89.13-8.3-3.75-11.73-6.74 4.11.52 8.2 1.56 12.35 1.25 3.56-.27 7.12-1.14 10.64-1.85-2.92 3.46-6.46 7.21-11.26 7.34z"/>
    <path d="M75 84.3c-1.5 1.9-1.3 4.5.4 6 1.8 1.7 4.9 2.1 7.1.1 1.1-1.1 1.9-2.3 1.5-3.7-.1-.5-.7-3-2.1-3.8-2.5-1.4-5.1-.9-6.9 1.4z" fill="#fff"/>
    <path d="M79.1 92.1c-1.5 0-2.9-.6-3.9-1.5-1.8-1.7-2-4.4-.4-6.4 1.9-2.4 4.7-3 7.3-1.5 1.3.8 2 2.9 2.3 4.1.3 1.4-.2 2.7-1.6 4-1.2.8-2.4 1.3-3.7 1.3zm-3.9-7.6c-1.4 1.7-1.2 4.1.4 5.6 1.7 1.5 4.7 2 6.6.1 1.2-1.2 1.7-2.3 1.4-3.4-.4-1.8-1.1-3.2-2-3.6-2.2-1.4-4.6-.9-6.4 1.3zm4 6.3c-1.1 0-2.2-.4-3-1.2-1.4-1.3-1.5-3.4-.3-4.9 1.4-1.8 3.6-2.2 5.5-1.1 1 .6 1.5 2.2 1.7 3.1.2 1-.2 2-1.2 3-.8.8-1.8 1.1-2.7 1.1zm-2.9-5.7c-1 1.2-.9 3 .3 4 1.2 1.1 3.4 1.5 4.8.1.9-.8 1.2-1.7 1.1-2.4-.3-1.3-.8-2.3-1.4-2.7-1.8-.9-3.5-.5-4.8 1zm4.9 1.3c0-.2-.1-.4-.2-.6-.4-.8-1.3-1.1-2.1-.9.2.2.2.4.2.7 0 .2 0 .3-.1.4 0 .1-.1.2-.2.3-.2.2-.5.3-.8.3-.3 0-.6-.1-.8-.3l-.2-.2c-.1.2-.2.5-.2.7 0 .3.1.5.3.7 0 .2.1.3.2.4.5.9 1.6 1.1 2.5.7h.2c-.2-.3 0-.8.5-.8.2 0 .4.1.4.2.1-.1.1-.1.1-.2.4-.4.4-.9.2-1.4zm.9.9c0-.7-.2-1.9-.9-2.5-1.3-1.1-2.9-1.1-4.3.1-1.1 1-1.3 2.6-.4 3.7.6.8 1.6 1.3 2.6 1.3.5 0 1.1-.1 1.6-.5 1-.6 1.4-1.2 1.4-2.1zM81 88.7c0 .2-.2.3-.5.3-1.3.8-2.8.3-3.6-.7-.6-.8-.6-1.9 0-2.7v-.1c0-.2 0-.3.1-.4 0-.1.1-.2.2-.3.2-.2.5-.3.8-.3.2 0 .3 0 .5.1.8-.2 1.7-.1 2.4.6.4.3.7 1.1.7 2.2 0 .4-.2.9-.6 1.3z"/>
    <path d="M79 72.1c-8.2 0-14.8 6.6-14.8 14.8s6.6 14.8 14.8 14.8 14.8-6.6 14.8-14.8c0-8.1-6.6-14.8-14.8-14.8zM84.4 93c-4.5 1.4-10-.2-12.8-2.1C68.9 89 67 86 67 86c9.1-2.2 13.6-.3 17 1.1s5 4.1 5 4.1-.1.4-4.6 1.8z" fill="#fff"/>
    <path d="M90.3 92.1c-2.1-6.9-5.3-10.9-9.6-12-7.4-1.9-15.1 5.6-15.4 5.9-.2.2-.2.5-.1.7s.4.3.6.3c12.7-3.7 19.6 1.4 22.2 4.1-2.2 1.1-13 5.7-19.8-4.2-.2-.3-.5-.3-.8-.1-.3.2-.3.5-.1.8 3.6 5.2 8.2 6.7 12.3 6.7 4.5 0 8.4-1.8 9.2-2.2.3.4.5.6.5.6.1.2.3.3.5.3h.2c.3-.3.4-.6.3-.9zM69.1 85c.4-.3.8-.8.9-.8.4-.4.9-.7 1.3-1.1.4-.2.9-.5 1.3-.7-.5.4-1 .9-1.5 1.3-.4.4-.8.8-1.1 1.2-.3 0-.6 0-.9.1zm1.8-.3.7-.7c.6-.5 1.1-1.1 1.5-1.7.1-.1 0-.2-.1-.2.8-.4 1.7-.7 2.6-.9-.6.4-1.2.9-1.7 1.4-.7.6-1.3 1.2-1.9 1.9-.4.1-.7.1-1.1.2zm3.6-.2c.9-.8 1.9-1.6 2.6-2.6.1-.2-.1-.4-.3-.3-1.2.8-2.2 1.9-3.2 2.9h-.9c.5-.4.9-.9 1.4-1.3.8-.7 1.6-1.3 2.3-2v-.1c.6-.1 1.2-.2 1.8-.2.7 0 1.5.1 2.2.3 3.3.9 5.9 3.7 7.8 8.5-2.2-2.2-6.6-5.2-13.7-5.2z"/>
    <path d="M116.9 84.3c-1.5 1.9-1.3 4.5.4 6 1.8 1.7 4.9 2.1 7.1.1 1.1-1.1 1.9-2.3 1.5-3.7-.1-.5-.7-3-2.1-3.8-2.4-1.4-5-.9-6.9 1.4z" fill="#fff"/>
    <path d="M121.1 92.1c-1.5 0-2.9-.6-3.9-1.5-1.8-1.7-2-4.4-.4-6.4 1.9-2.4 4.7-3 7.3-1.5 1.3.8 2 2.9 2.3 4.1.3 1.4-.2 2.7-1.6 4-1.2.8-2.5 1.3-3.7 1.3zm-3.9-7.6c-1.4 1.7-1.2 4.1.4 5.6 1.7 1.5 4.7 2 6.6.1 1.2-1.2 1.7-2.3 1.4-3.4-.4-1.8-1.1-3.2-2-3.6-2.3-1.4-4.7-.9-6.4 1.3zm3.9 6.3c-1.1 0-2.2-.4-3-1.2-1.4-1.3-1.5-3.4-.3-4.9 1.4-1.8 3.6-2.2 5.5-1.1 1 .6 1.5 2.2 1.7 3.1.2 1-.2 2-1.2 3-.8.8-1.7 1.1-2.7 1.1zm-2.8-5.7c-1 1.2-.9 3 .3 4 1.2 1.1 3.4 1.5 4.8.1.9-.8 1.2-1.7 1.1-2.4-.3-1.3-.8-2.3-1.4-2.7-1.8-.9-3.6-.5-4.8 1zm4.9 1.3c0-.2-.1-.4-.2-.6-.4-.8-1.3-1.1-2.1-.9.2.2.2.4.2.7 0 .2 0 .3-.1.4 0 .1-.1.2-.2.3-.2.2-.5.3-.8.3-.3 0-.6-.1-.8-.3l-.2-.2c-.1.2-.2.5-.2.7 0 .3.1.5.3.7 0 .2.1.3.2.4.5.9 1.6 1.1 2.5.7h.2c-.2-.3 0-.8.5-.8.2 0 .4.1.4.2.1-.1.1-.1.1-.2.4-.4.4-.9.2-1.4zm.9.9c0-.7-.2-1.9-.9-2.5-1.3-1.1-2.9-1.1-4.3.1-1.1 1-1.3 2.6-.4 3.7.6.8 1.6 1.3 2.6 1.3.5 0 1.1-.1 1.6-.5 1-.6 1.4-1.2 1.4-2.1zm-1.1 1.4c-.1.2-.2.4-.5.4-1.3.8-2.8.3-3.6-.7-.6-.8-.6-1.9 0-2.7v-.1c0-.2 0-.3.1-.4 0-.1.1-.2.2-.3.2-.2.5-.3.8-.3.2 0 .3 0 .5.1.8-.2 1.7-.1 2.4.6.4.3.7 1.1.7 2.2 0 .3-.2.8-.6 1.2z"/>
    <path d="M121 72.1c-8.2 0-14.8 6.6-14.8 14.8s6.6 14.8 14.8 14.8 14.8-6.6 14.8-14.8c0-8.1-6.6-14.8-14.8-14.8zm6.8 18.8c-2.8 1.9-8.3 3.5-12.8 2.1s-4.6-1.7-4.6-1.7 1.6-2.7 5-4.1 7.9-3.3 17-1.1c.1-.1-1.8 2.9-4.6 4.8z" fill="#fff"/>
    <path d="M134.2 85.9c-.3-.3-8.1-7.8-15.4-5.9-4.3 1.1-7.5 5.2-9.6 12-.1.3.1.6.3.7h.2c.2 0 .4-.1.5-.3 0 0 .2-.3.5-.6.8.4 4.7 2.2 9.2 2.2 4.1 0 8.7-1.5 12.3-6.7.2-.3.1-.6-.1-.8s-.6-.1-.8.1c-6.8 10-17.6 5.3-19.8 4.2 2.6-2.7 9.5-7.9 22.2-4.1.2.1.5 0 .6-.3.1 0 .1-.3-.1-.5zm-21.6 2.6c-.1.1-.3.2-.4.3.1-.6.2-1.2.2-1.8.1-.1.1-.2.2-.3 0 .6-.1 1.2 0 1.8zm.6-.4v-2.2c.1-.2.2-.3.3-.5-.1.8-.1 1.6.2 2.4-.2.1-.4.2-.5.3zm1-.7c.1-1 0-2 0-2.9.3-.4.7-.7 1-1.1-.1 1.1-.2 2.3.1 3.4-.4.2-.8.4-1.1.6zm1.4-.8c.1-1.2 0-2.4 0-3.6.3-.2.6-.5.9-.7 0 1.1 0 2.2.2 3.2 0 .2.3.1.3 0 .1-1.1-.1-2.1-.2-3.2 0-.1-.1-.1-.1-.1.5-.3 1-.6 1.5-.8 0 1.3 0 2.7.4 4-1.1.4-2.1.8-3 1.2zm3.4-1.3c.1-1.3-.2-2.7-.6-4 .2-.1.4-.1.6-.2.7-.2 1.5-.3 2.2-.3 4.1 0 8.1 2.6 10.3 4.3-5.1-1.1-9.3-.7-12.5.2zM63.38 74.47c.22-.18 5.53-4.4 8.18-4.68 2.64-.28 18.4 3.81 19.44 5.45.47.75.57 1.33.28 1.75-.23.33-.68.5-1.35.5-.44 0-.98-.07-1.61-.21-1.05-.23-3.78-1.19-6.94-2.29-4.07-1.43-8.69-3.04-9.81-3.12-1.58-.1-6.16 2.28-7.79 3.21-.16.09-.37.04-.48-.11a.408.408 0 0 1 .08-.5zM136.62 74.47c-.22-.18-5.53-4.4-8.18-4.68-2.64-.28-18.4 3.81-19.44 5.45-.47.75-.57 1.33-.28 1.75.23.33.68.5 1.35.5.44 0 .98-.07 1.61-.21 1.05-.23 3.78-1.19 6.94-2.29 4.07-1.43 8.69-3.04 9.81-3.12 1.58-.1 6.16 2.28 7.79 3.21.16.09.37.04.48-.11.09-.17.06-.38-.08-.5z"/>
    <path d="M98.1 130.1c-3.7-.2-7.7-.1-10.8 1-3.1 1.1-3.2 4.8-1.7 9.4 1.5 4.6 2.8 8.9 4.4 10.5 1.6 1.6 12.8 1.9 15.6 1.4 2.7-.4 7.2-12.1 8.2-14.7 1.1-2.6 0-5.6-3.9-6.6s-10.1-.9-11.8-1z" fill="#fff"/>
    <path d="M114.2 133.6c-.5-1-1.7-2.4-4.2-3.1-3.2-.8-7.7-.9-10.4-.9H98c-4.8-.2-8.4.1-11 1.1-2.2.8-4.3 3.2-2 10l.5 1.4c1.4 4.1 2.5 7.7 4.1 9.2 1.3 1.4 7.6 1.8 12 1.8 1.8 0 3.3-.1 4-.2 2.4-.4 5.3-6.9 8.2-13.9.2-.5.3-.8.5-1.1.6-1.5.5-3-.1-4.3zm-27.7 8.2-.5-1.4c-.7-2-1.2-4.3-.8-6 .9 3.3 3.4 12.6 5.4 16.5-.1-.1-.2-.1-.3-.2-1.3-1.4-2.5-5.1-3.8-8.9zm26.8-4.3c-.1.3-.3.7-.5 1.1-3.5 8.6-6 13.1-7.4 13.3-2.7.4-11.1.1-14.1-.8-2.1-3.7-5.2-15.3-5.8-17.7.3-.8 1-1.4 1.9-1.8 2-.7 4.6-1.1 7.9-1.1.8 0 1.8 0 2.7.1h3.5c.1 1.3.2 5.7-.3 9.8 0 .1.1.3.2.3s.2-.1.2-.2c.5-4.1.4-8.5.3-9.8 1.2 0 2.4.1 3.7.2-.1.8-.3 2.7-.5 4.4 0 .1.1.3.2.3s.2-.1.2-.2c.2-1.7.4-3.6.5-4.4 1.3.1 2.5.3 3.6.6 1.7.4 3 1.3 3.6 2.5.6 1 .6 2.2.1 3.4zm-25.7-2.3c0-.1-.2-.2-.3-.2-.1 0-.2.2-.2.3 1.1 4.9 2.8 9.6 5 14.1 0 .1.1.1.2.1h.1c.1-.1.2-.2.1-.3-2.2-4.5-3.8-9.2-4.9-14zm2.2-2.5c0-.1-.1-.2-.2-.2s-.2.1-.2.2c0 .4 1.9 9.1 3.1 12.9 0 .1.1.2.2.2h.1c.1 0 .2-.2.2-.3-1.3-4-3.2-12.4-3.2-12.8zm3.6 8.8c-.1 0-.2.1-.2.3 0 .1.7 5.5 1.5 8.4 0 .1.1.2.2.2h.1c.1 0 .2-.2.2-.3-.8-2.8-1.5-8.2-1.5-8.3 0-.2-.1-.3-.3-.3zm18.8-6.9c-.1 0-.3 0-.3.2v.1c-.8 2.5-3.6 11.1-6.1 15.2-.1.1 0 .3.1.3h.1c.1 0 .2 0 .2-.1 2.5-4.2 5.3-12.8 6.1-15.4v-.1c.1-.1 0-.2-.1-.2zm-2.9 2.6c-.1 0-.3 0-.3.2 0 .1-2.8 9.7-5 13.3-.1.1 0 .3.1.3h.1c.1 0 .2 0 .2-.1 2.3-3.7 5-13 5.1-13.4.1-.1 0-.2-.2-.3zm-3.4 6c.2 0 .3-.1.3-.2.8-4.1 2.2-10.9 2.2-10.9 0-.1-.1-.3-.2-.3s-.3.1-.3.2-1.4 6.8-2.2 10.9c0 .2.1.3.2.3zm-1.4-2.7c-.1 0-.3.1-.3.2-.3 3.2-2.6 9.7-2.7 9.8-.1.1 0 .3.2.3h.1c.1 0 .2-.1.2-.2.1-.3 2.4-6.6 2.7-9.9.1 0 0-.1-.2-.2zm-10.1-6.8c-.1 0-.2.1-.2.3 0 .1.4 6 .7 9.6 0 .1.1.2.2.2s.2-.1.2-.3c-.4-3.6-.7-9.5-.7-9.5 0-.2-.1-.3-.2-.3zm6.9 11.8c-.1 0-.3.1-.3.2-.1 1.8-1.3 5.4-1.4 5.4 0 .1 0 .3.2.3h.1c.1 0 .2-.1.2-.2.1-.1 1.2-3.7 1.4-5.6 0 .1-.1-.1-.2-.1zm1.6-2.9c.2 0 .3-.1.3-.2.3-1.8 1.1-8 1-8.4 0-.1-.2-.2-.3-.2-.1 0-.2.2-.2.3 0 .4-.6 6.2-1 8.2 0 .2 0 .3.2.3zm-6.8 2.9c-.1 0-.2.1-.2.3 0 .2.2 3.9.5 5.3 0 .1.1.2.2.2h.1c.1 0 .2-.2.2-.3-.3-1.3-.5-5.2-.5-5.2 0-.2-.2-.3-.3-.3zm-4-13.3c-.1 0-.2.1-.2.3 0 0 .2 2.9.5 4.6 0 .1.1.2.2.2s.2-.1.2-.3c-.3-1.6-.5-4.5-.5-4.5 0-.2-.1-.3-.2-.3z"/>
    <path d="M99.19 109.38c25.03-1.68 30.08 16.97 29.48 17.21s-9.07-4.44-12.56-5.53c-3.49-1.08-5.85-1.06-5.85-1.06s-1.2-3.61-1.68-4.33c-.48-.72.6 4.09.6 4.09s-5.75-.34-6.6-.34c-.57 0-.7-1.69-1.11-2.77-.1-.27-.49-.25-.56.03l-.67 2.58s-5 .31-6.71.13c-.82-.09-1.05-1.77-1.1-2.67-.01-.12-.18-.15-.22-.03-.34.89-.99 2.62-1.08 2.89-.12.36-2.98.25-7.6 1.86-6.61 2.3-8.3 5.77-8.91 5.05-2-2.38 5.3-15.81 24.57-17.11z" fill="#fff"/>
    <path d="M128.99 125.73c-.78-3.45-4.49-10.45-13.22-14.25l-.04-.04c-.06-.06-.13-.07-.19-.06-4.22-1.79-9.6-2.83-16.37-2.37-15.22 1.02-22.77 9.55-24.64 13.92-.73 1.7-.8 3.09-.2 3.81.11.14.26.21.43.23h.06c.38 0 .75-.32 1.4-.88 1.18-1.01 3.38-2.89 7.43-4.29 2.83-.98 4.97-1.31 6.25-1.51 1.09-.17 1.46-.23 1.58-.58.05-.14.29-.8.7-1.87.22 1.22.66 1.87 1.32 1.94 1.73.18 6.57-.12 6.77-.13l.27-.02.67-2.58c.09.28.16.59.24.89.25 1 .46 1.86 1.13 1.86.82 0 6.52.33 6.58.33l.5.03-.11-.49c-.11-.5-.23-1.03-.33-1.52.28.77.54 1.53.69 1.97l.09.26h.27c.03-.01 2.37-.01 5.74 1.04 1.78.55 4.86 2.05 7.58 3.37 4.11 2 4.84 2.3 5.22 2.15.34-.15.32-.57.18-1.21zm-10.19-11.82c2.49 3.09 4.07 5.84 4.49 9.91-1.08-.52-2.18-1.05-3.24-1.54.36-3.38-.77-6.7-2.89-9.3.57.3 1.13.61 1.64.93zm-2.84-1.53c2.59 2.68 3.77 6 3.76 9.74-.58-.27-1.14-.51-1.66-.73-.58-3.69-1.52-6.77-3.74-9.7.57.22 1.11.45 1.64.69zm-5.61-1.88c1.83 3.04 2.9 5.98 3.28 9.53-.39-.08-.76-.15-1.09-.2 0-.02.02-.04.01-.06-.67-3.61-2.18-6.9-4.5-9.71.8.12 1.56.28 2.3.44zm.59.15c.32.08.65.16.96.25 1.95 3.04 3.09 5.98 3.61 9.6-.57-.16-1.11-.29-1.6-.4-.02-3.31-1.06-6.73-2.97-9.45zm-5.86-.9c1.46 3.12 1.97 6.24 2.78 9.56-.56-.03-1.23-.07-1.91-.11-.3-3.32-.57-6.54-2.1-9.53.42.02.82.06 1.23.08zm-1.63-.08c1.46 3.05 1.77 6.18 2.07 9.51-.59-.03-1.17-.06-1.66-.08-.1-3.16-.18-6.5-1.42-9.44.34 0 .68 0 1.01.01zm-5.63.22c.28-.03.55-.06.83-.08-.03 3.08-.03 6.11-.22 9.18-.54.02-1.14.05-1.76.07-.15-3.2-.16-6.18 1.15-9.17zm-8.35 9.71c-.69.11-1.58.26-2.65.51.5-3.67 2.12-6.2 4.49-9 .39-.11.8-.21 1.21-.31-1.87 2.51-3.03 5.65-3.05 8.8zm-1.21-7.45c.66-.26 1.35-.5 2.06-.73-2.41 2.19-3.76 5.65-4.01 8.81-.49.12-1.02.27-1.58.44.61-3.17 1.28-5.99 3.53-8.5v-.02zm-9.9 11.38c-.51.33-.95.65-1.34.94.73-2.89 1.75-5.33 3.43-7.76.91-.76 1.93-1.5 3.07-2.21-2.53 2.33-4.04 5.89-5.16 9.03zm5.7-8.9c-1.8 2.15-2.94 4.85-3.42 7.6-.7.34-1.31.69-1.86 1.03 1.22-3.14 2.82-6.29 5.28-8.63zm-8.33 10.89c-.33.28-.69.59-.87.68-.27-.4-.32-1.4.36-2.98.61-1.43 1.87-3.32 3.82-5.23-1.36 2.04-2.29 4.48-2.47 6.83-.32.26-.61.5-.84.7zm7.67-4.43c-.85.3-1.61.61-2.31.94.69-3.59 2.51-6.49 5.14-9.01.38-.18.75-.37 1.15-.54-2.04 2.2-2.7 5.43-3.13 8.32-.27.1-.55.19-.85.29zm8.46-4.52c-.57 1.51-.93 2.45-1.05 2.79-.16.05-.55.11-.95.17.35-3.34 1.32-6.15 3.28-8.89.53-.12 1.07-.23 1.62-.33-1.18 1.67-2.15 3.9-2.5 5.95a.48.48 0 0 0-.4.31zm.94.14a.481.481 0 0 0-.22-.37c.29-1.14.64-2.23 1.15-3.31.44-.94 1.01-1.82 1.41-2.78.3-.05.59-.11.89-.15-1.09 2.83-1.85 5.94-1.42 8.98-.41-.01-.77-.02-1.04-.05-.31-.03-.67-.76-.77-2.32zm2.21 2.37c-.25-3.15.5-6 1.3-9.03.32-.04.65-.07.98-.11-1.32 2.82-1.4 6.08-.92 9.12-.46.02-.93.02-1.36.02zm3.83-.11c.35-3.01.47-6.18.11-9.19l.26-.03c.52-.04 1.02-.05 1.52-.06.17 2.5-.03 4.9-.3 7.35l-.49 1.87c-.23.02-.63.04-1.1.06zm3.78.1c-.16-.11-.34-.86-.45-1.3-.1-.42-.21-.85-.35-1.23-.1-.27-.38-.46-.66-.43-.03 0-.06.01-.09.02.29-2.13.27-4.33.12-6.45.29-.01.58-.01.86-.01 1.12 3.06 1.14 6.22 1.35 9.43-.36-.03-.64-.04-.78-.03zm5.66.27c-.5-3.15-1.12-6.83-2.88-9.56l.54.03c1.11 1.64 1.78 3.56 2.39 5.45-.29.13-.48.25.37 4.1-.12-.01-.26-.01-.42-.02zm.6-3.87c-.01-.02-.03-.02-.04-.04-.38-1.91-1.32-3.96-2.35-5.55.39.04.78.09 1.16.14 2.3 2.88 3.8 6.12 4.44 9.77-.72-.1-1.26-.13-1.56-.14-.3-.89-1.21-3.53-1.65-4.18zm7.2 5.19c-.45-3.24-1.36-6.96-3.53-9.57.34.1.67.21.99.32 1.21 1.61 2.3 3.15 2.93 5.11.49 1.5.73 3.07.97 4.63-.44-.17-.86-.33-1.22-.44-.05-.02-.09-.04-.14-.05zm7.81 3.45c-.11-3.03-1.25-6.46-3.28-8.94 1.14.87 2.12 1.77 2.93 2.65.31.34.6.67.88 1.01 1.1 2.03 2.06 4 1.9 6.45-.76-.36-1.61-.77-2.42-1.16 0-.01 0-.01-.01-.01zm2.92 1.39c.12-1.45-.13-2.87-.62-4.22 1.38 2.24 1.98 4.11 2.12 4.86-.33-.11-.87-.35-1.5-.64z"/>
    <path d="M96.13 77.79s-5.71 19.9-6.24 24.21c-.29 2.31 5.38 2.5 5.38 2.5s-.29 6.15.48 7.11 2.5.48 3.84-.86 3.65-6.05 3.65-6.05 2.02.19 3.55-.58 2.31-2.59.86-5c-1.44-2.4-6.24-20.65-7.69-21.52s-2.19-.87-3.83.19z" fill="#fff"/>
    <path d="M102.52 104.6c-.71 1.64-1.4 3.33-2.54 4.72-.67.81-1.89 1.99-3.06 1.81-1.16-.18-.82-1.68-.84-2.56-.09-4.17-.11-8.35-.05-12.52.12-8.22.54-16.43 1.24-24.62.07-.87-1.29-.87-1.36 0-1.13 13.3-1.5 26.66-1.11 40 .01.22.12.49.34.59 4.5 2.05 7.15-3.45 8.57-6.74.33-.79-.84-1.48-1.19-.68zM105.15 103.66c.41-.94 1.45-1.47 2.35-.75.68.54 1.65-.41.96-.96-1.51-1.22-3.68-.81-4.49 1.02-.34.79.83 1.49 1.18.69zM91.39 103.02c.68-.26 1.37.02 1.68.68.37.8 1.54.1 1.18-.69-.54-1.17-2.01-1.77-3.21-1.31-.82.32-.47 1.63.35 1.32z"/>
    <path d="M108.4 21.6c-2.1-.4-4.3-.5-6.4-.6 1.5-.3 3.1-1.5 3.2-5.7.1-4.6-2.8-7.2-5.4-7.2s-6 .9-7.4 1.2c-1.4.3-5.4.2-7.3 2.1s-2.1 5-.9 7.9c.9 2.1 2.3 2.9 3.5 3.1-3.9.8-6.8 1.9-8.1 2.6-3.2 1.7-6.3 6-6.3 6s5.9 3.1 10.5 7.4S96.6 44 101.1 43s11.6-5.9 14-9.1 7.7-3.8 7.7-3.8-2.1-6.4-14.4-8.5z" fill="#fff"/>
    <path d="M123.8 29.8c-.1-.3-2.4-7-15.2-9.2-1.2-.2-2.4-.4-3.6-.5.8-1.1 1.2-2.7 1.2-4.8.1-2.6-.8-4.8-2.3-6.4a5.54 5.54 0 0 0-4.1-1.8c-2.4 0-5.3.7-7 1.1l-.6.1c-.3.1-.8.1-1.3.2-1.9.2-4.8.5-6.5 2.2-2.2 2.1-2.6 5.6-1.1 9 .4 1 1 1.8 1.6 2.4-2.7.7-4.8 1.5-5.8 2-3.4 1.8-6.5 6.1-6.7 6.3l-.7.9 1 .5c.1 0 5.8 3.1 10.3 7.3 3.7 3.5 9.8 5.2 14.6 5.2 1.3 0 2.4-.1 3.5-.3 4.8-1 12.2-6.2 14.6-9.5 2.1-2.8 7-3.4 7-3.4l1.2-.1-.1-1.2zm-9.5 3.5c-1.2 1.6-3.8 3.8-6.6 5.5 3.7-4 5.9-9.1 6.4-14.7 1.2.5 2.3 1 3.1 1.5-.3 2.4-1 4.6-2.2 6.7-.2.4-.4.7-.7 1zm-1.3-9.6c-.5 7.2-4.1 13.5-9.9 17.6-.2.1-.3.1-.5.2 2.8-6.2 3.2-12.9 1.1-19.5 1.5.1 3.1.3 4.6.5 1.7.4 3.3.8 4.7 1.2zM94.8 42.1c-6.9-3.3-11.8-9.3-13.5-16.8 1-.4 2.4-.9 4-1.3 1.3 7.7 5.7 14.2 12.2 18.3-.8 0-1.7-.1-2.7-.2zm-3.7-24c-.2-.8-.3-1.8-.3-2.7 0-2.2.5-4.4 2.6-5.4.7-.2 1.8-.4 2.9-.6 1.9.5 2.7 4.3 2.6 5.7-.1 2-1.4 3.8-3 4.9l-.1.1c-1.1.1-2.1.2-3.1.3-.8-.5-1.4-1.4-1.6-2.3zm11.2 3.9c2.2 6.6 1.8 13.3-1.1 19.5 1.7-6.6.9-13.4-2.3-19.4h.3c1 0 1.9.1 2.6 0h.2c.1-.1.2-.1.3-.1zm-7 .4.2-.1c.1 0 .2-.1.4-.1.5 0 1.1-.1 1.6-.1 3.3 5.9 4.1 12.5 2.5 19-4.9-5-8-11.1-9.2-18 1.9-.3 4.4-.7 4.5-.7zm-6.8 1.1c.4 0 .7 0 1-.1h.1c1.2 7 4.3 13.2 9.1 18.3-6.5-3.9-10.9-10.3-12.2-17.9.4-.1.8-.2 1.3-.3.2-.1.4 0 .7 0zm15.7-8.3c-.1 3.8-1.4 4.5-2.3 4.7h-.7c2.2-2.3 2.9-5.5 2.1-8.5.6 1.1.9 2.4.9 3.8zm-3.3-5.9c2.6 3.5 1.9 8.1-1.5 10.7-.5 0-1.1 0-1.6.1 1.7-1.7 2.6-4 2.2-6.4-.2-1.4-1-3.3-2.1-4.4.7-.2 1.3-.3 1.9-.3.4 0 .8.1 1.1.3zm-9.8 1.2c-2.1 2.8-2.2 7.8-.2 10.3-.4.1-.7.1-1 .2-1-.7-1.7-2.4-1.9-3.2-.3-.9-.3-1.9-.2-2.9.2-1.6.9-3 2-4.3.5-.1.9-.1 1.3-.1zm-5.9 8.4c-1.1-2.7-.9-5.3.6-6.8.5-.5 1.3-.9 2.2-1.1-1.4 2.2-1.9 4.9-1.1 7.5.3.9.8 2 1.5 2.8-.2 0-.4.1-.7.1-.8-.2-1.8-.8-2.5-2.5zM74.9 30.6c1-1.3 3.2-3.7 5.3-4.8 1.5 6.3 5.2 11.7 10.5 15.3-2.2-.8-4.4-1.9-6.1-3.5-3.6-3.3-7.8-5.9-9.7-7zm42.3.3c.6-1.4 1-2.9 1.2-4.4 1.5 1.1 2.4 2.1 2.9 2.9-1.1.2-2.6.7-4.1 1.5zM94 84.7c-1.1-5-4.7-12-15.5-12.3s-15.6 7.8-16.5 15c-.8 7.2 4.9 13.9 8.8 15.6 3.8 1.7 11.7 3.3 17.7-2.1s6.6-11.3 5.5-16.2zM105.4 84.7c1.1-5 4.7-12 15.5-12.3s15.6 7.8 16.5 15-4.9 13.9-8.8 15.6-11.7 3.3-17.7-2.1c-6.1-5.5-6.6-11.3-5.5-16.2z"/>
    <path d="m65.6 88.7 13.6-11.3.2.2-13.6 11.3-.2-.2zm7.8 12L87 89.4l.2.2-13.6 11.3-.2-.2zm-1.3-5 18.5-15.4.2.2-18.5 15.4-.2-.2zm-5.4-1.4 18.2-15.1.2.2-18.2 15.1-.2-.2zM108 88.7l13.6-11.3.2.2-13.6 11.3-.2-.2zm7.7 12 13.6-11.3.2.2-13.6 11.3-.2-.2zm-1.2-5L133 80.3l.2.2-18.5 15.4-.2-.2zm-5.4-1.4 18.2-15.1.2.2-18.2 15.1-.2-.2z" fill="#fff"/>
    <path d="M140.5 86.2c-.2-.1-1.7-.1-2.6-.1-1.2-7.1-6.3-14.8-17.1-14.4-10.6.3-14.5 6.8-15.8 11.5-.5-.6-1.3-1-1.8-1.1-.6-.1-4.8-.2-6.5-.1-1.8.2-2.2 1.2-2.2 1.2l-.1.1C93 78.6 89.2 72 78.5 71.7c-10.7-.4-15.7 7.3-17 14.4-.9 0-2.4 0-2.5.1-.2.2 0 2.1 0 2.1l2.3.1c-.2 6.9 5.1 13.5 9.3 15.3 1 .4 4.2 1.7 8.1 1.7 3.3 0 7.1-.9 10.4-3.9 5.2-4.7 7.1-10.2 5.7-16.8.1-.2.2-.3.3-.5.3-.4 1.1-1.1 1.8-1.2.7-.1 4.7 0 5.3 0s1.4.4 1.8.8c.2.2.4.6.6.9-1.4 6.6.4 12.1 5.7 16.8 3.3 3 7.1 3.9 10.4 3.9 3.9 0 7.1-1.2 8.1-1.7 4.2-1.8 9.5-8.4 9.3-15.3l2.3-.1c.1 0 .3-1.9.1-2.1zm-52.4 14.1c-6.6 6-15.3 2.7-16.9 2-3.3-1.4-9.2-7.8-8.3-14.8.8-6.7 5.2-14.3 15.1-14.3h.6c10.1.3 13.6 6.5 14.8 11.7 1.2 6-.5 11-5.3 15.4zm40.2 1.9c-1.7.7-10.3 4-16.9-2-4.8-4.4-6.5-9.4-5.2-15.4 1.1-5.2 4.6-11.4 14.8-11.7h.6c9.9 0 14.3 7.7 15.1 14.3.7 7-5.1 13.4-8.4 14.8z" fill="#fff"/>
    <path d="M78.6 72.9c-10.5-.3-15.2 7.7-16 14.5-.8 7.1 5.1 13.6 8.5 15 .9.4 3.9 1.6 7.6 1.6 3 0 6.5-.8 9.6-3.6 4.9-4.4 6.6-9.6 5.3-15.7-1.2-5.1-4.8-11.5-15-11.8zm9.3 27.2c-6.5 5.9-15 2.6-16.7 1.9-3.3-1.4-9-7.7-8.2-14.5.8-6.5 5.1-14.1 14.9-14.1h.6c10 .3 13.4 6.4 14.5 11.5 1.4 5.9-.3 10.9-5.1 15.2zM140.6 86c-.1-.1-.2-.2-2.5-.2-1.3-7.2-6.5-14.8-17.3-14.4-10.3.3-14.3 6.2-15.9 11.3-.5-.5-1.2-.8-1.6-.9-.7-.1-4.8-.2-6.6-.1-1.2.1-1.8.6-2.2 1-1.6-5.1-5.7-11-15.9-11.3-10.7-.3-15.9 7.2-17.3 14.4-2.2 0-2.4.1-2.5.2-.1.1-.3.2-.1 2.3v.2H61c-.1 7.2 5.5 13.6 9.4 15.3.9.4 4.2 1.7 8.2 1.7 4.1 0 7.7-1.3 10.6-4 5.3-4.8 7.2-10.3 5.8-17 .1-.1.2-.3.2-.4.3-.4 1-1 1.7-1.1.7-.1 4.5 0 5.3 0 .6 0 1.3.4 1.7.8.1.1.3.3.5.8-1.4 6.6.5 12.2 5.8 16.9 2.9 2.6 6.5 4 10.6 4 4 0 7.3-1.3 8.2-1.7 4-1.7 9.6-8.1 9.4-15.3h2.3v-.2c.2-2 0-2.2-.1-2.3zm-.4 2-2.3.1v.2c.2 7-5.2 13.4-9.1 15.1-.9.4-4.1 1.7-8 1.7-4 0-7.4-1.3-10.2-3.8-5.2-4.7-7-10.1-5.6-16.5v-.2c-.2-.5-.5-.8-.7-1-.5-.4-1.2-.8-2-.9-.4 0-2.1-.1-3.5-.1-.9 0-1.6 0-1.9.1-.8.2-1.7.9-2 1.3-.1.2-.2.3-.3.5v.2c1.4 6.5-.4 11.9-5.6 16.6-2.8 2.6-6.3 3.8-10.2 3.8-3.9 0-7.1-1.3-8-1.7-3.9-1.7-9.4-8-9.1-15.1v-.2l-2.5-.1c-.1-.7-.1-1.4 0-1.6.2 0 .9-.1 2.4-.1h.2v-.2C63 79 68.1 71.6 78.6 71.9c10.3.3 14.2 6.4 15.6 11.4l.2.5.4-.6s.4-.9 2-1c1.8-.2 5.9-.1 6.4.1.4.1 1.2.6 1.7 1.1l.3.3.1-.4c1.5-5 5.4-11 15.6-11.4 10.5-.3 15.6 7.1 16.8 14.2v.2h.2c1.4 0 2.2 0 2.4.1 0 .3 0 1-.1 1.6zm-18.7-15.1h-.6c-10.3.3-13.8 6.7-15 11.9-1.3 6.1.4 11.2 5.3 15.7 3.1 2.8 6.5 3.6 9.6 3.6 3.7 0 6.7-1.2 7.6-1.6 3.4-1.5 9.3-7.9 8.5-15-.8-6.8-5.3-14.6-15.4-14.6zm6.7 29.1c-1.6.7-10.1 4-16.7-1.9-4.8-4.3-6.4-9.3-5.1-15.2 1.1-5.1 4.6-11.2 14.5-11.5h.6c9.8 0 14.1 7.6 14.8 14.1.8 6.8-4.9 13.1-8.1 14.5z"/>
</svg>
