<svg xmlns="http://www.w3.org/2000/svg" width="600" height="600" viewBox="0 0 200 200" style="overflow:hidden!important">
    <path d="M0 0h200v200H0V0z" fill="#ecf0f1"/>
    <path d="M77.6 118.3c0 19.3 3.4 44.1-10 51.9-13.4 7.9-31.9 11.3-37.8 22s-4.4 25.3-4.4 25.3h149.3s.7-18.9-5.1-26.4c-8.1-10.4-27.8-15.5-37.7-20.9s-13.4-25.1-13.4-52.4l-40.9.5z" fill="#fff"/>
    <path d="M175.8 218.7H24.4l-.1-1c-.1-.6-1.5-15.1 4.5-26 4.1-7.4 13.5-11.3 23.5-15.5 5-2.1 10.2-4.3 14.8-6.9 10.6-6.2 10.1-23.9 9.6-41-.1-3.5-.2-6.8-.2-10v-1.1l43.2-.4v1.1c0 29.9 4.2 46.7 12.8 51.4 2.9 1.6 6.7 3.2 10.8 4.9 10 4.1 21.3 8.8 27.2 16.3 6.1 7.7 5.4 26.4 5.4 27.1l-.1 1.1zm-149.3-2.2h147.1c0-4.1-.2-18.5-4.9-24.6-5.5-7-16.6-11.6-26.3-15.6-4.1-1.7-8-3.3-11-5-5.1-2.8-8.7-8.9-10.9-18.7-2-8.4-2.9-19.4-3-33.5l-38.6.4c0 2.8.1 5.7.2 8.8.5 17.8 1 36.1-10.7 43-4.7 2.7-9.9 4.9-15 7.1-9.6 4-18.7 7.8-22.4 14.5-5 8.6-4.7 20.1-4.5 23.6z"/>
    <path d="M93.9 153.8c-.5 1.8-.4 3.4.5 5.2.8 1.6 2.1 2.7 3.9 2.9.4 0 .7-.5.5-.8-1.6-2.2-3.5-4.2-3.7-7.1 0-.7-1-.9-1.2-.2zM112.5 187.5c8.8.5 18.1-.7 26.6-2.9.7-.2.6-1.4-.2-1.3-8.8 1.1-17.7 2-26.5 3.3-.5.1-.3.9.1.9zM63.1 182.5c3.8.9 7.6 1.9 11.5 2.8 3.6.8 7.4 2 11.1 2.1.7 0 .8-.9.2-1.2-3.5-1.4-7.5-1.7-11.2-2.5-3.8-.7-7.5-1.3-11.3-2-.5 0-.7.7-.3.8z"/>
    <path d="M77.6 140.5s-8.6 2.8-13.1 5.9-5.6 10-5.6 10-2.3-3.3-4.5 1.9-1.8 5.6-4 7.9c-2.3 2.3-1 6.8-.2 7.9 0 0-4 2.8-8.4 4s-10.3 4.2-12.1 6.6-9.6 12.8-5.6 34h153.6s0-21-3-27.5-7.7-7.5-7.7-7.5-9.8-7-11.7-8.2-11-4.2-11-4.2-.5-4.2-1.2-7.2-4.6-8.1-6.6-8.4c-2.1-.4-3-2.8-5.6-7-2.6-4.2-5.8-6.5-7.3-7-1.6-.5-3.3-.2-3.3-.2s1.2 8.9 1.2 13.6-.9 7.7-4.6 12.2c-3.7 4.6-6.1 5.8-11.4 9.3s-6.3 5.4-6.3 5.4-3.2-5.1-8.8-8.6S83 166 79 162.5s-1.1-6.1-1.4-11.2c-.3-5.1 0-10.8 0-10.8z" fill="#fff"/>
    <path d="M175.6 190.8c-2.8-6.1-7.1-7.7-8.2-8-1.3-.9-9.8-7-11.6-8.1-1.8-1.1-8.5-3.4-10.6-4.1-.2-1.3-.6-4.3-1.2-6.6-.7-3-4.7-8.7-7.5-9.1-1.1-.2-1.8-1.3-3.3-3.9-.5-.8-1-1.6-1.6-2.6-2.6-4.2-5.9-6.8-7.9-7.4-1.8-.6-3.8-.2-3.8-.2-.5.1-.9.6-.8 1.1 0 .1 1.2 8.9 1.2 13.5 0 4.2-.7 7.1-4.3 11.6-3 3.8-5.1 5.1-9 7.6-.7.4-1.4.9-2.2 1.4-3.1 2.1-4.8 3.6-5.7 4.6-1.3-1.8-4.1-5.1-8.3-7.7-3.3-2.1-5.2-4.4-7.1-6.6-1.2-1.4-2.5-2.9-4.1-4.4-2.2-1.9-1.9-3.4-1.5-5.7.3-1.4.6-2.9.4-4.8-.3-4.9 0-10.7 0-10.7 0-.3-.1-.6-.4-.9-.3-.2-.6-.3-.9-.2-.4.1-8.8 2.9-13.4 6.1-3.5 2.4-5 6.7-5.7 9-.4-.2-.8-.3-1.3-.2-1.4.1-2.5 1.3-3.5 3.6-.7 1.7-1.2 2.9-1.5 3.8-.7 1.9-.9 2.4-2.3 3.8-2.2 2.2-1.7 6.2-.8 8.3-1.3.8-4.3 2.5-7.3 3.4-4.6 1.3-10.7 4.3-12.6 7l-.1.2c-6.4 8.9-8.3 20.6-5.6 34.6.1.5.5.8 1 .8h153.6c.6 0 1-.4 1-1 0-1.2-.1-21.6-3.1-28.2zm-33-23.6c.3 1.9.6 3.7.6 4.1 0 .2-.1.8-.6 1.6.3-1.8.2-3.8 0-5.7zm-20.7-19.4c.5.2 1.2.5 1.9.9-.2.1-.3.1-.5.1l-1.2.3c-.2-.5-.2-.9-.2-1.3zm-.1 12.5h1.5c-.6.4-1.3 1-2 1.6.2-.5.4-1 .5-1.6zm4.2-3.1c-1.2.1-2.6.4-3.8.6.1-.5.1-1 .1-1.5 1.3-.1 2.7-.3 3.9-.5 0 .5-.1 1-.2 1.4zm.1-5c.1.5.1.9.1 1.3-1.3 0-2.7.4-3.9.8 0-.5 0-1-.1-1.5 1.3-.2 2.7-.3 3.9-.6zm-3.8 3.6v-1.1c.7-.2 1.4-.3 2.2-.4.6-.1 1.2-.1 1.8-.2v1.1c-1.3 0-2.7.3-4 .6zm-.1-3.5c0-.4-.1-.8-.1-1.1.6-.1 1.1-.1 1.7-.2.6-.1 1.2-.2 1.7-.3.2.3.3.6.4 1-1.2 0-2.5.3-3.7.6zm1.9-2c-.6.1-1.3.2-1.9.4 0-.3-.1-.7-.1-1 .4-.1.9-.2 1.3-.3.3-.1.7-.1 1-.3l.9.9c-.5.1-.9.2-1.2.3zm-1.9 8c1.1-.1 2.4-.2 3.5-.4-.3.7-.9 1.3-1.6 1.8-.7 0-1.5.1-2.2.1l.3-1.5zM76 159.6c-1.2-1.1-2.3-2.2-2.7-3.1-.1-.1-.1-.2-.1-.4.9.7 1.8 1.5 2.8 2.1-.1.5-.1 1 0 1.4zm-.5-10.9c.3.4.7.7 1.1 1 0 .4 0 .9.1 1.3-.3-.2-.5-.4-.8-.6-.4-.3-.7-.6-1.1-.9.1-.2.4-.5.7-.8zm.3-.3c.2-.2.4-.3.6-.4v1c-.1-.2-.3-.4-.6-.6zm-1.4 1.5c.4.4.8.7 1.2 1 .3.3.6.6 1 .8v1c-.8-.7-1.8-1.4-2.7-2 .2-.2.3-.5.5-.8zm-.7 1.4c.9.8 1.8 1.7 2.8 2.3 0 .3-.1.6-.1.9-.4-.3-.9-.6-1.4-.9-.6-.4-1.2-.8-1.7-1.2.1-.4.3-.8.4-1.1zm-.5 1.5c.5.4 1.1.8 1.6 1.2.5.4 1 .8 1.6 1.1 0 .2-.1.4-.1.5 0 .1-.1.3-.1.4-.5-.3-1-.6-1.4-.9l-1.8-1.2c0-.3.1-.7.2-1.1zm2.7 4.8c-.9-.8-1.9-1.5-2.9-2.1v-1c.4.4.9.7 1.4 1.1.5.4 1.1.8 1.7 1.2-.1.2-.1.5-.2.8zm-22.1 4.8c.3-.9.8-2 1.5-3.7.9-2.1 1.6-2.3 1.8-2.4.3 0 .6.2.8.4.1 2.2 1.5 13.1 16.7 21.5.2.1.3.1.5.1.3 0 .7-.2.8-.5.1.2.2.5.3.7.1.1.3.1.3-.1-.2-2-.6-3.7-.3-5.7 0-.2-.3-.4-.4-.1-.2 1.2-.4 2.5-.2 3.8l-.1-.1c-.1-.1-.2-.1-.3-.2-.3-1.7-.5-3.3-.4-5 0-.3-.4-.3-.4 0-.2 1.5-.2 3.1.1 4.6-.4-.3-.9-.5-1.3-.8-.2-.5-.3-1.1-.4-1.6-.2-1.1-.1-2.1.1-3.1 0-.2-.3-.3-.3-.1-.3 1.3-.4 3 0 4.4-.4-.2-.7-.5-1-.7-.1-2.3-.2-4.5.1-6.8 0-.3-.4-.2-.4 0-.3 2.1-.4 4.2-.2 6.4-.6-.4-1.2-.9-1.7-1.4-.1-2.1-.1-4.2.3-6.4 0-.2-.2-.3-.3-.1-.5 2-.7 4-.6 6-.4-.4-.8-.8-1.2-1.1 0-1-.1-2.1 0-3.1.1-1.4.4-2.8.8-4.1.1-.2-.2-.3-.3-.1-.7 2-1.3 4.5-1 6.7-.4-.4-.7-.8-1.1-1.1-.2-1 .2-3.2.2-3.5.2-1.4.5-2.7 1-4 .1-.2-.2-.2-.3-.1-.8 2.3-1.3 4.7-1.4 7.1-.3-.3-.5-.6-.8-1 .1-.1.1-.2.1-.2.1-.1-.1-.3-.2-.2.2-2.9.8-5.8 1.8-8.5.1-.2-.2-.3-.3-.1-1 2.7-1.7 5.5-1.9 8.3-.3-.5-.6-.9-.9-1.4.7-2.8 1.1-5.7 2.1-8.5.1-.3-.3-.4-.4-.1-.9 2.5-1.8 5.3-2 8-.4-.6-.7-1.2-1-1.8.7-3 1.1-5.8 2.5-8.6.1-.2-.2-.4-.3-.2-1.3 2.4-2.4 5.3-2.6 8.1-.3-.8-.6-1.6-.8-2.2 1.2-2.8 1.9-5.8 3.1-8.6.1-.2-.2-.4-.3-.2-1.2 2.5-2.6 5.3-3.1 8-.3-1.4-.4-2.3-.4-2.6 1.2-2.5 2.1-5.1 3.3-7.6.5-.6 1.1-1.2 1.8-1.7 3.3-2.3 8.9-4.4 11.5-5.3 0 1-.1 2.4-.1 3.9-1.9.7-3.5 2.3-4.5 4.5-1.1 2.5-1.3 5.3-.5 7.1 1.1 2.4 5.2 5.4 8.7 7.8.3.2.5.3.6.4l1.5 1.8c2 2.3 4 4.8 7.6 7 5.3 3.3 8.4 8.2 8.4 8.2.2.3.5.5.9.5.3 0 .7-.2.8-.5 0 0 1.1-1.8 6-5.1.8-.5 1.5-1 2.2-1.4 3.2-2.1 5.4-3.5 7.8-6.2.2 0 .4-.1.5-.3.1-.1 5.5-6.1 8.3-7.9 3.5-2.4 3.9-5.5 3.3-9.8-.6-4.3-5-5.9-6.5-6.3-.2-1.3-.3-2.4-.4-3.2.5 0 1.2 0 1.9.2 1.4.5 4.3 2.6 6.8 6.6.6.9 1.1 1.8 1.5 2.6 0 0 0 .1.1.1l-.7-.7c-.1-.1-.3.1-.2.2.7.8 1.3 1.7 2 2.5v.1s.3 1.1.3 2.9c-.5-.8-1.1-1.6-1.4-2.5-.1-.2-.4-.1-.4.1.4 1.2.9 2.4 1.8 3.3 0 .3 0 .7-.1 1.1-.5-.7-1.1-1.3-1.5-1.9-.1-.2-.5 0-.3.2.5.7.9 1.4 1.4 2.1.1.2.2.3.3.5-.1.6-.2 1.2-.3 1.9-.5-.6-1-1.2-1.4-1.8-.1-.2-.4.1-.3.2.5.7 1 1.6 1.6 2.3-.1.5-.3 1.1-.6 1.7-.2-.4-.4-.9-.5-1.3-.1-.2-.5-.1-.4.1.2.6.4 1.4.6 2.1-.2.5-.5 1.1-.9 1.6-.1-.3-.1-.6-.1-.9 0-.3-.4-.3-.4 0 0 .5.1 1.1.1 1.6-.4.5-.8 1.1-1.2 1.6-.1-.6-.2-1.3-.3-1.9 0-.2-.4-.2-.4.1.1.8.1 1.6.2 2.3-.4.4-.8.9-1.2 1.3 0-.8-.1-1.5-.2-2.3 0-.3-.4-.3-.4 0 0 .9-.1 1.9 0 2.9-.3.3-.6.6-.9.8 0-.2 0-.5-.1-.7 0-.8-.1-1.5-.1-2.2 0-.3-.4-.3-.4 0 0 .8 0 1.5.1 2.2v1.2c-.4.4-.9.7-1.3 1.1 0-.2-.1-.4-.1-.7 0-.6 0-1.1.1-1.7 0-.3-.3-.4-.4-.1-.2.9-.4 2-.1 2.9-.3.3-.7.5-1 .8 0-.4-.1-.8-.1-1.2 0-.3-.5-.3-.5 0v1.6c-.4.3-.7.5-1.1.8 0-.4-.1-.9-.1-1.3 0-.3-.5-.3-.5 0 0 .6 0 1.1.1 1.6-.4.3-.8.5-1.1.7v-1.8c0-.3-.4-.3-.4 0 0 .6-.1 1.1-.1 1.7v.5c-.4.2-.7.4-1.1.6v-1.4c0-.3-.4-.2-.4 0-.1.5-.1 1.1-.1 1.6-.2.1-.5.2-.7.3-.1 0-.1 0-.1.1 0-.4.1-.7.1-1.1 0-.2-.4-.2-.4 0-.1.4-.1.8-.2 1.3-.3.1-.7.3-1 .4v-1.3c0-.2-.4-.2-.4 0 0 .5-.1 1-.2 1.5-.5.2-1 .4-1.4.5v-1c0-.3-.4-.3-.4 0 0 .4-.1.8-.1 1.2-.3.1-.6.2-.8.3 0-.4.1-.7.1-1.1 0-.2-.4-.3-.4-.1-.1.4-.1.9-.2 1.3-.2.1-.4.1-.4.1-.5.2-.8.7-.7 1.2.1.4.5.7 1 .7h.3c.1 0 1.5-.5 4.4-1.6v.1c0 .2.3.1.3 0s0-.1.1-.2c.4-.1.7-.3 1.1-.4 3.7-1.5 13.6-8.3 16.3-15 1.5-3.6 1.7-6.9 1.6-9 .4.2.8.4 1.2.4 1.4.2 5 4.6 5.8 7.4-.1 0-.2.1-.2.2.3 3.2.1 6.4.2 9.5-.2.2-.4.5-.6.7v-8.7c0-.2-.4-.2-.4 0-.1 3.1-.2 6.2-.2 9.3l-.5.5c0-2.4-.3-4.8-.4-7.2 0-.2-.4-.3-.4 0 .1 2.6-.1 5.2.2 7.8-.2.1-.4.3-.5.4.1-2 0-4.1-.1-6.1 0-.2-.4-.2-.4 0-.1 2.2-.4 4.5-.3 6.7-.2.2-.5.3-.7.5.2-2 .1-4 0-6 0-.2-.4-.2-.4 0 0 2.1-.2 4.3-.3 6.4-.4.2-.9.5-1.4.7.2-1.9 0-3.9 0-5.8 0-.3-.4-.3-.4 0-.1 2-.3 4.1-.2 6.1-.4.2-.8.4-1.3.6.2-1.3.2-2.7.3-4 0-.3-.4-.3-.4 0-.2 1.4-.5 2.9-.6 4.3-.4.2-.9.4-1.3.5.2-1.4.2-2.9.6-4.3.1-.3-.4-.4-.4-.1-.3 1.4-.8 3.1-.9 4.7-.5.2-.9.3-1.4.5.1-1.2 0-2.6.1-3.8 0-.3-.4-.3-.4 0-.1 1.2-.4 2.7-.3 4-.6.2-1.3.4-1.9.7 0-.4 0-.9.1-1.3.1-.9.3-1.7.6-2.5.1-.2-.3-.3-.4-.1-.5 1.2-1 2.7-1 4.1l-.9.3v-.1c.1-.7.1-1.4 0-2.1 0-.3-.5-.3-.5 0 0 .7 0 1.3-.1 2 0 .1-.1.3-.1.5-.4.1-.8.3-1.2.4.1-.6.1-1.2.1-1.8 0-.3-.4-.3-.5 0-.1.6-.2 1.3-.3 2-.5.1-1 .3-1.5.5v-1c0-.3-.5-.3-.4 0v1.2c-.5.2-1 .3-1.5.5.1-.5.3-1.1.4-1.6.1-.3-.3-.4-.4-.1-.2.6-.4 1.3-.6 1.9-.4.1-.8.2-1.2.4.1-.6.2-1.1.3-1.6.1-.3-.4-.4-.4-.1-.2.6-.4 1.3-.5 1.9-.2.1-.4.1-.6.2.1-.4.2-.9.4-1.3.1-.2-.3-.4-.4-.1-.2.5-.4 1-.6 1.6-.2.1-.3.1-.5.1 0-.2.1-.4.1-.6.1-.2-.3-.3-.3-.1-.1.3-.2.5-.3.8-.5.1-.9.3-1.3.4 0-.1-.2-.2-.3 0 0 .1-.1.1-.1.1-.8.2-1.6.4-2.2.6-1.6.4-2.7.8-3.1.9-.3.1-1.2.2-2.4.2-.2-1.3-.6-2.7-1.5-4.8-.2-.5-.8-.7-1.3-.5s-.7.8-.5 1.3c.8 1.7 1.1 2.9 1.3 3.9H101c-.3-.4-.6-.7-1-1-.2-.2-.5.1-.3.3l.7.7h-1.2c-.2-.2-.4-.5-.6-.7-.4-.6-.7-1.2-.9-1.9-.1-.3-.5-.2-.4.1.2.8.6 1.7 1.1 2.5-.4 0-.9 0-1.3-.1-.1-1.8-.1-3.5-.1-4.4 0-.6-.4-1-1-1s-1 .4-1 1c0 .4 0 2.2.1 4.3h-.2c-.3-.4-.7-.8-.9-1.3-.4-.7-.6-1.5-.7-2.3 0-.2-.4-.3-.4 0 .1 1.1.4 2.6 1.2 3.5-.5 0-.9-.1-1.4-.1-.2-.4-.5-.9-.7-1.3-.3-.7-.5-1.5-.5-2.3 0-.2-.4-.3-.4 0 0 1.1.3 2.6 1 3.6-.3 0-.5 0-.8-.1-.2-.6-.7-1.1-.9-1.7-.3-.7-.4-1.4-.4-2.1 0-.3-.4-.3-.4 0-.1 1.1.2 2.9 1.1 3.8-.4 0-.8-.1-1.3-.1-.3-.6-.8-1.2-1.1-1.8-.3-.8-.5-1.6-.5-2.4 0-.3-.4-.3-.4 0 0 1.3.3 3.1 1.3 4.1-.6-.1-1.2-.1-1.8-.2-.3-.4-.5-.9-.7-1.4-.3-.8-.4-1.6-.5-2.4 0-.3-.5-.3-.4 0 0 1.2.3 2.6.9 3.7-.4-.1-.9-.1-1.3-.2-.2-.4-.5-.9-.7-1.4-.3-.8-.5-1.5-.5-2.3 0-.3-.4-.3-.4 0 .1 1.2.3 2.5 1 3.6-.5-.1-.9-.1-1.3-.2-.4-.6-.8-1.1-1-1.7-.4-.8-.6-1.7-.8-2.6 0-.2-.4-.1-.3.1.1 1.3.5 3 1.3 4.1-.7-.1-1.3-.3-1.8-.4-1-1.4-1.8-2.7-2.2-4.5-.1-.2-.3-.1-.3.1.2 1.4.8 2.9 1.7 4.1-.2-.1-.5-.2-.6-.3-.3-.2-.8-.4-1.3-.6-.7-1.5-1.4-3-1.8-4.7-.1-.3-.5-.2-.4.1.2 1.4.6 2.9 1.3 4.1-.3-.1-.7-.3-1-.4-.8-1.6-1.6-3-1.9-4.9 0-.2-.4-.2-.4.1.2 1.5.6 3.2 1.4 4.5-.3-.1-.6-.2-.9-.4-.4-.8-.8-1.5-1.1-2.2-.4-1.1-.7-2.2-.8-3.3 0-.3-.5-.2-.5.1.2 1.6.6 3.6 1.5 5.1l-1.5-.6c-.3-.7-.7-1.3-1-2-.4-.9-.7-1.9-.9-2.9-.1-.3-.5-.2-.4.1.3 1.4.7 3.2 1.6 4.5-.2-.1-.4-.1-.5-.2-.5-.2-1-.4-1.6-.6-.9-1.5-1.5-3-1.8-4.8 0-.2-.4-.2-.4.1 0 1.5.5 3.1 1.3 4.4-.7-.3-1.4-.6-2.1-.8-.8-1.7-1.5-3.4-1.7-5.3 0-.3-.4-.3-.4 0 .1 1.7.5 3.5 1.3 5-.4-.2-.8-.3-1.2-.5-.5-.8-1-1.5-1.4-2.4-.5-1.2-.8-2.5-.9-3.8 0-.3-.4-.3-.4 0 .1 1.9.6 4.1 1.7 5.8-.6-.3-1.3-.5-1.9-.8-1.2-2.1-2.1-4-2.2-6.6 0-.3-.4-.3-.4 0 0 2.1.5 4.4 1.6 6.1-.5-.2-1.1-.5-1.6-.7-1.3-2.3-2.1-4.5-2-7.2 0-.3-.4-.3-.4 0-.2 2.3.3 4.8 1.6 6.8-.3-.2-.7-.3-1-.5-1.3-2.7-2.2-5.2-2.2-8.2 0-.3-.4-.3-.4 0-.1 2.7.5 5.6 1.9 7.9-.7-.4-1.3-.7-1.9-1-1.6-2.4-2.2-4.8-2-7.9v-.1c.8-1.9 1.1-2.7 1.9-4.7zm-3.3 5.3c-.3 2.1.2 4.4 1.3 6.3-.3-.2-.6-.4-.8-.6-.6-.7-1.5-3.7-.5-5.7zM33.2 183c.3.9.8 2.5 1.4 4.6-.7-.3-1.5-.5-2.1-.9-.7-.4-1.3-1-1.8-1.6.5-.7 1.4-1.4 2.5-2.1zm-2.8 2.5c1.1 1.3 2.7 2.5 4.4 2.6.2.8.5 1.7.7 2.7l-.1-.1c-2.4-.9-4.4-1.8-6.2-3.4l1.2-1.8zm-6.2 27.4c3.5 2.2 7.7 4.1 11.8 4.8H24.9c-.3-1.6-.5-3.2-.7-4.8zm12.9 4.8c0-.1 0-.2-.1-.3-4.5-1.5-8.6-2.9-12.8-5.1-.1-.9-.1-1.9-.2-2.8 4.6 2.7 10 5.1 15.2 6.1.2 0 .3-.2.1-.3-5.1-2.2-10.2-4.2-15.3-6.5v-2.9c3.5 2.5 7.6 4.5 11.9 5.4.3.1.4-.4.1-.5-4.2-1.6-8.2-3.2-12-5.5 0-1.2.1-2.3.3-3.4 2.9 1.7 5.9 3.1 9.1 4 .3.1.4-.4.1-.5-3.1-1.3-6.2-2.6-9.2-4.1.1-.9.3-1.8.4-2.6 3 2.4 6.6 4.4 10.4 5 .2 0 .3-.2.1-.3-3.7-1.5-7.1-3.1-10.4-5.2l.6-2.4c2.8 1.9 5.8 3.8 9 4.7.2.1.3-.2.1-.3-3-1.7-6-3.1-8.9-4.9.3-.9.5-1.7.9-2.5 2.4 1.8 5.3 3.1 8.3 3.6.3 0 .4-.3.1-.4-2.9-1-5.6-2.2-8.2-3.8.2-.6.5-1.2.8-1.8 2.2 2 4.9 3.6 7.8 3.9.2 0 .2-.2 0-.3-2.8-1.1-5.3-2.2-7.6-4.1.4-.7.7-1.4 1.1-2.1 1.7 1.8 4.1 3.1 6.5 3.3.1 0 .1 0 .2-.1 1.4 5.9 3.1 14.8 4.1 26.7h-2.5zm4.5 0C39.9 196.6 36 184.9 35 182c2.2-1.2 4.9-2.3 7-2.9 3.5-1 6.7-2.9 8.1-3.7 3.3 2.5 11.8 5.9 18.6 8.6 3.8 1.5 7.2 2.8 8.6 3.6 2.4 1.3 10.3 2.2 17.6 2.6.2 1.5.4 2.9.7 3.8.7 1.9.5 3.3-.2 7.5l-.3 1.8c-.3 1.9-.7 3.4-1.1 4.8-.7 2.6-1.3 4.6-.2 6.8.2.4.5.6.9.6.1 0 .3 0 .4-.1.5-.2.7-.8.5-1.3-.8-1.6-.3-3 .3-5.4.4-1.3.8-3 1.2-5l.3-1.8c.7-4.3 1-6.1.1-8.5-.2-.6-.4-1.8-.6-3 2.3.1 4.5.2 6.4.2 0 .5-.1 1.1-.1 1.7-.1.7-.1 1.5-.2 2.4-.2 4.4.8 10 .9 10.9l-.2 9c0 .6.4 1 1 1 .5 0 1-.4 1-1l.2-9.1v-.2c0-.1-1.1-6-.9-10.5 0-.9.1-1.7.2-2.4s.1-1.3.1-1.9c1.5 0 2.5-.1 2.9-.3.4-.1 1.5-.4 3-.9 2.4-.7 5.7-1.6 9.2-2.7.1.1.3.1.4 0l.1-.1c6.8-2.1 14.4-4.6 17.7-6.8 4.4-2.9 5.9-5.5 6.4-7 3 1 8.4 2.9 9.8 3.8 1.6 1 9.1 6.4 11.1 7.8-.6 3.2-3.3 18.3-2.9 33.6l-121.4-.2zm123.3-1.3c.9.5 1.8.9 2.8 1.3H165c0-.4 0-.9-.1-1.3zm4.4 1.3c-1.4-.7-2.9-1.4-4.4-1.9v-3.1c2.8 2 6 3.5 9.3 4 .3 0 .4-.4.1-.4-3.4-1.1-6.5-2.3-9.4-4.2 0-1.1.1-2.1.1-3.2 2.6 1.2 5.3 2.4 8 3.2.2.1.4-.3.2-.4-2.6-1.3-5.4-2.4-8.1-3.4.1-1.1.1-2.1.2-3.1 2.3 1.5 4.8 2.8 7.4 3.6.2.1.4-.3.2-.4-2.6-1.2-5.1-2.3-7.6-3.8.1-.9.1-1.8.2-2.7 1.8 1.7 4.7 2.7 7.1 2.8.2 0 .3-.3.1-.4-1.4-.4-2.8-.8-4.2-1.4-1-.5-1.9-1.1-2.9-1.7.1-.9.2-1.7.2-2.6 2.1 1.2 4.2 2.5 6.4 3.3.2.1.3-.2.1-.3-2-1.4-4.3-2.4-6.5-3.4.1-1.1.2-2.1.4-3 1.6 1.1 3.2 2.2 4.9 3.1.2.1.3-.1.1-.2-1.6-1.2-3.3-2.3-5-3.2.3-2.3.6-4.3.8-6 1 .9 2 1.8 3.1 2.5.2.1.4-.1.2-.3-.9-1-2.1-1.9-3.2-2.7.2-1.4.4-2.5.6-3.2 1.4.7 4.1 2.4 6 6.6 2.5 5.4 2.8 21.9 2.9 26.1l-7.3-.2zm-2.3-25.9c-.3-.1-.4.2-.2.4 1.2.9 2.5 1.9 3.8 2.4.2.1.5-.2.3-.4-1.2-1-2.6-1.8-3.9-2.4zm-87.4-12.2c-.1-.8-.4-1.6-.6-2.5-.2-1-.2-1.9-.1-2.9 0-.3-.4-.3-.4 0-.2 1.7-.1 4 .8 5.5.1.2.3.1.3-.1zm1.9.9c.1-1.6-.3-3.4-.5-5 0-.3-.4-.3-.4 0 .1 1.7.1 3.5.5 5.1.1.2.4.1.4-.1zm1.2.1c.1-1.3-.3-2.7-.5-4.1 0-.2-.3-.1-.3.1.1 1.3.1 2.8.5 4.1 0 .2.3.1.3-.1zm2 1c-.2-1.5-.8-2.8-1-4.3 0-.3-.4-.3-.4 0 .1 1.4.3 3.2 1.1 4.4.1.2.3.1.3-.1zm2.1.2c.1.1.2-.1.1-.2-.3-.3-.6-.6-.8-1-.2-.4-.4-.8-.4-1.2 0-.3-.5-.2-.4.1 0 .9.5 2 1.5 2.3zm2.4.7c.1.1.3 0 .3-.2-.4-.9-1.1-1.8-1.7-2.6-.2-.2-.6 0-.4.2.6.9 1.1 1.8 1.8 2.6zm19 .3c.2-.5.2-1.2.2-1.8 0-.2-.4-.2-.4 0-.1.6-.3 1.2-.1 1.8.1.1.3.1.3 0zm1.3-.4c.2-.4.2-.8.3-1.2.1-.5.2-.9.3-1.4.1-.3-.3-.4-.4-.1l-.3 1.5c-.1.4-.2.8-.1 1.2-.1.1.1.2.2 0z"/>
    <path d="M60.7 84.7s-1.8-5-3.3-7.9-3.6-6.3-6.6-7.2-4 3.9-2.9 8.3 4.2 13.9 5 17.6 1.8 8.1 3.6 7.5 7.1-7.7 4.2-18.3z" fill="#fff"/>
    <path d="M55.1 103.6c-1.5-.8-2.3-3.8-3.2-8-.4-2.2-1.7-6.4-2.9-10.5-.8-2.7-1.6-5.3-2.1-7.1-.9-3.5-.5-7.1 1-8.6.8-.8 1.8-1 2.9-.7 3.3.9 5.5 4.4 7.2 7.6 1.6 2.9 3.3 7.8 3.4 8v.1c3.1 11.1-2.6 18.5-4.8 19.3-.2.1-.4.1-.6.1-.3.1-.6 0-.9-.2zm1.5-26.4c-1.6-2.9-3.4-6-6.1-6.7-.5-.1-.9 0-1.3.3-1.1 1.1-1.3 4-.6 6.9.5 1.8 1.2 4.3 2 7 1.2 4.1 2.5 8.4 3 10.6.8 4.1 1.6 6.4 2.3 6.8h.1c1.1-.4 6.6-6.8 3.8-17.2-.1-.4-1.8-5.1-3.2-7.7z"/>
    <path d="M48.8 72.7c1.9-.8 3.6 1.4 4.8 3.3 1.6 2.5 2.6 5.5 2.9 8.6v.2c0 .2 0 .5.1.7 0 .2-.2.2-.2 0-.1-.4-.2-.9-.3-1.4 0 0-.1-.1-.1-.2-1.2-.6-1.8-.3-1.8.8 0 .7.2 1.5.3 2.2.3 1.2.9 2.3 1.3 3.5.1.2-.2.4-.3.2-.9-1.6-2.6-5.3-1.5-7.2.5-.9 1.3-.8 1.9-.2-.5-2-1.2-4.3-2.2-6.2-2.1 4.5-1 9.2.1 14.2 0 .2-.2.3-.3.1-1.4-4.6-2.7-10.7 0-14.5-1.2-2.2-2.8-3.9-4.7-3.8-.1.1-.2-.3 0-.3z"/>
    <path d="M139.3 84.7s1.8-5 3.3-7.9 3.6-6.3 6.6-7.2 4 3.9 2.9 8.3-4.2 13.9-5 17.6c-.7 3.7-1.8 8.1-3.6 7.5s-7.1-7.7-4.2-18.3z" fill="#fff"/>
    <path d="M144 103.9c-.2 0-.4 0-.6-.1-2.2-.8-7.9-8.2-4.8-19.3v-.1c.1-.2 1.8-5.1 3.4-8 1.7-3.2 3.9-6.7 7.2-7.6 1.1-.3 2.2 0 2.9.7 1.5 1.5 1.9 5 1 8.6-.5 1.8-1.2 4.4-2.1 7.1-1.2 4.1-2.5 8.3-2.9 10.5-.8 4.2-1.7 7.2-3.2 8-.3.1-.6.2-.9.2zm-3.9-19c-2.9 10.4 2.6 16.8 3.8 17.2h.1c.7-.4 1.5-2.7 2.3-6.8.5-2.3 1.7-6.5 3-10.6.8-2.7 1.6-5.3 2-7 .8-2.9.5-5.9-.6-6.9-.3-.3-.8-.4-1.3-.3-2.7.7-4.6 3.9-6.1 6.7-1.3 2.6-3 7.3-3.2 7.7z"/>
    <path d="M151.2 72.7c-1.9-.8-3.6 1.4-4.8 3.3-1.6 2.5-2.6 5.5-2.9 8.6v.2c0 .2 0 .5-.1.7 0 .2.2.2.2 0 .1-.4.2-.9.3-1.4.1-.1.1-.2.2-.3 1.2-.6 1.8-.3 1.8.8 0 .7-.2 1.5-.3 2.2-.3 1.2-.9 2.3-1.3 3.5-.1.2.2.4.3.2.9-1.6 2.6-5.3 1.5-7.2-.5-.9-1.3-.8-1.9-.2.5-2 1.2-4.3 2.2-6.2 2.1 4.5 1 9.2-.1 14.2 0 .2.2.3.3.1 1.4-4.6 2.7-10.7 0-14.5 1.2-2.2 2.8-3.9 4.7-3.8 0 .2.1-.2-.1-.2z"/>
    <path d="M142.4 53.6c-2.3-11.4-15.1-28.8-42.4-28.8-27.3 0-36.4 13.4-40.5 23.3-2.5 6.2-3.2 15.2-3.4 19.7 0 0 1.5 43.2 3.1 47.1 1.6 3.9 9.4 7.3 15.3 13.5 6.6 6.9 11.3 19.1 13.6 18.7 8.8-1.5 10.7-1.6 20 0 6.4 1.1 9.8-9.7 13.5-14.8 5.3-7.2 15.5-12.2 18.4-16.4 2.9-4.2 3.7-48.2 3.7-48.2.1-3.1-.2-8.8-1.3-14.1z" fill="#fff"/>
    <path d="M109.1 148.5c-.4 0-.7 0-1.1-.1-9-1.6-10.8-1.6-19.6 0-1.9.3-3.5-2.4-6.4-7.2-2.2-3.8-5-8.5-8.2-11.8-2.6-2.8-5.7-5-8.4-7-3.5-2.5-6.2-4.5-7.2-6.9-1.7-4-3-43.1-3.2-47.5.2-4.8.9-13.8 3.4-20.1 6.6-16.2 20.1-24 41.5-24 12.3 0 23.2 3.6 31.3 10.4 6.3 5.2 10.9 12.5 12.2 19.3 1.1 5.5 1.3 11.4 1.4 14.4-.1 4.5-.9 44.5-3.9 48.8-1.4 2-4.1 4-7.3 6.4-3.9 2.9-8.3 6.1-11.1 10-.9 1.3-1.9 3-2.9 4.8-2.6 4.9-5.7 10.5-10.5 10.5zM98 145c2.8 0 5.7.4 10.3 1.2 3.9.7 6.8-4.6 9.4-9.3 1-1.9 2-3.6 3-5 3.1-4.2 7.6-7.6 11.6-10.5 3-2.2 5.6-4.2 6.8-5.9 2-2.9 3.2-30.7 3.5-47.6 0-3-.3-8.7-1.4-14-1.3-6.4-5.6-13.1-11.5-18-7.7-6.5-18-9.9-29.9-9.9-20.3 0-33.2 7.4-39.4 22.6-2.4 5.9-3.1 14.6-3.3 19.3.6 17.3 1.9 44 3 46.7.8 1.8 3.4 3.7 6.4 6 2.8 2 5.9 4.3 8.7 7.2 3.4 3.5 6.2 8.4 8.5 12.2 1.5 2.6 3.4 5.7 4.2 6.1 4.6-.7 7.4-1.1 10.1-1.1z"/>
    <path d="M117.11 115.24c-.34-.18-.6-.42-.78-.76-.35-.63-1.32-.07-.97.57.05.09.12.16.18.24-.01 0-.02 0-.03.01a38.04 38.04 0 0 1-7.15 2.53.56.56 0 0 0-.26-.01c-2.35.46-4.66.17-7.03.14-.74-.01-1.58.02-1.84.66-.71-.88-1.89-.76-3.04-.77-2.01-.01-4.03.01-6.04-.01h-.03c-1.84-.45-3.64-1.04-5.41-1.76l-.03-.03c.03-.17 0-.35-.14-.49-.2-.2-.6-.23-.79 0-.3.35-.59.7-.89 1.05-.2.23-.23.57 0 .79.2.2.6.23.79 0 .12-.14.24-.28.35-.42.02.01.03.03.05.04h.01c2.85 2.85 5.63 5.83 8.62 8.54 2.43 2.21 5.3 2.28 8.46 2.17 3.4-.13 5.96-1.38 8.39-3.76 2.48-2.43 4.79-5.09 6.93-7.83.03.01.04.04.07.05.27.14.61.07.77-.2.16-.23.08-.61-.19-.75zm-30.48 2.75c9.03 3.05 18.91 2.7 27.73-.97-1.34 1.61-2.75 3.16-4.18 4.68-6.42 2.51-13.26 2.45-19.73.02-.02-.01-.03.01-.05 0-1.26-1.24-2.51-2.48-3.77-3.73zm22.46 4.84-.06-.12c.09-.03.19-.06.28-.1l-.22.22zm-.5.49c-.07-.13-.15-.27-.22-.4.04-.01.08-.02.12-.04v.02c.06.11.11.23.17.34a.27.27 0 0 1-.07.08zm-.89.77c-.19-.27-.38-.55-.57-.82.07-.02.15-.03.22-.05l.39.84c-.02.01-.03.02-.04.03zm-.65.48-1.03-1.03.52-.12c.24.34.47.68.71 1.02-.07.04-.13.08-.2.13zm-.83.54c-.31-.48-.62-.96-.92-1.44l.18-.03c-.01.07.01.15.08.22l1.04 1.04c-.13.07-.26.14-.38.21zm-.72.4c-.3-.57-.61-1.14-.91-1.72.04-.01.08-.01.12-.02v.01l1.02 1.59c-.08.06-.15.11-.23.14zm-.54.24c-.44-.58-.81-1.2-1.13-1.84.06-.01.11-.02.17-.02l.99 1.86c-.02-.01-.03-.01-.03 0zm-.91.34c-.48-.65-.89-1.34-1.25-2.07.14-.01.28-.02.42-.04.34.7.74 1.36 1.21 1.99-.12.04-.25.08-.38.12zm-.68.19c-.57-.73-1.14-1.46-1.7-2.18.18-.01.36-.01.53-.03.35.77.8 1.49 1.29 2.18-.04 0-.08.02-.12.03zm-.83.16c-.44-.58-.82-1.18-1.16-1.82l1.39 1.78c-.08.02-.15.03-.23.04zm-.85.13c-.6-.78-1.14-1.59-1.62-2.45h.44c0 .02-.01.04 0 .07.39.83.88 1.6 1.42 2.35l-.24.03zm-.97.05c-.54-.8-1.01-1.63-1.41-2.51.05 0 .09.01.14.01.01.03-.01.05.01.08.47.84 1 1.64 1.57 2.41-.1 0-.2.01-.31.01zm-.77.02c-.53-.86-1.06-1.72-1.59-2.59.11.01.22.01.33.02v.03c.39.89.86 1.73 1.39 2.54h-.13zm-2.19-.05c-.62-.89-1.18-1.82-1.67-2.8.03.01.07.01.1.02 0 .04.01.09.05.13.66.92 1.4 1.78 2.09 2.68l-.57-.03zm-.97-.12c-.53-.92-1.03-1.86-1.5-2.82.04.01.08.02.11.02v.02c.47.98 1.03 1.9 1.63 2.8-.08 0-.16 0-.24-.02zm-1.71-.55c-.59-.9-1.18-1.81-1.78-2.71.1.03.2.05.3.08.53.9 1.06 1.79 1.59 2.69a1.09 1.09 0 0 0-.11-.06zm-1.74-1.26c-.38-.53-.7-1.1-.97-1.7.05.01.1.03.14.04.01.02 0 .03.01.05l1.38 2.1c-.19-.16-.38-.32-.56-.49zm2.68 1.61c-.55-.93-1.1-1.87-1.65-2.8.07.02.15.03.22.05.45.94.94 1.85 1.45 2.76-.01 0-.02-.01-.02-.01zm2.97.37c.01-.01.01-.02.02-.03-.17-.18-.31-.42-.46-.61-.54-.7-1.1-1.38-1.63-2.08.25.03.51.05.76.08.01.01 0 .02 0 .03.54.87 1.08 1.75 1.61 2.62-.1-.01-.2-.01-.3-.01zm2.11-2.52c.01 0 .01 0 0 0 .01 0 .01 0 0 0 .01 0 0 0 0 0zm-9.81-1.51c.15.05.31.1.46.15-.01.05-.03.09-.01.15.04.1.09.19.13.29l-.09-.09c-.16-.17-.33-.33-.49-.5z"/>
    <path d="M75.2 84.7c-1.5 1.9-1.3 4.5.4 6 1.8 1.7 4.9 2.1 7.1.1 1.1-1.1 1.8-2.7 1.5-4.1-.1-.5-.3-1-.6-1.4-.2-.6-.5-1.1-1-1.5-2.1-1.8-5.6-1.4-7.4.9z" fill="#fff"/>
    <path d="M84.4 86.7c-.1-.5-.3-1-.6-1.5-.2-.6-.6-1.1-1.1-1.6-1-.9-2.3-1.4-3.8-1.2-1.6.1-3.1.9-4 2.1-1.6 2-1.4 4.8.4 6.4 1 .9 2.5 1.5 3.9 1.5 1.2 0 2.5-.4 3.5-1.4 1.4-1.2 2.1-2.9 1.7-4.3zm-.6-.1c-.7.1-1.4.2-2 .2 0-.1-.1-.2-.1-.2.4-.1.8-.3 1.2-.5.2-.1.4-.1.6-.3.1.3.2.5.3.8zm-.9-1.8.3.6v.1c-.6.3-1.2.5-1.8.8-.1-.1-.1-.2-.2-.3.7-.3 1.2-.8 1.7-1.2zm-.6-.7c.2.2.3.3.4.5-.6.4-1.2.8-1.6 1.3l-.1-.1c-.1-.1-.2-.1-.3-.2.2-.3.5-.7.7-1.1.1-.2.3-.4.5-.7.2.1.3.2.4.3zm-2.1.1c0-.4.1-.7.1-1.1.5.1.9.3 1.3.5-.2.2-.3.5-.5.7-.2.4-.5.7-.6 1.1-.1-.1-.3-.1-.4-.2.1-.3.1-.7.1-1zM79 83h.4c.2 0 .5 0 .7.1-.1.3-.1.6-.1 1 0 .3-.1.7-.1 1.1-.2 0-.4-.1-.6-.1 0-.3-.1-.7-.2-1 0-.4-.1-.7-.1-1.1zm-4.5 3.9c.7.2 1.5.4 2.2.3 0 .2-.1.5 0 .7-.7-.1-1.5 0-2.2 0v-1zm.1 1.3c.7-.1 1.5-.1 2.2-.1 0 .1.1.2.1.3-.4.1-.7.3-1.1.4-.3.1-.6.2-.9.4-.2-.3-.3-.6-.3-1zm.7 1.7c-.1-.1-.2-.3-.3-.4.3-.1.6-.3.9-.4.3-.1.7-.3 1-.4-.5.4-1.1.8-1.6 1.2zm.5.6-.3-.3c.6-.4 1.1-.8 1.6-1.2.1.1.1.2.2.2-.2.2-.4.5-.6.7-.2.3-.4.5-.6.8-.1-.1-.2-.2-.3-.2zm.5.4c.2-.3.4-.6.7-.8.2-.2.4-.4.6-.7.1.1.2.2.3.2-.2.2-.4.6-.5.8-.2.2-.4.5-.6.7-.2 0-.3-.1-.5-.2zm.8.4c.2-.2.3-.4.5-.6.2-.3.5-.6.6-1 .1 0 .2.1.3.1-.2.6-.3 1.2-.5 1.8-.4-.1-.7-.2-.9-.3zm1.1.4c.3-.5.5-1.2.5-1.8.2 0 .4.1.6.1-.1.6 0 1.2 0 1.8-.4 0-.8 0-1.1-.1zm1.4.1c0-.6 0-1.2-.1-1.8.2 0 .4 0 .6-.1.2.6.3 1.2.5 1.7-.4.1-.7.2-1 .2zm3.2-1.7c-.5-.2-.9-.6-1.3-.9 0 .1-.1.2-.1.3.3.3.7.7 1.1.9l-.2.2c-.2.2-.4.3-.6.4-.1-.2-.3-.5-.4-.7-.1-.2-.2-.3-.3-.5-.1 0-.2.1-.3.1.1.2.2.4.3.5.1.2.3.5.5.8-.3.2-.5.3-.8.4-.2-.6-.4-1.1-.6-1.7.1 0 .1 0 .2-.1-.2-.1-.3-.2-.3-.4-.8.3-1.7 0-2.3-.5-.4-.4-.6-.9-.6-1.4-.2-.2-.4-.4-.5-.6-.4-.1-.8-.1-1.1-.1-.3-.1-.6-.1-.9-.2.1-.4.2-.8.4-1.1.3.2.7.4 1 .5.2.1.4.2.5.3 0-.1 0-.3.1-.4-.2-.1-.3-.2-.5-.2-.3-.2-.6-.3-1-.4.1-.1.2-.2.3-.4.2-.2.4-.4.6-.7.1.2.4.4.6.6.1.2.3.3.4.4.1-.1.2-.1.3-.2l-.1-.1-.6-.6c-.1-.1-.2-.3-.3-.4.3-.2.6-.4.8-.5.1.3.3.6.4.8.1.2.3.5.5.7.2 0 .3.1.4.1l-.6-.9c-.1-.2-.2-.5-.4-.8.4-.2.8-.3 1.2-.3 0 .3.1.7.2 1.1.1.3.1.7.2 1-.2 0-.3.1-.5.1.2.1.3.2.4.4h.4c.5 0 1 .2 1.3.5.2.2.3.4.4.6.1.2.2.4.2.6.1.3 0 .7-.2 1 .2.1.3.2.3.4 0 0 0-.1.1-.1.2.2.6.4.9.5.2.1.5.3.8.4 0 .2-.1.4-.3.6zm.6-.8c-.2 0-.9-.4-1-.5-.2-.1-.3-.2-.5-.2 0 0-.1 0-.2-.1.1-.2.2-.4.2-.6.6.2 1.3.3 2 .3-.2.3-.3.7-.5 1.1zm.5-1.5c-.7-.1-1.3-.2-2-.3v-.4c.7 0 1.4-.1 2-.2v.9zm-3.1.4h.2c.4-1-.2-2.1-1.3-2.4-.2-.1-.4-.1-.6-.1.4.8 0 2-1.2 2h-.3c.1.6.4 1.2 1 1.5.4.2.9.2 1.4.1-.2-.5.1-1.1.8-1.1z"/>
    <path d="M79 72.1c-8.2 0-14.8 6.6-14.8 14.8s6.6 14.8 14.8 14.8 14.8-6.6 14.8-14.8c0-8.1-6.6-14.8-14.8-14.8zm7.3 22.1c-.7 0-1.5-1.6-1.5-1.6-5.4 1.4-10.9 2-14.3-.8s-1.8-6-1.8-6c4.8-2 16.8-2.5 16.8-2.5 2.7 2.7 3.1 6.4 3.1 8 0 1.7-1.5 2.9-2.3 2.9z" fill="#fff"/>
    <path d="m89.5 87.6-.6.6c-.1-.5-.3-1-.5-1.4.2-.1.4-.3.6-.4v.2c-.1.3.1.6.3.7h.2c.2 0 .4-.1.5-.4 0-.1.9-2.7-.9-3.8-1.8-1.1-12.2-.2-23 2.5-.3.1-.4.4-.4.6.1.3.4.4.6.4.7-.2 1.3-.3 1.9-.5-.1.5-.2 1.1-.2 1.6l-.6-.6c-.1-.1-.2 0-.1.1.2.3.5.6.8.9 0 .4.1.7.3 1.1-.7-.8-1.4-1.4-2.1-2.1-.1-.1-.3.1-.2.2 1 1.2 2 2.5 3.1 3.5.7 1 1.7 1.9 2.8 2.5.8.7 1.6 1.4 2.5 1.9.1.1.3-.1.2-.2-.4-.4-.8-.7-1.2-1 .9.3 1.9.4 3 .4 3.2 0 6.8-1 8.5-1.4.5 1.4 1.3 1.6 1.8 1.6h.4c1.3-.3 2.4-2.4 2.1-5 0-.3-.1-.6-.2-.9.3-.2.6-.5.8-.8.2-.1-.2-.5-.4-.3zm-.6-3.1c.2.3.2.7.2 1-.3.3-.6.6-1 .9-.2-.3-.4-.7-.5-1 .5-.1.9-.5 1.3-.9zm-1.4-.6c.5.1.8.1 1 .2l-1.2.9c-.2-.3-.3-.5-.5-.7.3-.1.5-.3.7-.4zm-.7 9.7c-.5.1-.8-.5-1-.9.2-.1.3-.4.2-.6-.1-.3-.4-.4-.7-.3-.1 0-8 2.6-11.8 1.2-2-.7-3.6-2.2-4.2-3.9-.4-1.1-.4-2.2 0-3V86c6.5-1.4 12.2-2.1 15.6-2.2.4.4 2.7 2.8 3.1 5.9.4 2.1-.4 3.7-1.2 3.9zm-16.7-1.1c-.9-1-2-1.9-3.1-2.8-.1-.1-.2 0-.1.1.4.5.9.9 1.3 1.4-.1.1-.2.2-.1.4.7.9 1.7 1.9 2.9 2 .2 0 .3-.3.2-.4-.4-.2-.8-.4-1.1-.7z"/>
    <path d="M117.2 84.7c-1.5 1.9-1.3 4.5.4 6 1.8 1.7 4.9 2.1 7.1.1 1.1-1.1 1.8-2.7 1.5-4.1-.1-.5-.3-1-.6-1.4-.2-.6-.5-1.1-1-1.5-2.1-1.8-5.5-1.4-7.4.9z" fill="#fff"/>
    <path d="M126.5 86.7c-.1-.5-.3-1-.6-1.5-.2-.6-.6-1.1-1.1-1.6-1-.9-2.3-1.4-3.8-1.2-1.6.1-3.1.9-4 2.1-1.6 2-1.4 4.8.4 6.4 1 .9 2.5 1.5 3.9 1.5 1.2 0 2.5-.4 3.5-1.4 1.4-1.2 2-2.9 1.7-4.3zm-.7-.1c-.7.1-1.4.2-2 .2 0-.1-.1-.2-.1-.2.4-.1.8-.3 1.2-.5.2-.1.4-.1.6-.3.1.3.2.5.3.8zm-.8-1.8.3.6v.1c-.6.3-1.2.5-1.8.8-.1-.1-.1-.2-.2-.3.6-.3 1.1-.8 1.7-1.2zm-.6-.7c.2.2.3.3.4.5-.6.4-1.2.8-1.6 1.3l-.1-.1c-.1-.1-.2-.1-.3-.2.2-.3.5-.7.7-1.1.1-.2.3-.4.5-.7.1.1.2.2.4.3zm-2.1.1c0-.4.1-.7.1-1.1.5.1.9.3 1.3.5-.2.2-.3.5-.5.7-.2.4-.5.7-.6 1.1-.1-.1-.3-.1-.4-.2 0-.3 0-.7.1-1zM121 83h.4c.2 0 .5 0 .7.1-.1.3-.1.7-.1 1.1 0 .3-.1.7-.1 1.1-.2 0-.4-.1-.6-.1 0-.3-.1-.7-.2-1 0-.5 0-.8-.1-1.2zm-4.4 3.9c.7.2 1.5.4 2.2.3 0 .2-.1.5 0 .7-.7-.1-1.5 0-2.2 0-.1-.3-.1-.6 0-1zm0 1.3c.7-.1 1.5-.1 2.2-.1 0 .1.1.2.1.3-.4.1-.7.3-1.1.4-.3.1-.6.2-.9.4-.1-.3-.2-.6-.3-1zm.7 1.7c-.1-.1-.2-.3-.3-.4.3-.1.6-.3.9-.4.3-.1.7-.3 1-.4-.5.4-1.1.8-1.6 1.2zm.5.6-.3-.3c.6-.4 1.1-.8 1.6-1.2.1.1.1.2.2.2-.2.2-.4.5-.6.7-.2.3-.4.5-.6.8-.1-.1-.2-.2-.3-.2zm.5.4c.2-.3.4-.6.7-.8.2-.2.4-.4.6-.7.1.1.2.2.3.2-.2.2-.4.6-.5.8-.2.2-.4.5-.6.7-.1 0-.3-.1-.5-.2zm.8.4c.2-.2.3-.4.5-.6.2-.3.5-.6.6-1 .1 0 .2.1.3.1-.2.6-.3 1.2-.5 1.8l-.9-.3zm1.1.4c.3-.5.5-1.2.5-1.8.2 0 .4.1.6.1-.1.6 0 1.2 0 1.8-.4 0-.7 0-1.1-.1zm1.4.1c0-.6 0-1.2-.1-1.8.2 0 .4 0 .6-.1.2.6.3 1.2.5 1.7-.4.1-.7.2-1 .2zm3.3-1.7c-.5-.2-.9-.6-1.3-.9 0 .1-.1.2-.1.3.3.3.7.7 1.1.9l-.2.2c-.2.2-.4.3-.6.4-.1-.2-.3-.5-.4-.7-.1-.2-.2-.3-.3-.5-.1 0-.2.1-.3.1.1.2.2.4.3.5.1.2.3.5.5.8-.3.2-.5.3-.8.4-.2-.6-.4-1.1-.6-1.7.1 0 .1 0 .2-.1-.2-.1-.3-.2-.3-.4-.8.3-1.7 0-2.3-.5-.4-.4-.6-.9-.6-1.4-.2-.2-.4-.4-.5-.6-.4-.1-.8-.1-1.1-.1-.3-.1-.6-.1-.9-.2.1-.4.2-.8.4-1.1.3.2.7.4 1 .5.2.1.4.2.5.3 0-.1 0-.3.1-.4-.2-.1-.3-.2-.5-.2-.3-.2-.6-.3-1-.4.1-.1.2-.2.3-.4.2-.2.4-.4.6-.7.1.2.4.4.6.6.1.2.3.3.4.4.1-.1.2-.1.3-.2l-.1-.1-.6-.6c-.1-.1-.2-.3-.3-.4.3-.2.6-.4.8-.5.1.3.3.6.4.8.1.2.3.5.5.7.2 0 .3.1.4.1l-.6-.9c-.1-.2-.2-.5-.4-.8.4-.2.8-.3 1.2-.3 0 .3.1.7.2 1.1.1.3.1.7.2 1-.2 0-.3.1-.5.1.2.1.3.2.4.4h.4c.5 0 1 .2 1.3.5.2.2.3.4.4.6.1.2.2.4.2.6.1.3 0 .7-.2 1 .2.1.3.2.3.4 0 0 0-.1.1-.1.2.2.6.4.9.5.2.1.5.3.8.4 0 .2-.2.4-.3.6zm.5-.8c-.2 0-.9-.4-1-.5-.2-.1-.3-.2-.5-.2 0 0-.1 0-.2-.1.1-.2.2-.4.2-.6.6.2 1.3.3 2 .3-.1.3-.3.7-.5 1.1zm.5-1.5c-.7-.1-1.3-.2-2-.3v-.4c.7 0 1.4-.1 2-.2v.9zm-3.1.4h.2c.4-1-.2-2.1-1.3-2.4-.2-.1-.4-.1-.6-.1.4.8 0 2-1.2 2h-.3c.1.6.4 1.2 1 1.5.4.2.9.2 1.4.1-.1-.5.1-1.1.8-1.1z"/>
    <path d="M121 72.1c-8.2 0-14.8 6.6-14.8 14.8s6.6 14.8 14.8 14.8 14.8-6.6 14.8-14.8c0-8.1-6.6-14.8-14.8-14.8zm8.3 19.7c-3.4 2.8-9 2.2-14.3.8 0 0-.8 1.7-1.5 1.6-.7 0-2.3-1.2-2.3-2.8 0-1.7.4-5.3 3.1-8 0 0 11.9.5 16.8 2.5 0-.1 1.6 3.1-1.8 5.9z" fill="#fff"/>
    <path d="M133.8 85.7c-10.8-2.7-21.2-3.6-23-2.5s-.9 3.7-.9 3.8c.1.2.2.3.3.3.3.2.5.4.8.6-.2.6-.3 1.1-.4 1.8-.3 2.6.8 4.7 2.1 5h.4c.5 0 1.3-.3 1.8-1.6 1.6.5 5.3 1.4 8.5 1.4 1.2 0 2.3-.1 3.2-.5 2.3-.8 4.1-2.5 4.9-4.5.4-1.1.5-2.3.2-3.2.6.1 1.3.3 1.9.5.3.1.6-.1.6-.4 0-.3-.2-.6-.4-.7zm-22.5-1.6s.1-.1.2-.1c.1.3.3.5.6.6.2.1.5-.1.4-.4-.1-.1-.2-.3-.3-.4.3 0 .7-.1 1.2-.1-.3.4-.7.8-1 1.4-.1 0-.1-.1-.2-.1-.4-.3-.7-.5-1.1-.7 0-.1.1-.1.2-.2zm-.5.7c.3.2.6.5.9.7l.3.3c-.1.1-.1.3-.2.4-.3-.3-.7-.6-1.1-.8 0-.2 0-.4.1-.6zm.4 2.6c-.1-.1-.3-.2-.4-.3.1-.1.2-.3.1-.5 0 0 0-.2-.1-.4.2.2.4.4.7.6l-.3.6zm19.2-1.3c.4.8.4 1.9 0 3-.7 1.7-2.3 3.2-4.2 3.9-3.8 1.4-11.7-1.2-11.8-1.2-.3-.1-.6.1-.7.3-.1.2 0 .5.2.6-.2.4-.5 1-1 .9-.7-.2-1.6-1.8-1.3-3.9.4-3.1 2.7-5.5 3.1-5.9 3.5.1 9.1.7 15.6 2.2.1 0 .1.1.1.1zm-1.1 7.4c-1.3.4-2.9 1.6-4.3 1.3-.3-.1-.4.3-.1.4.8.2 1.4 0 2.1-.3.8-.3 1.6-.7 2.4-1.1.1-.2 0-.4-.1-.3z"/>
    <path d="M63.17 77.98 75.4 65.9l16.47 6.47-2.53 4.02-13.47-7.38z" fill="#fff"/>
    <path d="M62.78 78.31c.17.2.47.24.69.09l12.44-8.79 13.19 7.23c.12.06.24.08.36.05.13-.03.24-.11.32-.22l2.53-4.03c.08-.13.1-.29.06-.44a.503.503 0 0 0-.3-.32L75.6 65.41a.51.51 0 0 0-.55.12L62.81 77.61c-.19.19-.2.5-.03.7zm10.38-8.02-1.93.44 2.27-2.24 1.17.73-1.51 1.07zm1.82-1.28-1.22-.77 1.1-1.09.65 1.47-.53.39zm3.8 1.01.38-2.09.89.35-.75 2.03-.52-.29zm.82.45.76-2.07.99.39-1.39 1.88-.36-.2zm.68.37 1.42-1.91 1.5.59-1.08 2.34-1.84-1.02zm3.7 2.02 1.39-2.5.61.24-1.05 2.78-.95-.52zm1.33.74 1.85-2.53 1.16.45-1.21 3.06-1.8-.98zm2.17 1.19 1.79-2.26-1.09 2.64-.7-.38zm2.9-2.46-1.53 2.08.95-2.3.58.22zm-1.06-.42-1.56 1.97.89-2.24.67.27zm-2.48-.97-1.3 1.77.75-1.99.55.22zm-2.89-1.13-1.14 1.34.7-1.52.44.18zm.14 2.16.44-1.93.52.21-.96 1.72zm-.51.68-1.09-.59 1.66-1.95-.57 2.54zm-5.12-2.81-.48-.26-.2-2.19 1.06.41-.38 2.04zm-.84-.46-.52-.29-.7-2.25 1.03.41.19 2.13zm10.95 6 2.14-2.92.4.15-1.94 3.09-.6-.32zm-12.45-6.83a.583.583 0 0 0-.29-.06l-.72-1.6.4-.4.47.18.67 2.17-.53-.29zm-8.16 5.41 2.8-2.77 1.65-.38-4.45 3.15z"/>
    <path d="m136.69 78.29-11.96-12.35-16.61 6.1 2.44 4.08 13.63-7.08z" fill="#fff"/>
    <path d="M137.06 77.93 125.1 65.58a.514.514 0 0 0-.55-.13l-16.61 6.1c-.15.05-.25.17-.31.31-.05.15-.04.31.05.44l2.44 4.08c.08.12.19.2.31.23.12.02.25.02.36-.05l13.34-6.94 12.24 9.07c.21.16.52.13.69-.07.19-.19.18-.5 0-.69zm-11.68-8.65 1.19-.71 2.22 2.29-1.92-.48-1.49-1.1zm-.83-.61.69-1.46 1.08 1.11-1.24.74-.53-.39zm-3.82 1.58-.7-2.04.9-.33.33 2.1-.53.27zm-.68.36-1.34-1.91 1-.37.72 2.08-.38.2zm-2.18 1.13-1.03-2.37 1.51-.56 1.38 1.95-1.86.98zm-2.82 1.47-.99-2.8.61-.23 1.34 2.53-.96.5zm-2.22 1.15-1.15-3.09 1.17-.43 1.8 2.57-1.82.95zm-1.08.56-1.03-2.67 1.74 2.3-.71.37zm-1.57-3.1.9 2.32-1.48-2.11.58-.21zm1.19-.43.84 2.26-1.51-2 .67-.26zm2.36-.87.71 2-1.26-1.8.55-.2zm2.8-1.03.67 1.53-1.11-1.37.44-.16zm-1.55.58.53-.2.39 1.94-.92-1.74zm.9-.12 1.62 1.99-1.1.57-.52-2.56zm5.37-2.19 1.07-.39-.25 2.19-.48.25-.34-2.05zm1.43-.52 1.04-.38-.75 2.23-.53.28.24-2.13zm-11.93 8.2-1.88-3.14.4-.14 2.08 2.97-.6.31zm12.65-6.57.72-2.16.48-.17.39.41-.75 1.58c-.1-.01-.19.01-.29.05l-.55.29zm4.19 2.04 1.64.42 2.74 2.83-4.38-3.25zM93.69 128.22c-2.15-.8 1.81 6.87 2.48 8.2s2.19 2.29 2.19 2.29l.95-.76.1.76s3.34-1.43 4.58-2.77c1.24-1.34 2.29-7.82 2.29-7.82l-5.53.29-1.05.67-.48-.76c0-.01-4.77.19-5.53-.1z"/>
    <path d="M100 119.2c-1-.3-14.2 1.8-20.3-.1s-10.5-11.2-3.8-13.3c6.7-2.1 5.9 6.7 1.6 5.5s.5-.8.8-2.2-2.3-2-3.5-.3.8 4.1 2.5 4.4 6.6-1.5 10.2-2c3.6-.5 7.7-.3 12.1 1.8 0 0 2.5-1.9 5.9-2 3.4-.1 10.9.9 13 2.4s3.2 1.7 5.7 1.2 3.1-4.6 1.6-5.1-3.3.7-2.9 1.5c.4.7 1.6.5 1.3.9s-2.1.8-2.7-.1c-.5-.9-1.4-3.9 2-4.6 3.4-.6 7.2 1.5 5.6 6.2-1.6 4.8-8.6 6.1-11.9 6.1-3.1.1-11.1 1.7-17.2-.3z" fill="#fff"/>
    <path d="M128.9 108.4c-1.2-1.3-3.3-2-5.4-1.6-1.3.2-2.1.8-2.5 1.7-.6 1.2-.1 2.7.3 3.4.2.4.7.7 1.4.8.7.1 1.6-.2 1.9-.6.2-.2.1-.4.1-.5-.1-.3-.4-.3-.6-.4-.3-.1-.6-.2-.7-.4-.1-.1 0-.2.1-.3.4-.5 1.4-.9 2.3-.6.4.1.6.8.6 1.5-.1 1.2-.8 2.6-2.1 2.8-2.4.5-3.4.3-5.4-1.1-2.3-1.6-10.1-2.6-13.2-2.5-3 .1-5.3 1.5-5.9 1.9-3.8-1.8-7.8-2.4-12.1-1.7-1.5.2-3.3.7-4.9 1.1-2.2.6-4.2 1.1-5.1.9-.9-.2-2-1.1-2.4-2.1-.2-.5-.3-1.1.1-1.8.6-.9 1.8-1 2.3-.7.2.1.6.3.5.7-.1.4-1 .6-1.5.8-.7.2-1.1.3-1.1.8 0 .4.4.7 2.1 1.1 1.3.3 2.4-.1 3.2-1.1.8-1.2.8-3.1 0-4.2-.5-.7-1.9-1.8-4.8-.9-2.3.7-3.6 2.4-3.6 4.7 0 3.8 3.5 8.1 7.4 9.3 4.4 1.4 12.2.7 16.9.3 1.6-.1 3.2-.3 3.4-.2 2.4.8 5.1 1 7.7 1 1 0 1.9 0 2.9-.1h.3c1.2-.1 2.3-.2 3.3-.3 1.3-.1 2.4-.2 3.3-.2 2.8 0 10.5-1.2 12.2-6.4.5-2.6-.2-4.2-1-5.1zm-28.8 10.4c-.4-.1-1.4 0-3.7.2-4.6.4-12.3 1.1-16.6-.3-1.2-.4-2.3-1-3.3-1.9 3.8 1.2 8.3 0 11.6-1.9.2-.1 0-.3-.1-.2-3.8 1.8-8.1 2.9-12.1 1.5-1.7-1.7-2.9-4-2.9-6.1 0-.2 0-.4.1-.7.1 1.4.8 2.4 2 3 .1.1.3-.1.2-.2-.9-.7-1.6-1.3-1.7-2.6-.1-.8 0-1.5.3-2.1.5-.6 1.2-1.1 2.3-1.5 1.8-.6 3.2-.3 3.9.6.7.9.7 2.3 0 3.3-.3.5-1 1.2-2.4.8l-1.2-.4c.1 0 .2-.1.2-.1.8-.2 1.9-.6 2-1.3.2-.7-.2-1.3-.9-1.6-1-.4-2.4-.2-3.3 1-.5.7-.5 1.6-.2 2.5.5 1.2 1.8 2.3 2.9 2.6 1.1.2 3.1-.3 5.4-.9.8-.2 1.7-.4 2.6-.6-.1.1-.2.1-.3.2-3.1 1.9-5.8 2.5-9.5 1.9-.2 0-.3.2-.1.3 2 .7 4.2.7 6.3 0 2-.7 3.6-2 5.5-2.8.1 0 .3-.1.4-.1 4.2-.6 8.1-.1 11.8 1.8l.2.1.2-.1s2.5-1.8 5.7-1.9h.8c2.7 3.3 7.7 6.2 12 6.1.2 0 .2-.2 0-.2-4.6-.6-7.9-3.1-11.4-5.8 1.5.1 3.5.3 5.3.6 4.6 2 7.9 5.7 13.2 5.3-2.5 1.4-5.8 2.1-8 2.1-.4 0-.8 0-1.2.1-3.7-.6-6.7-1.7-10.1-3.8-.1-.1-.2.1-.1.2 2 1.8 4.7 3.2 7.5 3.8-1.3.1-2.7.2-4.2.3-2.9-.8-5.3-1.9-7.7-4-.1-.1-.2 0-.1.1 1.4 1.7 3.5 3.1 5.8 3.9-2.5-.2-4.9-.5-7.1-1.2zm28.7-5.5c-.5 1.4-1.5 2.5-2.8 3.4-3.2 0-6-.6-8.7-2.4-1.1-.7-2-1.5-3.1-2.1 1.8.4 3.3.9 4.1 1.4 2.2 1.5 3.4 1.8 6 1.2 1.7-.4 2.6-2.1 2.7-3.5.1-.9-.2-1.7-.7-2.1-.8-1.2-2.4-1.8-3.8-.9-.1.1 0 .3.1.2.9-.2 1.9-.2 2.7.3-1-.1-2 .3-2.6.9-.3.4-.4.8-.2 1.2.2.4.6.6 1 .7-.2.1-.6.2-1 .1-.2 0-.6-.1-.7-.4-.3-.6-.7-1.8-.2-2.7.3-.7 1-1.1 2-1.3 1.7-.3 3.3.1 4.3 1 .7 1.2 1 2.3.2 3.6-.7 1.3-2.1 1.9-3.2 2.7-.2.1-.1.4.1.3 1.8-.6 3.7-2.5 4-4.4.2 1.1.1 1.9-.2 2.8zm-30.2 1c-2.5 3.3-5.9 4.2-9.8 4.8-.1 0-.1.2 0 .2 3.8-.2 8-1.5 10.1-4.9 0-.1-.2-.2-.3-.1zm-2.1-.5c-4.2 3.4-8.8 4.7-14.1 4.3-.2 0-.2.2 0 .3 5.1.9 10.6-.8 14.3-4.4.1-.1-.1-.3-.2-.2z"/>
    <path d="M107.56 107.36c.81-.3 1.49-2.07 1.08-3.48-.41-1.41-3.64-4.3-7.2-4.88-3.56-.58-10.1 0-11.84 3.15-1.74 3.15-.33 5.38 1.08 5.38s4.47-1.16 4.47-1.16 2.15 1.74 3.56 1.74 4.72-1.66 4.72-1.66 2.31 1.57 4.13.91z" fill="#fff"/>
    <path d="M107.91 105.78c-.8-.68-2.14-.72-3.09-.49-2.6.6-4.35 2.98-7.21 1.73-1.73-.76-3.19-2.15-5.16-2.3-.92-.07-2.33.14-2.9.97-.52.75-.06 1.53.68 1.91 1.31.67 3.15-.13 4.41-.74 1.35.73 2.59 1.71 4.16 1.92 1.54.21 2.86-.48 4.17-1.19.24-.13.47-.25.7-.37 1.15.55 3.04 1.28 4.18.46.71-.51.7-1.35.06-1.9zm-17.14.61c.31-.46 1.31-.38 2-.23-.11.03-.22.07-.33.1-.19.05-1.64.09-1.67.13zM95.63 96.37c-.15-7.79.12-15.57.8-23.33.08-.87-1.28-.86-1.36 0-.68 7.76-.95 15.54-.8 23.33.02.87 1.38.88 1.36 0z"/>
    <path d="M63.9 50.4c-1.1 2.2-2.6 6.8-3 13.5s1.7 21.2 0 23.5c-1.7 2.4-4.3 1.3-4.7-.6s-1.5-15-2.4-20.3-.6-18.8 0-20.5-.6-13.9.6-17.1c1.3-3.2 5.6-6.5 6.6-7.3 2.1-1.5 6-3.4 8.1-4.5C71.4 16 78.6 9 85.7 7s26.9-3 30.4-.4c3.4 2.6 7.3 4.9 9.6 6.2 2.4 1.3 10.3 5.3 13 8.3 2.8 3 5.1 12.8 5.8 16.9s1.9 13.5 1.7 17.5-.9 15-.9 18.2-.6 12.8-1.7 13.9c-1.1 1.1-4.7 1.1-5.1-1.1s1.1-16.2.2-21.8c-.9-5.6-3.4-15.6-5.1-18-1.7-2.4-5.8-10.5-10.3-10-4.5.4-12.8 6.2-22.7 6.8-6.4.4-16-2.8-21.4-6-5.3-3.1-10.2 2.4-15.3 12.9z" fill="#fff"/>
    <path d="M145.5 37.9c-.4-2.8-2.7-13.9-6-17.4-2.6-2.8-9.2-6.3-12.4-8l-.9-.5c-2.3-1.2-6.1-3.6-9.5-6.1-3.8-2.9-24.3-1.6-31.2.3-5.2 1.4-10.4 5.4-13.8 8.1-1.2 1-2.3 1.8-2.8 2.1-2.1 1.1-6.1 3-8.2 4.6-.1 0-5.4 3.8-7 7.7-.8 2.1-.7 7-.6 11.4.1 2.3.1 5.2-.1 5.8-.7 2-.9 15.7-.1 21 .5 2.8 1 7.9 1.4 12.3.4 4 .7 7.1.9 8.1.3 1.4 1.4 2.4 2.7 2.7.2 0 .5.1.7.1 1.2 0 2.3-.6 3.1-1.8 1.2-1.6 1-6.2.5-13.7-.2-3.8-.5-7.8-.3-10.4.5-7.7 2.3-12 2.9-13.1C68.6 43 72 38.8 75 37.9c1.2-.4 2.5-.2 3.7.6 5.6 3.4 15.3 6.6 22 6.1 6.1-.4 11.6-2.7 16-4.6 2.7-1.1 5-2.1 6.7-2.3 3.1-.3 6.4 5 8.2 7.8.5.7.9 1.4 1.2 1.8 1.5 2 4 11.6 5 17.5.5 3.2.2 9.4-.1 14.4-.2 4.1-.3 6.5-.1 7.4.2 1.1 1.1 2 2.3 2.4 1.6.5 3.6.1 4.5-.8 1.7-1.7 2-14.5 2-14.6 0-2.6.4-10.2.7-15.2l.2-2.9c.1-4-1.2-13.3-1.8-17.6zm-.3 17.6-.2 2.9c-.2 2.8-.3 6.3-.5 9.4-1.2 1.9-2.7 3.5-4.6 4.7.1-3.1.1-6-.2-7.9-.2-1.4-.6-3.3-1-5.3 2.8-1.8 5-4.2 6.5-7.1v3.3zm-10.4-8.7c3.8-3 6.6-6.9 8.2-11.5.2 1.1.4 2 .5 2.8.4 2.7 1.1 7.2 1.4 11.2-1.2 3.6-3.4 6.5-6.6 8.6-1-4.2-2.3-8.9-3.5-11.1zm-8.7-32.6c2 1.1 6 3.2 8.9 5.3-6.3 3.6-9.4 10.4-8.2 17.4-.5-.3-.9-.6-1.4-.7-3.3-2.4-6.2-5.2-8.5-8.6-3.3-4.8-7.5-17.1 1.9-17.7 2.4 1.6 4.8 3 6.4 3.9l.9.4zm-21-8.1c4.9 0 9.1.4 10.3 1.3.6.5 1.3.9 1.9 1.4-4.7 1.3-6.5 6.7-5.3 11.7 1.5 6.1 5.9 11.4 10.9 15.3h-.2c-7.6-.4-15.6-1.7-21.3-7.2-6.7-6.4-7.1-18.2 2.3-22.2.2-.1.2-.2.3-.3h1.1zM60.7 23.2C59.8 30 63.5 36.3 70 39c-1.4 1.5-2.8 3.5-4.3 6-6.9-2.3-11-8.7-10.2-15.8.9-2.3 3.5-4.7 5.2-6zM60 70.4c-3-1.6-4.5-4.9-5.5-8.2-.3-4.9-.2-11.2 0-14.2 1.2 3.1 3.6 5.7 6.7 7.2-.6 2.2-1.1 5.1-1.3 8.7-.1 1.7-.1 4 .1 6.5zm.1 16.4c-.5.7-1.1 1-1.8.9-.6-.1-1-.6-1.2-1.2-.2-.8-.5-4.2-.9-7.9-.4-4.3-.9-9.2-1.4-12.2 1.2 2.3 2.8 4.2 5.2 5.3.1.9.1 1.8.2 2.7.3 4.8.7 11.3-.1 12.4zM63 50c-.3.6-.9 1.9-1.5 3.9-3.5-1.8-5.8-5-6.6-8.8.1-1.1 0-2.8 0-5.3 0-1.3-.1-2.7-.1-4.1 1.5 4.8 5.1 8.6 10.2 10.4-.6 1.2-1.3 2.5-2 3.9zm11.5-14c-1.2.3-2.3 1-3.5 2.1-6.7-2.4-10.3-8.9-8.9-15.9 2.1-1.4 5.6-3.2 7.6-4.1.6-.3 1.4-.9 2.4-1.7-3 6.7 1.8 14.4 7 20.1-1.5-.9-3.1-1-4.6-.5zm26.1 6.6c-5.1.3-12.5-1.8-17.8-4.3-6.6-6.2-14.6-16.2-7.8-24.2 3.1-2.3 7.1-5 11-6.1 1.9-.5 4.7-1 7.7-1.3-5.9 3.7-9.1 10.6-8 17.8 1.3 8.7 7.7 14.9 15.5 18.1-.2-.1-.4 0-.6 0zm15.4-4.4c-3.5 1.5-7.6 3.2-12.2 4-7.4-2.4-13.9-7.3-16.2-15C85 18.7 88.7 9.7 97 6.4c1.5-.1 3-.2 4.5-.2-6.6 4-7.9 12.8-3.9 19.5 4.6 7.7 13.3 10.3 21.8 11.2-1.1.3-2.2.8-3.4 1.3zm12.4-.1c-1.9-7.2 1.1-14.3 7.8-17.8.7.5 1.3 1.1 1.8 1.6 1.7 1.8 3.3 6.7 4.4 11.1-1.3 5.2-4.1 9.6-8.3 12.9-.2-.4-.5-.8-.8-1.3-1.2-2-2.9-4.7-4.9-6.5zm14.5 48.8c-.3.3-1.5.6-2.5.3-.6-.2-.9-.4-.9-.8-.1-.7 0-3.9.2-6.9.1-1.7.2-3.6.2-5.4 1.8-1 3.3-2.3 4.6-3.9-.1 1.5-.1 2.8-.1 3.6-.1 3.9-.8 12.1-1.5 13.1z"/>
</svg>
