<svg xmlns="http://www.w3.org/2000/svg" width="600" height="600" viewBox="0 0 200 200" style="overflow:hidden!important">
    <path d="M0 0h200v200H0V0z" fill="#ecf0f1"/>
    <path d="M119.8 26.1s4.5-17-22.8-16.6c0 0-18.4-9.8-34.6 10.5 0 0-15.6 3.8-15.6 30.5 0 0-3.8 14.9 5.4 39.1s-7 38.7-9.5 52.4c-2.5 13.6 8.3 19.1 16.5 27.3 8.3 8.3 4.8 15.2 1 17.5 0 0 14.6-6 14-16.2s-2.2-14.3.6-16.5 14.9-10.2 15.9-21.6c.9-11.4 27.2-99.4 27.2-99.4l1.9-7z" fill="#fff"/>
    <path d="M118.3 15.5c-3.7-4.8-10.9-7.1-21.2-7-2.3-1.1-20-8.5-35.4 10.6h-.3c-.2 0-.4.1-.5.2-3.7 1.4-15.2 7.7-15.2 31-.4 1.6-3.4 16.3 5.5 39.5 6.2 16.4.6 28.2-4.5 38.6-2.2 4.6-4.3 9-5.1 13.3-2.1 11.4 4.5 17.3 11.6 23.5 1.7 1.5 3.5 3.1 5.2 4.7 4.4 4.4 5 8.1 4.7 10.4-.4 2.8-2.1 4.6-3.5 5.5-.5.3-.6.8-.4 1.3.2.4.5.6.9.6.1 0 .3 0 .4-.1.4-.2 5.9-2.5 10.1-6.7.1 0 .2-.1.3-.2.2-.2.4-.5.6-.7 2.3-2.6 3.9-5.8 3.7-9.6-.2-2.8-.4-5.2-.6-7.1-.6-5.4-.7-7.4.9-8.6.2-.2.6-.4.9-.7 3.9-2.9 14.4-10.7 15.3-21.6.9-11.2 26.9-98.3 27.1-99.2l2-6.9c0-.2 1.4-5.8-2.5-10.8zM86 8c5.9 0 10.1 2.1 10.5 2.3.2.1.3.1.5.1h.2c1.8 1.6 3 3.6 3.7 5.8-1.7-.1-3.4 0-5 .2-2.6-4.2-6.8-7.2-11.9-8.3.6-.1 1.3-.1 2-.1zm-10.3 2.2c1.2-.6 2.4-1 3.6-1.3 6.4-.1 11.9 2.9 15.1 7.7-.6.1-1.1.2-1.6.4-4.1-4.9-10.5-7.5-17.1-6.8zM47.8 49.4c4.3-6.9 12.1-9.4 19.4-6.5-7.3-1.9-14.7.6-19.4 6.5 0 .1 0 0 0 0zm6.1-21.9c6.8-4.1 14.6-3.1 19.9 2-4.3-1.3-9.6 0-13.6 1.9-5.1 2.4-9.2 6.3-11.9 11.2.9-7.1 3.2-11.9 5.6-15.1zm12.5 74.7c.3 13.8-8.5 25-13.5 37.4-3.3 8.1-2.8 15.4.5 22.3-3.5-5.7-5.2-12.4-4.6-19.2.8-8.6 5.2-16.2 9-23.8 3.2-6.4 6-13.5 6.1-20.5.8 1.2 1.7 2.5 2.5 3.8zm-6.6 66.3c-.9-.9-1.8-1.7-2.7-2.5-3.4-4.9-5.8-10.4-5.5-16.5.4-6.9 4.1-13.4 7.2-19.4 4.2-8.2 8.4-16.6 8.8-25.8.1.1.2.3.2.4 4.7 8.7 4.5 16.7-1.2 24.8-3.9 5.5-9 10.4-10.7 17.2-1.3 5.2.2 9.8 3.4 14.1 2.1 2.9 4.8 5.3 6.7 8.3 2.7 4.2 3.7 11.1-1.4 13.7.2-.7.5-1.4.6-2.2.2-2.8-.4-7.2-5.4-12.1zm59-142.7-2 6.8c-1.1 3.6-26.2 88.2-27.2 99.6-.8 10-10.8 17.4-14.5 20.2-.4.3-.7.5-1 .7-2.5 2-2.2 4.9-1.6 10.4.1 1.4.3 2.9.4 4.6-.4-1.2-1-2.4-1.6-3.6-2.4-4.8-4.2-9.1-2.8-14.5 1-4.1 3.4-7.7 6.1-10.9 7.7-9 19.6-16.9 18.1-30.3-.1-.8-1.3-.8-1.2 0 1.7 15-13.7 22.4-20.8 33.4-2.6 4-4.4 8.9-3.8 13.7.6 5.5 5.1 10.3 5.8 15.7-.2-.7-.4-1.3-.7-2-3.2-7.3-8.9-11.7-7.1-20.6 2.8-13.5 16.6-21.3 20.4-34.5.2-.8-1-1.1-1.2-.3-3.6 12.2-15.2 19.4-19.5 31.2-1.6 4.4-2 9.2-.4 13.6 1.9 5.1 8.5 10.9 7.7 16.7-.8 1.5-1.9 2.9-3.1 4.1.4-.9.7-1.9.8-3 .5-5.3-3.2-9.6-6.4-13.4-3-3.5-6-6.9-6.4-11.7-.5-5.2 2.1-9.8 5-13.9 3.7-5.2 8.6-9.9 10.3-16.2 2-7.2-.6-13.7-4.4-19.6 0-.9-.1-1.8-.2-2.6s-1.3-.8-1.2 0c0 .2 0 .4.1.6-.8-1.2-1.6-2.3-2.5-3.4-.2-3.9-1.4-7.7-3.9-11.3-.5-.7-1.5 0-1.1.6 2 2.9 3.2 5.9 3.7 8.9-1.7-2.3-3.3-4.6-4.7-6.8-4.7-7.7-6.3-16.6-2.2-24.9 3.5-7.1 10.2-11.5 17.9-12.8.8-.1.5-1.3-.3-1.2-10.8 1.8-19.5 10.1-21 21.1-1.5 10.9 4.8 18.6 10.6 26.7.7 11.8-8 23.9-12.3 34.7-4 10-3.8 20.4 1 29.5-5.5-5-9.5-10.1-7.9-18.8.8-4 2.8-8.3 5-12.8 4.9-10.2 11.1-23 4.5-40.2-.4-1-.8-2-1.1-3 .5.3 1.2-.3.8-.9-3.6-7.2-4.6-15.2-2.5-23 2.3-8.3 9.1-16.8 18.7-13.8.8.2 1.1-1 .3-1.2-8.5-2.7-15.6 3.2-18.9 10.8C48.7 62.3 48 66.7 48 71c-1.6-9.4-1-16-.6-18.7C52.7 43.5 63 41 71.8 46.2c.7.4 1.3-.7.6-1.1-.7-.4-1.4-.8-2.2-1.1.3-.2.4-.8-.1-1-7.8-4.5-17-2.7-22.3 4.1v-.8c2-5.3 5.6-9.7 10.5-12.6 4.7-2.8 12.3-5.2 17.3-2 .3.5.7 1 1 1.5.2.4.7.4.9.1.5.6 1.4-.3.9-.9-.6-.7-1.3-1.3-2-1.8-4.8-6.4-13-8.6-20.4-5.6 3.2-3.2 6.3-4 6.5-4.1.2 0 .4-.2.5-.4l.1-.1c6.4.9 11.9 4.6 15.2 10.2.4.7 1.5.1 1.1-.6-3.3-5.7-8.9-9.5-15.3-10.6 2.6-3 5.2-5.3 7.8-7 7.4-2.5 14.9-.3 19.6 5-1.5.5-2.7 1-3.6 1.5-4.7 2.9-5.1 5.5-5.1 5.5H84l3.7-1.4 5.9-2.7c1 1.8 1.8 3.7 2.3 5.9.2.8 1.4.5 1.2-.3-.4-2.1-1.2-4-2.1-5.7h1.3c.7 1.9 1.2 4 1.2 6.2 0 .8 1.3.8 1.2 0 0-2.2-.4-4.2-1.1-6.1l3.8.1c0 .5-.1 1.1-.1 1.7-.1.8 1.1 1.1 1.2.3.1-.7.2-1.3.2-2h1L113 25c-2-5.6-6.3-7.9-10.9-8.6-.6-2.2-1.7-4.2-3.2-5.9h.6c.1.1.2.1.3.1 10.1.6 17.2 9.3 15.6 19.3-.1.8 1.1 1.1 1.2.3 1.3-8-2.5-15.2-9-18.7 4.2 1 7.2 2.8 9.2 5.2 3.1 4.1 2.1 8.8 2 9.1zm-5.3.5c0 .1.1.2.1.3 0-.1 0-.2-.1-.3zM113 25c.1.1.1.3.2.4-.1-.3-.2-.4-.2-.4zm1 2.6c0 .1.1.2.1.3 0-.1-.1-.2-.1-.3zm.8 2.2c.4 1.1.3.8 0 0zm-.7-1.9c.2.7.5 1.4.7 1.9-.1-.4-.4-1-.7-1.9zm-.9-2.5c.1.2.2.5.3.9l-.3-.9zm.4 1.2c.1.3.2.7.4 1-.1-.3-.2-.7-.4-1z"/>
    <path d="M86.5 107c0 18.8 2.7 50.3-8.1 58s-31.8 13.9-36.7 24.4-3.6 29.4-3.6 29.4h124.1s.6-23.1-4.2-30.4c-6.6-10.1-28.5-17.7-36.5-22.9-8.1-5.2-10.9-32.2-10.9-58.8l-24.1.3z" fill="#fff"/>
    <path d="M163.4 220.1H37.2l-.3-.9c-.1-.5-1.3-19.7 3.6-30.3 3.4-7.3 13.6-12.4 23.5-17.4 5.1-2.5 9.9-5 13.6-7.5 8.6-6 8.1-29.8 7.7-47.1-.1-3.5-.1-6.8-.1-9.8v-1.3l26.7-.4v1.3c0 32 3.8 53.5 10.3 57.7 2.4 1.6 6 3.3 10.2 5.4 9.7 4.7 21.9 10.6 26.7 18 5 7.6 4.4 30.9 4.4 31.2l-.1 1.1zm-124.1-2.6h121.6c-.1-2.4-.6-23.2-4-28.4-4.4-6.7-16.2-12.5-25.6-17-4.3-2.1-8-3.9-10.5-5.5-9.8-6.3-11.4-38.8-11.5-58.6l-21.5.4c0 2.6.1 5.5.1 8.5.4 18.9.9 42.4-8.8 49.3-3.8 2.7-8.7 5.1-13.9 7.7-9.5 4.8-19.4 9.7-22.3 16.1-3.3 6.9-3.7 25.9-3.6 27.5z"/>
    <path d="M76.8 173.7c4.8 2.3 10.4 3.9 15.7 2.9.4-.1.4-.7 0-.8-5.1-.9-10.2-1.4-15.2-3.2-.6-.2-1.1.8-.5 1.1zm31.5 2.4c2.4.3 4.9-.4 7.1-1.2 2.1-.8 4.3-1.7 5.8-3.4.5-.5-.1-1.2-.7-.9-2.1.9-3.9 2.3-6.1 3-2 .7-4.1 1-6.2 1.5-.6.1-.4.9.1 1z"/>
    <path d="M85.2 148.9s-6.4 0-8.1 1.6-6.3 1.9-8.1 7.7c0 0-4.8 5.8-4.5 9l-4.7 5.1s-8.5 3.1-11 4.5c-2.4 1.4-5.6 5.1-5.6 5.1s-4.3 2.7-5.3 5.3c-.9 2.3-2.9 8.9-2 15.4.1.7.2 16.4.4 17.1H164c0-.7.5-.7-.1-16.7-.1-3.3-.5-10.5-1.1-12.6-.8-2.7-5.8-9.3-8.1-9.8 0 0-7.1-6.3-9-7.1s-6.9-2.4-6.9-2.4-5-3.4-6.8-6.9c-.3-.6-4.8-7.9-6.1-8.7 0 0-.5-2.1-3.7-4.5s-8.4-2.9-8.4-2.9.6 2.4 1.3 6.4c.6 4 1 6.6-.2 9.3-1.1 2.7-4.8 5.5-7.6 8.5s-4.5 4.5-6 8.1c0 0-6.3-6.1-10.9-8.4s-6.4-4.2-7.2-7.2c-.6-2.9 2-15.9 2-15.9z" fill="#fff"/>
    <path d="M165 203.1c-.1-3.4-.5-10.6-1.1-12.8-.8-2.7-5.6-9.4-8.5-10.4-1.3-1.1-7.2-6.3-9.1-7.1-1.8-.7-6-2.1-6.9-2.4-.7-.5-4.9-3.5-6.3-6.5-.1-.3-4.3-7.2-6.2-8.8-.3-.8-1.2-2.7-4-4.7-3.4-2.6-8.7-3.1-8.9-3.1-.3 0-.6.1-.9.4-.2.2-.3.6-.2.9 0 0 .6 2.4 1.3 6.3.6 3.8.9 6.3-.1 8.8-.7 1.6-2.5 3.4-4.4 5.2-1 1-2.1 2-3 3-.5.6-1 1.1-1.4 1.6-1.7 1.8-3 3.2-4.1 5.5-2-1.9-6.5-5.8-10.2-7.6-4.8-2.3-6.1-4.1-6.7-6.6-.5-1.8.5-8.6 1.4-13.7.4-.2.6-.7.4-1.2 0-.1-.1-.2-.1-.2 0-.2.1-.4.1-.5.1-.3 0-.6-.2-.8s-.5-.4-.8-.4c-1.1 0-6.9.1-8.7 1.9-.3.4-1 .7-1.8 1.1-2 1-5.1 2.5-6.5 6.9-.9 1.1-4.6 5.8-4.6 9.1l-4.2 4.7c-1.4.5-8.6 3.1-10.9 4.5-2.3 1.4-5.2 4.6-5.8 5.2-.8.5-4.6 3.1-5.6 5.7-.8 2.1-3 8.9-2.1 15.9.1.7.2 16.5.4 17.2.1.4.5.8 1 .8h127.6c.3 0 .5-.1.7-.3s.3-.5.3-.7c.2-.3.1-15.9.1-16.9zm-2 14c-3.6-2.6-7.8-4.2-11.5-6.8v-4.4c3.2 2.9 6.8 6.3 10.9 7.4.1 0 .2-.2.1-.2-4-2.2-7.4-4.9-11-7.7v-3.1c.4.4 5.7 5 11.4 7.1.1 2.8.1 5.8.1 7.7zm0-8.2c-6.1-2.6-9.4-5.8-9.6-5.9-.7-.5-1.3-1.1-1.8-1.7 0-1.2.1-2.3.1-3.3 1.7 2.2 8.6 7.4 11.3 8.9v2zm-4.8-19.1c-1.4-1.5-3-2.9-4.4-4.4.6-1.7 1.1-2.8 1.4-3.4 2 1.3 6 6.4 6.7 8.8.5 1.8.9 8.3 1 12.2v3.5c-3.1-1.9-9.2-6.7-11.3-9.1.1-1.6.2-3.1.4-4.4 2.8 3.8 6.4 7.2 10.5 9.4.2.1.4-.2.2-.3-4-2.8-7.5-5.8-10.6-9.5h-.1c.2-1.4.4-2.6.7-3.7 2.2 3.2 5.1 6.4 8.6 8.2.2.1.4-.2.2-.3-3.3-2.5-6.2-4.9-8.5-8.4 0-.1-.1-.1-.1-.1.2-.9.4-1.7.7-2.4 1.3 1.5 2.7 3.1 4.4 4.2.2.1.4-.1.2-.3zm-27.1-25.5c.1.2.2.3.2.4.2.4.4.8.7 1.1-.2.2-.6.7-1.2 1.3.1-.9.2-1.9.3-2.8zm-3.3-4.9c1.1 1.5 2.2 3.3 2.9 4.4-.2 1.3-.5 2.7-.6 4-.2.2-.5.5-.8.7.3-1.7.6-3.5.9-5.2 0-.2-.3-.3-.3-.1-.4 1.9-.9 3.9-1.2 5.9-.3.2-.5.5-.8.7.3-1.5.4-3.1.6-4.5 0-.2-.3-.3-.3-.1-.3 1.7-.8 3.4-.9 5.1-.4.3-.8.6-1.1.9.2-1.3.5-2.5.9-3.8.1-.2-.2-.3-.3-.1-.6 1.3-1.1 2.9-1.2 4.4l-.9.6c0-.2.1-.4.1-.6l.3-2.1c0-.2-.3-.3-.3-.1-.2.7-.3 1.5-.4 2.2-.1.3-.1.6-.2 1-.2.1-.4.3-.7.4.2-.8.2-1.6.3-2.4 0-.2-.2-.2-.3-.1-.2.9-.5 1.8-.7 2.8-.2.1-.4.2-.5.3 0-.2 0-.3.1-.5.1-.6.2-1.1.2-1.7 0-.2-.2-.2-.3 0l-.3 1.8c-.1.2-.1.5-.2.8-.2.1-.5.3-.8.4.1-.5.2-1 .4-1.5.1-.2-.2-.3-.3-.1-.2.6-.4 1.2-.6 1.9-.3.1-.6.3-.9.4-.2.1-.3.2-.4.3.1-.3.2-.7.3-1 .1-.2-.2-.3-.3-.1-.2.6-.4 1.1-.5 1.7 0 .1.2.2.3.1 0 0 0-.1.1-.1 0 .1 0 .3.1.4.2.4.5.6.9.6.1 0 .2 0 .4-.1 6.4-2.6 11.5-7.9 13.1-9.6.7.8 1.5 1.6 2.2 2.2.3 1.3.2 2.6.4 3.9 0 .1.2.2.3 0 .3-1.1.1-2.4-.2-3.6.4.3.8.6 1.1.9.1.6.2 1.2.2 1.9-.8 1.1-2.2 2.1-3.9 3l.1-.1c.4-1.3.4-2.7.3-4 0-.2-.3-.2-.3 0 .1 1.4-.1 2.6-.4 4 0 .1.1.2.2.2-.7.4-1.4.7-2.2 1.1.2-1.1.4-2.2.6-3.2.1-.3-.4-.4-.4-.1-.3 1.1-.7 2.4-.9 3.6-.3.1-.6.2-.8.4l.6-2.1c.1-.2-.3-.4-.4-.1-.2.9-.6 1.7-.9 2.5-.4.2-.8.3-1.2.5.3-.8.5-1.7.6-2.4 0-.2-.3-.2-.3 0-.1.9-.4 1.6-.8 2.4-.1.1-.1.2-.2.3l-1.5.6-.3.1 1.2-3c.1-.2-.3-.3-.4-.1-.5 1.1-1 2.2-1.4 3.4-.4.2-.9.3-1.3.5.6-1 1-2.2 1.2-3.3 0-.2-.3-.3-.3-.1-.3 1.4-1 2.5-1.7 3.7l-.9.3c.5-.9.8-2 .9-2.8 0-.2-.2-.3-.3-.1-.1.8-.4 1.5-.8 2.1-.2.3-.4.6-.7 1l-.9.3c.5-.8.8-1.7 1.1-2.5.1-.2-.2-.3-.3-.1-.2.7-.5 1.3-.9 1.9-.2.3-.4.6-.7.9-.3.1-.6.2-1 .3.3-.5.5-1.1.8-1.6.1-.2-.2-.3-.2-.1-.4.6-.9 1.3-1.3 2-.2.1-.5.2-.8.3.1-.3.3-.6.4-.9.1-.2-.2-.3-.3-.1-.2.4-.5.8-.7 1.3l-.9.3c.1-.2.2-.4.4-.6.1-.2-.2-.4-.3-.2-.2.3-.5.6-.8 1-2.1.7-4.1 1.4-5.8 1.9-1.3-1-2.5-1.7-3.4-2.2 2.1-2.9 4.9-6.2 7.3-7.8.9-.6 1.9-1.3 3-1.9 4-2.6 8.6-5.4 10.8-9.8.8-1.4 1.2-2.8 1.3-4zm-16.9 30.4c2.8 2.9 3 5.5 2.5 6.3-.1.1-.2.4-.9.1-1.7-.6-3-3.8-4-6.1-.4-.9-.7-1.7-1.1-2.3.3-.1.6-.2 1-.3.8.7 1.6 1.4 2.5 2.3zm6.4-30.4c.8-.6 1.3-1.5 1.9-2.2.2-.2.3-.4.5-.6.1.4.1.9-.1 1.3l-1.5 1.5c-.5.5-1 1.1-1.4 1.6.1-1 0-2.1-.1-3.2.5-.6.8-1.3 1.2-1.9.3-.5.8-1 1.2-1.4l.6 1.5c-.3.4-.6.7-.9 1-.6.7-1.3 1.4-1.8 2.2 0 .2.3.3.4.2zm2.1-.6c-.7 1.6-1.8 2.9-2.8 3.9.1-.2.1-.5.2-.7.8-.7 1.3-1.6 2-2.4.1-.3.4-.5.6-.8zm-1.9-3.3c-.3.4-.7.9-.9 1.4-.1-.4-.1-.9-.2-1.4.5-.5.9-1.1 1.3-1.6.2-.2.4-.5.6-.8l.6.9c-.5.4-1 .9-1.4 1.5zm.5-2.8c-.3.3-.6.7-.8 1-.3.3-.6.7-.8 1v-.3c0-.3-.1-.5-.1-.8.2-.2.3-.5.4-.7.2-.4.5-.8.8-1.1.1.4.3.6.5.9zm-1.7-1.9.8.8c-.3.4-.5.8-.8 1.1-.1.1-.1.2-.2.3-.1-.5-.2-1-.3-1.4.1-.3.3-.5.5-.8zm-26.1 22.3c4.5 2.2 10.6 8.1 10.7 8.2.2.2.6.3.9.3.3-.1.6-.3.7-.6 1.1-2.7 2.4-4.1 4.3-6.2.5-.5.9-1 1.5-1.6.9-1 1.9-2 2.9-2.9 1.2-1.1 2.3-2.2 3.2-3.3.3 0 .6-.2.7-.4.1-.1.4-.3.6-.5 1.5-1.2 4.6-3.6 5.8-7.2 1.1-3.2-1.1-6.5-3-8.5 1.1.4 2.3.9 3.2 1.6 2.8 2.1 3.3 3.9 3.3 3.9v.1s0 .1.1.1c0 .1.1.1.1.2v.1c.1.1 1.7 2-.6 6.4-2 3.8-6.3 6.6-10.1 9-1.1.7-2.1 1.3-3.1 2-2.7 1.8-5.8 5.4-8.1 8.7-.2 0-.5.1-.7.3-.2-.1-.4-.1-.6-.1-.3.1-.6.1-.8.6-2.5-1.5-7.1-4-11.9-5.6-.6-.2-1.1-.4-1.7-.7h.1l1.8-2.4c.1-.1-.1-.3-.2-.2-.7.7-1.3 1.5-1.9 2.3-.1.1-.1.1 0 .2-1.2-.6-2.3-1.3-3.5-2.1.3-.8.7-1.6 1.3-2.3.4-.5.9-.9 1.4-1.2 1.1.5 2.2 1.1 3.6 1.8zm1.1 12.7.6.6c-.6 0-1.3-.1-1.9-.1-.2-.2-.3-.5-.4-.8-.1-.3-.5-.2-.4.1.1.2.1.4.3.6-.7-.1-1.5-.1-2.2-.2-.2-.2-.3-.5-.4-.7-.1-.2-.4-.1-.3.1l.3.6-2.7-.3c-.3-.4-.6-.9-.9-1.3-.1-.2-.4 0-.3.2.2.4.4.7.6 1.1-.8-.1-1.6-.2-2.3-.3-.2-.2-.4-.5-.5-.8-.3-.5-.4-1-.6-1.6-.1-.3-.6-.2-.5.1.1.7.4 1.4.8 2.1-.8-.1-1.5-.2-2.2-.4-.9-1.1-1.5-2.2-1.7-3.8 0-.3-.5-.3-.4 0 .1 1.2.5 2.5 1.2 3.6-.7-.1-1.3-.3-1.8-.5-.9-1.1-1.5-2.3-1.9-3.6.2-.1.4-.2.5-.4.3-.5.2-1.1-.3-1.4-.6-.4-1.1-.8-1.6-1.2 0-3.6.5-6.8 2.2-9.9.5.8 1.1 1.6 1.8 2.3-1.2 2.3-1.9 4.8-1.6 7.4 0 .2.3.2.3 0 .1-2.6.4-4.9 1.5-7.2.7.8 1.4 1.5 2.1 2.3-.2.8-.4 1.5-.5 2.3 0 .2.2.3.3.1.3-.6.4-1.3.6-2 3.1 3 6.7 5.4 9.8 6.5 4.4 1.5 8.7 3.7 11.2 5.2-.8.4-1.6 1-2.5 2-1.5-.1-3.2-.1-4.9-.2-.3-.3-.7-.6-1-.9-.2-.1-.5.2-.3.4zm-19.4-23.2c-2.6 2.2-4.4 5.3-4.6 8.7-.5-1-.9-1.8-1.2-2.6.5-3.3 3.5-7 5.5-9.1v.8c0 .8.1 1.5.3 2.2zm0 14.7c-.7-.6-1.2-1.2-1.8-1.8.4-3.6 1.2-6.7 3.1-9.8.3.6.6 1.1 1 1.7-1.8 2.9-2.8 6.4-2.3 9.9zm-2.2-2.3c-.8-1-1.5-2-2-2.9.4-3.5 1.7-6.6 4.4-9 .2.7.5 1.4.9 2.1-1.9 2.9-3.2 6.3-3.3 9.8zm-1.5 1.4c0 1.2.2 2.5.7 3.6l-2.7-2.4c-.3-1.6-.5-3.1-.4-4.7.7 1.1 1.4 2.3 2.4 3.5zm.5.5c.6.7 1.4 1.4 2.2 2.1.1 1.2.5 2.3 1.1 3.3-.8-.6-1.6-1.2-2.4-1.9-.5-1.1-.8-2.3-.9-3.5zm2.6 2.5c.4.4.9.7 1.4 1.1.1.1.2.1.4.1.3 1.2.8 2.3 1.5 3.3-.7-.3-1.3-.7-2-1.1-.5-1.1-1-2.2-1.3-3.4zm27.1 9.3c.6 0 1.2 0 1.8.1-.4 1.1-.8 2.3-1.1 3.4-.2.9-.2 1.7-.3 2.5-.1 1.8-.1 2.9-2.2 4-.7.4-1.2.4-1.3.3-.4-.4-.6-2.9 1.7-7.8.5-1.1.9-1.9 1.4-2.5zm-12.2-17.9c-1.2.8-2.1 2.2-2.7 3.6-1.4-1.1-2.8-2.3-4-3.6.9-.9 1.9-1.8 2.6-2.8.1-.2-.1-.3-.3-.2-.9.8-1.8 1.8-2.6 2.7-.8-.8-1.5-1.6-2.1-2.4 1.1-.9 2.3-1.7 3.4-2.5.2-.1.1-.4-.1-.3-1.3.5-2.5 1.4-3.6 2.5-.5-.6-.9-1.3-1.3-1.9 1.1-.7 2.2-1.4 3.2-2.2.1-.1 0-.3-.2-.2-1.1.6-2.1 1.4-3.2 2.1-.5-.8-.9-1.6-1.2-2.3 1.5-.8 3-1.4 4.6-2 0 0 .1 0 .1-.1 1.3 3.7 4.4 6.9 4.5 7.1.2.2.3.2.6.3.6.7 1.4 1.4 2.3 2.2zM82 155.1c.3.3.6.7.9.9-.1.3-.1.6-.1.9-.3-.2-.7-.4-1-.7-.4-.3-.7-.5-1.1-.8.2-.4.4-.8.6-1.1.3.3.5.5.7.8zm-.3-1.1c.2-.2.4-.5.6-.7.3.3.6.7.9 1-.1.3-.1.7-.2 1l-.6-.6c-.2-.3-.5-.5-.7-.7zm0 2.8c.3.3.7.6 1.1.8-.1.6-.1 1.1-.2 1.6-.3-.2-.6-.4-.9-.7-.5-.4-.9-.7-1.4-1v-.4l.3-1.2c.3.3.7.6 1.1.9zm0 4c-.4-.4-.8-.7-1.2-1.1l-.3-1.5c.4.3.7.6 1.1.9.4.3.7.6 1.1.9 0 .5-.1.9-.1 1.3-.2-.1-.4-.3-.6-.5zm.6 1.5v1.2c-.5-.8-1-1.6-1.3-2.5l.3.3c.3.3.6.7 1 1zm1.2-10c-.1.1-.1.2-.1.3-.1.3-.1.6-.2 1-.2-.2-.4-.4-.6-.7.4-.2.7-.5.9-.6zm0-2.4c-.3.1-.6.3-.9.5 0 0 0-.1-.1-.1l-.6-.3c.6 0 1.1-.1 1.6-.1zm-2.6.3c.5.2.9.4 1.4.5-.3.2-.7.5-1.1.9-.5-.5-1.2-.8-1.9-1.1.4-.1 1-.2 1.6-.3zm-3.1 1c.2-.2.4-.3.7-.4.3.1.7.2 1 .4.5.2.9.5 1.4.7-.3.3-.6.6-.8.9-.9-.4-1.9-.7-2.8-1 .3-.4.5-.6.5-.6zm-.8.9c.9.4 1.9.7 2.8 1-.3.4-.6.8-.8 1.3-1-.4-2.1-.6-3.2-.8.4-.6.8-1.1 1.2-1.5zm-1.4 1.9c1.1.2 2.1.6 3.2.9-.2.4-.3.7-.4 1.1-1.2-.2-2.4-.4-3.6-.5.3-.6.5-1.1.8-1.5zm-.9 1.8c1.2.2 2.5.4 3.7.6 0 .1-.1.3-.1.5-.1.4-.1.8-.1 1.1-1.5-.1-3 .2-4.4.6.2-1 .5-1.9.9-2.8zm-1 3.2c1.5-.4 3-.6 4.5-.8.1.9.2 1.8.5 2.6h-.1c-1.7.2-3.2 1-4.7 1.9-.3-.8-.4-1.6-.4-2.3.1-.4.2-.9.2-1.4zm-3.8-.2c.1-.1.2-.2.2-.4v-.1c.6-.6 1.1-1.3 1.7-1.9.1-.1-.1-.3-.2-.2l-1.2 1.2c.8-1.9 1.9-3 3-3.8-.8 1.5-1.5 3.3-1.7 5.3-2.1 2-3.8 4.4-5.1 7-.3.6-.6 1.2-.8 1.8-.2-.4-.2-.8-.3-.9-.1-1.8 2.6-5.9 4.4-8zm-4.4 13.5c-.3 1.6-.3 3.2.1 4.7-.8-.8-1.6-1.6-2.2-2.3 0-1.8.3-3.4.9-5 .4.8.7 1.7 1.2 2.6zm-1.4-3c-.8 1.6-1.2 3.3-1 5-.8-.8-1.3-1.5-1.8-1.9l2.8-3.1zm-20.9 14c.3.3.6.8 1.1 1.4-.5-.3-1.1-.6-1.6-1 .1-.1.3-.3.5-.4zm-4.2 4.4c.5-1.2 2-2.6 3.3-3.7.9.6 1.7 1.1 2.7 1.6.5.8 1.1 1.8 1.7 3-1.8-1.1-3.8-1.8-5.8-2.7-.3-.1-.5.3-.2.4 2 .9 4 2.1 6.1 2.8h.2c.4.9.9 1.9 1.3 3-3.1-1.3-6.1-2.6-9.1-4.1H39c-.1-.1-.1-.2 0-.3zm-2.2 10.9c3.3 2.2 6.9 3.9 10.8 4.6.2 0 .3-.3.1-.3-3.8-1.2-7.4-2.6-10.8-4.8 0-1.2.2-2.3.3-3.4 3.8 2.1 7.8 3.9 12.1 4.8.2.1.3-.3.1-.4-4.1-1.5-8.2-3-12.1-4.9.4-2.6 1.1-4.7 1.5-5.9 0 0 0 .1.1.1 3 1.8 6.1 3.4 9.5 4.4.3 1 .7 2.1.9 3.3-3.7-1.5-7.5-2.8-11-4.9-.2-.1-.4.2-.2.4 3.4 2.2 7.2 4.2 11.3 5 .4 1.9.6 3.9.7 6.1v3.9c-5.3-1.5-11.8-4.3-13.1-5-.2-1.2-.2-2.1-.2-3zm.4 20.3c0-.1 0-1.3-.1-3.1 1.7 1.2 3.6 2.4 5.6 3.1h-5.5zm12.8 0h-5.9c-2.4-1-4.7-2-6.9-3.5 0-2-.1-4.5-.1-6.8 3.4 2.9 8.5 5 12.9 6.2v4.1zm0-4.6c-4.3-2-9.1-3-12.9-6v-2.8c3.3 2.6 7.2 4.3 11.2 5.5.1 0 .1-.1.1-.1-3.8-1.8-7.8-3.2-11.2-5.6 0-1.9 0-3.2-.1-3.3 1 .6 6.2 3.1 13 5.1-.1 2.1-.1 4.9-.1 7.2zm99.2 4.6H52v-16.3c-.2-11.5-5.4-18.5-7.3-20.6 1-1.1 3.1-3.3 4.8-4.3 1.9-1.2 8.1-3.5 10.1-4.2 1.9 2.1 9.1 10.1 14.6 12.4 4 1.6 14.4 2.3 21.9 2.7-.3.5-.6 1-.9 1.6-1.1 2.4-3.5 8.1-1.3 10.1.3.3.8.6 1.6.6.6 0 1.2-.2 2.1-.6 3.1-1.7 3.2-3.8 3.3-5.7 0-.7.1-1.4.2-2.1.1-.4.2-.9.4-1.4.2 2.8.5 6.5 1 11.4.1.5.5.9 1 .9h.1c.6-.1 1-.5.9-1.1-.3-3.5-.6-7.1-.9-10.3 1.2 4.1 2.8 8.8 4.3 10.5.3.4 1 .5 1.4.1.4-.4.5-1 .1-1.4-1.6-1.9-3.5-8.4-4.7-12.7.2-.1.4-.1.8-.2.3.5.7 1.5 1.2 2.5 1.2 2.8 2.6 6.2 5.2 7.2.4.2.8.2 1.2.2.9 0 1.6-.4 2.1-1.1 1.1-1.7.5-5.4-2.8-8.8l-1.7-1.7c.4-.1.8-.3 1.3-.4v.1c-.1.1.1.2.2.1l.3-.3c4.5-1.5 9.8-3.3 13.2-4.6l.7-.3c6.2-2.5 12.1-4.8 13.5-8.8 1.6.5 4.5 1.5 5.8 2.1 1.2.5 5.4 3.9 8.1 6.4-1.2 2.1-4.1 8.5-4 21.6-.2.2-.5 13.1-.6 16.4zm2.3 0v-3.2c1.8 1.4 3.9 2.7 6.1 3.1.1 0 .3-.2.1-.3-2.1-1-4.2-1.8-6.2-3.1v-4.6c3.4 2.8 7.6 4.9 11.5 6.8v1.4l-11.5-.1zm-102.3-1.2c.2 0 .2-.2.1-.2-4.2-1.7-8.1-3.2-11.9-5.7-.1-.1-.2.1-.1.2 3.3 2.6 7.6 5 11.9 5.7zm85.3-42.8c.6-1.4.7-3 .6-4.5 0-.2-.3-.2-.3 0 .1 1.5-.1 3-.4 4.5-.1 0 .1.1.1 0z"/>
    <path d="M64.7 84.7s-1.8-5-3.3-7.9-3.6-6.3-6.6-7.2-4 3.9-2.9 8.3 4.2 13.9 5 17.6 1.8 8.1 3.6 7.5 7.1-7.7 4.2-18.3z" fill="#fff"/>
    <path d="M59.1 103.6c-1.5-.8-2.3-3.8-3.2-8-.4-2.2-1.7-6.4-2.9-10.5-.8-2.7-1.6-5.3-2.1-7.1-.9-3.5-.5-7.1 1-8.6.8-.8 1.8-1 2.9-.7 3.3.9 5.5 4.4 7.2 7.6 1.6 2.9 3.3 7.8 3.4 8v.1c3.1 11.1-2.6 18.5-4.8 19.3-.2.1-.4.1-.6.1-.3.1-.6 0-.9-.2zm1.5-26.4c-1.6-2.9-3.4-6-6.1-6.7-.5-.1-.9 0-1.3.3-1.1 1.1-1.3 4-.6 6.9.5 1.8 1.2 4.3 2 7 1.2 4.1 2.5 8.4 3 10.6.8 4.1 1.6 6.4 2.3 6.8h.1c1.1-.4 6.6-6.8 3.8-17.2-.1-.4-1.8-5.1-3.2-7.7z"/>
    <path d="M52.8 72.7c1.9-.8 3.6 1.4 4.8 3.3 1.6 2.5 2.6 5.5 2.9 8.6v.2c0 .2 0 .5.1.7 0 .2-.2.2-.2 0-.1-.4-.2-.9-.3-1.4 0 0-.1-.1-.1-.2-1.2-.6-1.8-.3-1.8.8 0 .7.2 1.5.3 2.2.3 1.2.9 2.3 1.3 3.5.1.2-.2.4-.3.2-.9-1.6-2.6-5.3-1.5-7.2.5-.9 1.3-.8 1.9-.2-.5-2-1.2-4.3-2.2-6.2-2.1 4.5-1 9.2.1 14.2 0 .2-.2.3-.3.1-1.4-4.6-2.7-10.7 0-14.5-1.2-2.2-2.8-3.9-4.7-3.8-.1.1-.2-.3 0-.3z"/>
    <path d="M135.3 84.7s1.8-5 3.3-7.9 3.6-6.3 6.6-7.2 4 3.9 2.9 8.3-4.2 13.9-5 17.6c-.7 3.7-1.8 8.1-3.6 7.5s-7.1-7.7-4.2-18.3z" fill="#fff"/>
    <path d="M140 103.9c-.2 0-.4 0-.6-.1-2.2-.8-7.9-8.2-4.8-19.3v-.1c.1-.2 1.8-5.1 3.4-8 1.7-3.2 3.9-6.7 7.2-7.6 1.1-.3 2.2 0 2.9.7 1.5 1.5 1.9 5 1 8.6-.5 1.8-1.2 4.4-2.1 7.1-1.2 4.1-2.5 8.3-2.9 10.5-.8 4.2-1.7 7.2-3.2 8-.3.1-.6.2-.9.2zm-3.9-19c-2.9 10.4 2.6 16.8 3.8 17.2h.1c.7-.4 1.5-2.7 2.3-6.8.5-2.3 1.7-6.5 3-10.6.8-2.7 1.6-5.3 2-7 .8-2.9.5-5.9-.6-6.9-.3-.3-.8-.4-1.3-.3-2.7.7-4.6 3.9-6.1 6.7-1.3 2.6-3 7.3-3.2 7.7z"/>
    <path d="M147.2 72.7c-1.9-.8-3.6 1.4-4.8 3.3-1.6 2.5-2.6 5.5-2.9 8.6v.2c0 .2 0 .5-.1.7 0 .2.2.2.2 0 .1-.4.2-.9.3-1.4.1-.1.1-.2.2-.3 1.2-.6 1.8-.3 1.8.8 0 .7-.2 1.5-.3 2.2-.3 1.2-.9 2.3-1.3 3.5-.1.2.2.4.3.2.9-1.6 2.6-5.3 1.5-7.2-.5-.9-1.3-.8-1.9-.2.5-2 1.2-4.3 2.2-6.2 2.1 4.5 1 9.2-.1 14.2 0 .2.2.3.3.1 1.4-4.6 2.7-10.7 0-14.5 1.2-2.2 2.8-3.9 4.7-3.8 0 .2.1-.2-.1-.2z"/>
    <path d="M138.2 58.2c-2-10.8-13.3-27.4-37.2-27.4S69.1 43.5 65.5 53c-3 8.1-3 21.3-3 21.3s3 33.8 5.2 39.8c2.1 5.9 18.2 24.2 20.8 25.9 2.5 1.7 17.4 3 19.1 2.5 1.7-.4 26.3-26.3 27.6-29.7 1.3-3.4 4.4-32.9 4.3-38.5-.1 0 .1-8.4-1.3-16.1z" fill="#fff"/>
    <path d="M106.3 143.9c-4.4 0-16.1-1.1-18.6-2.8-2.8-1.8-19.1-20.3-21.3-26.5-2.2-6-5.1-38.7-5.2-40.1v-.1c0-.6 0-13.6 3.1-21.8 5.8-15.5 17.8-23 36.7-23 10.9 0 20.5 3.4 27.7 10 5.5 5 9.6 11.9 10.8 18.5 1.4 7.6 1.2 15.7 1.2 16.4.1 6-3.1 35.4-4.4 38.9-.9 2.4-10 12.3-13.9 16.4-3.3 3.5-6.6 6.9-9.1 9.4-4.5 4.4-5 4.6-5.4 4.7h-1.6zM63.8 74.3c.1 1.6 3.1 33.8 5.1 39.4s18 23.7 20.3 25.2c2.1 1.4 15.8 2.7 18 2.4 2.6-1.7 25.7-26 26.8-28.9 1.2-3.1 4.3-32.6 4.2-38 0-.1.2-8.4-1.2-15.9-1.1-6-4.8-12.4-10-17-6.7-6.1-15.7-9.3-26-9.3-17.7 0-28.9 7-34.3 21.3-2.8 7.5-2.9 19.9-2.9 20.8z"/>
    <path d="M115.55 116.07c.18-.22-.08-.5-.28-.38-.11-.02-.24.02-.28.16-.02.06-.04.11-.06.16-2.25 2.41-5.13 2.38-8.06 1.18-1.75-.72-2.75-.81-4.41.16-1.52.89-2.64.71-4.26.25-.82-.23-1.58-.39-2.42-.19-2.78.69-4.07 4.88-7.37 3.7-.23-.08-.35.19-.25.36-.03.1-.01.21.09.28.79.59 1.66.91 2.55 1.06-.05.1-.04.24.08.32a16.452 16.452 0 0 0 22.95-4.33c.01-.01 0-.02 0-.02.68-.64 1.21-1.47 1.53-2.53.07-.05.14-.11.19-.18zm-21.66 3.06c2.17-1.87 3.47-.92 5.85-.56.75.11 1.36.04 2.05-.26.57-.25 1.05-.69 1.63-.93 1.66-.67 2.46-.03 3.82.53.94.39 1.85.69 2.87.71 1.65.03 3.19-.55 4.43-1.56-.3.6-.68 1.1-1.12 1.5-2.76 2.54-7.99 1.69-11.5 1.81-4.06.13-8.82 3.46-12.67 1.43 1.89.16 3.19-1.42 4.64-2.67zm-2.45 3.79c1.08.08 2.2-.08 3.3-.36 1.28-.33 2.5-.84 3.78-1.18 1.85-.5 3.71-.54 5.61-.48 2.69.09 6.01.12 8.42-1.17-5.17 6.28-14.19 7.69-21.11 3.19z"/>
    <path d="M85 84.8c-1-1.9-3.2-2.7-5.2-2-2.2.8-3.8 3-3.1 5.4.4 1.2 1.5 2.4 2.8 2.7.5.1 1 .1 1.5.1.5.1 1.1 0 1.7-.2 2.4-.9 3.5-3.7 2.3-6z" fill="#fff"/>
    <path d="M83.4 85.8c0-.1 0-.1-.1-.1-.6-1.1-2-1.5-3.1-1 .2.2.4.5.6.7.2.3.5 1 .1 1.2-.4.2-1 0-1.3-.2-.2-.1-.3-.3-.5-.5 0 .1-.1.1-.1.2-.1.2-.1.4-.1.6-.2.7 0 1.4.5 1.9.2.2.5.3.8.4.6.3 1.2.4 1.8.1-.1-.1-.2-.2-.2-.4 0-.3.2-.6.5-.7.3-.1.6 0 .7.2.3-.3.5-.7.6-1.1.2-.3.1-.9-.2-1.3zm-2 5.3H81c-.5 0-1 0-1.4-.1-1.3-.3-2.4-1.4-2.9-2.8-.8-2.5.9-4.8 3.1-5.5 2.1-.8 4.4.1 5.4 2 .6 1.1.7 2.5.2 3.7s-1.4 2.1-2.6 2.5c-.5.2-1 .2-1.4.2zm-.4-.3c.6.1 1.1 0 1.6-.2 1.1-.4 2-1.2 2.4-2.4.4-1.1.4-2.3-.2-3.4-.9-1.8-3.1-2.6-5-1.9-2.1.7-3.7 2.9-3 5.2.4 1.3 1.5 2.3 2.7 2.6.5.1 1 .1 1.5.1z"/>
    <path d="M81.02 74.43c-6.9 0-12.5 5.6-12.5 12.5s5.6 12.5 12.5 12.5 12.5-5.6 12.5-12.5-5.6-12.5-12.5-12.5zm4.54 16.93c-3.76 1.16-8.34-.16-10.67-1.75s-3.88-4.07-3.88-4.07c7.61-1.82 11.41-.23 14.24.93 2.83 1.16 4.19 3.45 4.19 3.45s-.12.28-3.88 1.44z" fill="#fff"/>
    <path d="M89.88 84.61c-.14-.24-.5-.08-.44.18.26 1.17.6 2.33.69 3.53.01.12 0 .23.01.34-1.72-4.58-4.19-7.31-7.36-8.12-5.72-1.48-11.67 3.75-12.75 4.76-2.31.78-4.43.91-5.94.34a.47.47 0 0 0-.61.28c-.09.24.03.52.28.61.79.3 1.64.42 2.49.42 1.39 0 2.77-.32 3.89-.68.06.01.13.01.2-.01 1.1-.32 2.14-.56 3.14-.74-.34.21-.74.42-1.2.63a.47.47 0 0 0-.6-.06c-.13.09-.2.24-.2.39-1.01.37-2.23.64-3.63.64a.47.47 0 1 0 0 .94c1.61 0 2.99-.33 4.12-.75 2.94 3.9 6.63 5.02 9.89 5.02 3.82 0 7.03-1.52 7.72-1.88.22.29.35.49.38.53.03.05.07.08.11.11 0 .15-.01.3-.01.45.01.25.4.41.52.14.9-2.08.47-5.16-.7-7.07zm-17.02 2.32c1.58-.75 2.49-1.62 2.55-1.68 0 0 0-.01.01-.01 7.54-.73 11.74 2.56 13.51 4.47-1.75.88-10.32 4.62-16.07-2.78zm-.78-2.1c1.89-1.45 5.24-3.59 8.63-3.59.61 0 1.23.07 1.84.23 2.76.71 4.96 3.11 6.55 7.13-2.48-2.36-7.87-5.8-17.02-3.77z"/>
    <path d="M123.4 84.8c-1-1.9-3.2-2.7-5.2-2-2.2.8-3.8 3-3.1 5.4.4 1.2 1.5 2.4 2.8 2.7.4.1.9.1 1.4.1.5.1 1.1 0 1.7-.2 2.5-.9 3.6-3.7 2.4-6z" fill="#fff"/>
    <path d="M121.8 85.8c0-.1 0-.1-.1-.1-.6-1.1-2-1.5-3.1-1 .2.2.4.5.6.7.2.3.5 1 .1 1.2-.4.2-1 0-1.3-.2-.2-.1-.3-.3-.5-.5 0 .1-.1.1-.1.2-.1.2-.1.4-.1.6-.2.7 0 1.4.5 1.9.2.2.5.3.8.4.6.3 1.2.4 1.8.1-.1-.1-.2-.2-.2-.4 0-.3.2-.6.5-.7.3-.1.6 0 .7.2.3-.3.5-.7.6-1.1.2-.3 0-.9-.2-1.3zm-2.1 5.3h-.4c-.5 0-1 0-1.4-.1-1.3-.3-2.4-1.4-2.9-2.8-.8-2.5.9-4.8 3.1-5.5 2.1-.8 4.4.1 5.4 2 .6 1.1.7 2.5.2 3.7s-1.4 2.1-2.6 2.5c-.5.2-.9.2-1.4.2zm-.3-.3c.6.1 1.1 0 1.6-.2 1.1-.4 2-1.2 2.4-2.4.4-1.1.4-2.3-.2-3.4-.9-1.8-3.1-2.6-5-1.9-2.1.7-3.7 2.9-3 5.2.4 1.3 1.5 2.3 2.7 2.6.5.1 1 .1 1.5.1z"/>
    <path d="M118.98 74.43c-6.9 0-12.5 5.6-12.5 12.5s5.6 12.5 12.5 12.5 12.5-5.6 12.5-12.5-5.59-12.5-12.5-12.5zm6.4 15.19c-2.33 1.59-6.91 2.91-10.67 1.75-3.76-1.16-3.88-1.44-3.88-1.44s1.36-2.29 4.19-3.45c2.83-1.16 6.64-2.75 14.24-.93 0-.01-1.55 2.48-3.88 4.07z" fill="#fff"/>
    <path d="M136.79 85.93a.474.474 0 0 0-.61-.28c-1.51.57-3.63.43-5.94-.34-1.08-1.01-7.03-6.24-12.75-4.76-3.6.93-6.29 4.31-8.02 10.06a.471.471 0 0 0 .45.61c.16 0 .32-.08.4-.23.03-.05.16-.25.38-.53.69.35 3.9 1.88 7.72 1.88 3.26 0 6.95-1.12 9.89-5.02 1.13.43 2.51.75 4.12.75a.47.47 0 1 0 0-.94c-1.4 0-2.62-.28-3.63-.64 0-.15-.06-.3-.2-.39a.47.47 0 0 0-.6.06c-.46-.21-.86-.43-1.2-.63 1 .18 2.04.41 3.14.74.07.02.13.02.2.01 1.12.36 2.5.68 3.89.68.84 0 1.69-.12 2.49-.42.24-.1.36-.37.27-.61zm-11.93-.67c.07.06.97.93 2.55 1.68-5.75 7.39-14.32 3.66-16.07 2.78 1.77-1.92 5.97-5.21 13.52-4.46-.01-.01-.01-.01 0 0zm-13.69 3.33c1.59-4.02 3.79-6.42 6.55-7.13.61-.16 1.22-.23 1.84-.23 3.39 0 6.75 2.14 8.63 3.59-9.15-2.02-14.55 1.42-17.02 3.77z"/>
    <path d="M74.33 71.59c1.52-.07 17.06 3.38 17.49 4.03.43.65-.65 3.02-1.15 3.17-.5.14-15.19-4.53-15.83-4.39-.65.14-6.91 2.59-7.34 2.38-.44-.22 5.32-5.12 6.83-5.19z" fill="#fff"/>
    <path d="M67.28 77.2c.35.18.9.08 5.66-1.64.84-.31 1.71-.62 1.97-.69.63.05 4.8 1.29 8.16 2.29 5.89 1.75 7.16 2.1 7.6 2.1.06 0 .11-.01.15-.02.67-.19 1.21-1.59 1.31-1.87.24-.64.45-1.52.11-2.03-.69-1.04-16.86-4.29-17.91-4.24-1.63.08-7.13 4.66-7.31 5.5-.07.26.04.49.26.6zm7.07-5.13c.13-.01.37.01.68.06l2.07 2.3c-1.61-.45-2.16-.55-2.37-.5-.03.01-.08.02-.12.04l-2.21-.88c.86-.59 1.6-1 1.95-1.02zm3.91 2.69-2.22-2.47c.77.13 1.74.32 2.82.54l1.57 2.56c-.84-.25-1.56-.46-2.17-.63zm3.08.9-1.63-2.65c.72.15 1.47.31 2.23.48l.63 2.53c-.43-.13-.84-.25-1.23-.36zm6.77 1.99c-.33-.1-.68-.2-1.05-.3l.67-2.5c.48.12.93.24 1.34.35l-.96 2.45zm1.59-2.28c.3.08.57.16.81.23l-.96 2.45c-.24-.07-.52-.14-.81-.22l.96-2.46zm-3.25 1.8c-.48-.14-.98-.29-1.48-.44l.38-2.46c.61.14 1.2.29 1.76.43l-.66 2.47zm4.1 1.13c-.09-.01-.22-.04-.37-.08l.95-2.41c.14.05.25.09.32.13.11.44-.52 1.99-.9 2.36zm-7.22-2.05c-.01 0-.03-.01-.04-.01l-.65-2.59c.7.16 1.4.32 2.08.48l-.37 2.43c-.34-.11-.69-.22-1.02-.31zm-10.72-1.59c-.12.04-.25.09-.39.14-.53.02-1.48.07-2.24.11.57-.47 1.19-.95 1.79-1.38l1.9.75c-.3.1-.63.23-1.06.38zm-3.91 1.36c.14-.13.31-.28.48-.43.27-.01.6-.03.96-.05-.52.18-1.02.35-1.44.48z"/>
    <path d="M125.67 71.59c-1.52-.07-17.06 3.38-17.49 4.03-.43.65.65 3.02 1.15 3.17.5.14 15.19-4.53 15.83-4.39.65.14 6.91 2.59 7.34 2.38s-5.32-5.12-6.83-5.19z" fill="#fff"/>
    <path d="M133 76.61c-.18-.84-5.68-5.42-7.31-5.5-1.06-.05-17.22 3.2-17.91 4.24-.34.51-.13 1.39.11 2.03.1.28.65 1.68 1.31 1.87.04.01.08.02.15.02.43 0 1.71-.35 7.6-2.1 3.36-1 7.53-2.24 8.16-2.29.25.07 1.12.38 1.97.69 4.76 1.72 5.3 1.81 5.66 1.64.2-.12.31-.35.26-.6zm-5.4-3.52-2.21.88c-.04-.01-.09-.03-.12-.04-.21-.05-.76.06-2.37.5l2.07-2.3c.31-.04.55-.06.68-.06.35.02 1.09.43 1.95 1.02zm-8.02 2.3 1.57-2.56c1.08-.22 2.05-.41 2.82-.54l-2.22 2.47c-.62.17-1.34.38-2.17.63zm-2.16.63.63-2.53c.76-.17 1.51-.33 2.23-.48l-1.63 2.65c-.38.11-.79.23-1.23.36zm-6.5-.82c.41-.11.86-.23 1.34-.35l.67 2.5c-.37.11-.72.21-1.05.3l-.96-2.45zm.35 2.63c-.3.08-.57.16-.81.22l-.96-2.45c.24-.07.51-.15.81-.23l.96 2.46zm1.61-3.13c.56-.14 1.15-.28 1.76-.43l.38 2.46c-.5.15-.99.29-1.48.44l-.66-2.47zm-4.32 1.23c.07-.04.18-.08.32-.13l.95 2.41c-.16.04-.29.07-.37.08-.39-.36-1.02-1.91-.9-2.36zm7.09.62-.37-2.43c.68-.16 1.38-.32 2.08-.48l-.65 2.59c-.01 0-.03.01-.04.01-.33.1-.68.21-1.02.31zm10.68-2.27 1.9-.75c.6.43 1.22.92 1.79 1.38-.76-.04-1.71-.09-2.24-.11-.14-.05-.27-.1-.39-.14-.43-.15-.76-.28-1.06-.38zm3.54 1.26c.36.02.68.03.96.05.17.15.33.3.48.43-.43-.13-.93-.3-1.44-.48zM102.5 106.1c-.6 1.6-1.5 3.8-3.6 3.5s-2.3-2.7-2.4-4.4c-.2-2.9-.3-5.9-.2-8.8.1-6.2.8-12.4 2-18.5.1-.8-1-1.1-1.2-.3-1.6 8.3-2.3 16.7-2 25.1 0 1.1 0 2.4.2 3.7-.3-.2-.7-.2-.9.2v.1c-.1-.1-.3-.1-.5-.1-.7.1-1.5.3-1.9 1-.3.5-.3 1.3.1 1.7 1.3 1.4 2.7-1 3.3-2 .3 1.6 1 3 2.6 3.5 2.9 1.1 4.7-2.1 5.6-4.3.4-.8-.8-1.1-1.1-.4zm-9.4 2.3c-.1 0 .1-.3.1-.4.1-.1.3-.2.4-.2-.1.2-.4.6-.5.6zM108 108.2c-.3-1.3-1.4-2.1-2.7-2.3-.3-.3-.8-.4-1 0-.5.2-.4.8 0 1.1.3 1.4 1.7 2.5 3.3 1.9.3-.1.5-.4.4-.7zm-2.4-1c.3.1.6.3.8.6-.3-.1-.6-.3-.8-.6z"/>
    <path d="M64.1 82.8S68 57 76.2 53c0 0 6.1-.2 11.4-2 0 0 12.3 5.9 28.4-.2 0 0 6.8 3.9 12.9 3.3 0 0 6.1 5.7 10 27.6 0 0 4.1-9.6 2-21.7-2-12.1-8.2-17.4-8.2-17.4s-1.6-10.2-8.2-13.9-10.6-2-10.6-2-1.8-3.5-7.8-5.5-16.1-2-20.4 2.9c0 0-10-1.4-16.2 13.9 0 0-8.4 9.2-9 25.8-.4 13.1 3.6 19 3.6 19z" fill="#fff"/>
    <path d="M141.9 59.7c-1.9-11-7-16.5-8.2-17.7-.4-1.9-2.4-10.8-8.6-14.3-5.3-3-9.1-2.7-10.7-2.3-.9-1.2-3.2-3.7-7.9-5.3-5.8-2-16.3-2-21.2 3-2.3-.1-11 .5-16.6 14.4-1.1 1.3-8.5 10.4-9.1 26.3-.5 13.2 3.5 19.4 3.6 19.6.2.3.5.4.8.4h.2c.4-.1.7-.4.8-.8 1.1-7 5.1-25.6 11.3-29 1.2-.1 6.4-.4 11.1-2 1.1.5 4.1 1.6 8.6 2.2.2.1.3.1.5 0 2.3.3 5 .4 7.9.1 3.5-.3 7.3-1 11.4-2.6 1.6.8 7.2 3.5 12.6 3.2 1.2 1.4 6.1 8.1 9.4 26.7.1.4.4.8.9.8s.9-.2 1-.6c.3-.2 4.3-9.9 2.2-22.1zm-6.7 3.9c1.5-4.1 2.1-8.3 2.1-12.5.7 1.7 1.4 3.6 2 5.8-.1 4.1-.8 8.1-2.3 11.9-.6-2-1.2-3.7-1.8-5.2zm-3.3-7.2c2-2.8 3.1-6 3.3-9.3.2.4.5.8.8 1.2.5 4.6 0 9.1-1.3 13.5-1.1-2.3-2.1-4.1-2.8-5.4zM126 30.9c2.5 7.7.4 15.4-5.8 20.6-.2-.1-.3-.1-.5-.2 3-3.2 2.4-9.4 2-13.3-.4-4-1.2-8.4-4.3-10.8 1.7.1 4 .7 6.7 2.2.7.5 1.3.9 1.9 1.5zm-9.4 19c2.7-7.5 2.2-15.4-1.4-22.4 4.6 1.9 5.2 8.1 5.4 12.3.2 3.2.6 8.6-2.1 11-1.1-.5-1.8-.8-1.9-.9zM113.1 27c.1.3.4.4.7.5 3.8 7 4.3 14.9 1.5 22.4-1.3.5-2.5.9-3.8 1.2 2.8-9.7 1.3-20-4-28.5 4.1 1.9 5.6 4.4 5.6 4.4zm-7.4 25.2c3.3-10.4 2.2-21.4-2.9-31 1 .2 1.9.4 2.7.6 6.1 8.8 7.8 19.4 4.6 29.6-1.6.4-3 .6-4.4.8zm-9.5-.1c-6-9.6-6.3-21.1-.8-31.1.6-.1 1.2-.1 1.8-.1-.6 10.6-.1 21.1 1.4 31.5-.8-.1-1.7-.2-2.4-.3zm-7.6-1.8c-7.3-7.1-8.1-17.7-1.9-25.7 1.7-1.8 4.3-2.8 7.1-3.3-5.1 9.9-4.8 21.1.7 30.7-2.8-.6-4.9-1.4-5.9-1.7zm-7.1 1.1c-5.4-7.8-8.1-18.5-.4-25.5 1.6-.6 2.9-.8 3.7-.8-5.2 8-4.5 17.9 1.9 25-1.7.6-3.5 1-5.2 1.3zm-3.7-23.6c-4.8 7.1-2.6 16.5 2.3 23.8-1.4.2-2.7.3-3.4.3-4-3.7-6.1-8.7-6-14.1 2.2-5.1 4.8-8.2 7.1-10zM68.5 62c-2.3-5.2-3.1-10.8-2.4-16.5.3-.7.7-1.4 1-2 .1 4.5 1.6 8.8 4.6 12.4-1.2 1.7-2.3 3.8-3.2 6.1zm-1.9 5.5c-1.9-5.2-2.8-10.5-2.9-16l.9-2.7c-.1 5.1 1 10.1 3.3 14.8-.5 1.3-1 2.6-1.3 3.9zm-3 12c-1-2.9-2.3-8-2-15.7.1-3 .5-5.8 1-8.3.4 4.8 1.5 9.4 3.4 13.9-1.1 3.9-1.9 7.6-2.4 10.1zm8.8-24.6c-3.1-3.9-4.5-8.7-4-13.6.4-.7.8-1.2 1.2-1.7.4 4.8 2.4 9.2 5.8 12.6-1.1.6-2.1 1.5-3 2.7zm27.5-2.5c-1.6-10.5-2.1-21-1.4-31.6.9 0 1.8.1 2.7.2 5.5 9.6 6.6 20.8 3.2 31.3-1.6.2-3.1.2-4.5.1zm21.6-.4c5.6-4.9 7.8-11.9 6.4-19 1.9 2.7 3 5.9 3.5 7.9.1 4.3-.1 8.9-3.2 12.1-2.3.1-4.7-.4-6.7-1zm8.1 1.3c2.2-2.7 2.9-6.1 3-9.5.3.3.7.8 1.2 1.5.2 3.6-.7 7-2.7 10-.8-1.3-1.4-1.9-1.5-2zm9.5 24.2c-.5-2.5-1.1-4.8-1.6-6.8 1.3-3 2.2-6.1 2.7-9.2.9 6.6-.1 12.5-1.1 16z"/>
</svg>
