<svg xmlns="http://www.w3.org/2000/svg" width="600" height="600" viewBox="0 0 200 200" style="overflow:hidden!important">
    <path d="M0 0h200v200H0V0z" fill="#ecf0f1"/>
    <path d="M77.6 118.3c0 19.3 3.4 44.1-10 51.9-13.4 7.9-31.9 11.3-37.8 22s-4.4 25.3-4.4 25.3h149.3s.7-18.9-5.1-26.4c-8.1-10.4-27.8-15.5-37.7-20.9s-13.4-25.1-13.4-52.4l-40.9.5z" fill="#fff"/>
    <path d="M175.8 218.7H24.4l-.1-1c-.1-.6-1.5-15.1 4.5-26 4.1-7.4 13.5-11.3 23.5-15.5 5-2.1 10.2-4.3 14.8-6.9 10.6-6.2 10.1-23.9 9.6-41-.1-3.5-.2-6.8-.2-10v-1.1l43.2-.4v1.1c0 29.9 4.2 46.7 12.8 51.4 2.9 1.6 6.7 3.2 10.8 4.9 10 4.1 21.3 8.8 27.2 16.3 6.1 7.7 5.4 26.4 5.4 27.1l-.1 1.1zm-149.3-2.2h147.1c0-4.1-.2-18.5-4.9-24.6-5.5-7-16.6-11.6-26.3-15.6-4.1-1.7-8-3.3-11-5-5.1-2.8-8.7-8.9-10.9-18.7-2-8.4-2.9-19.4-3-33.5l-38.6.4c0 2.8.1 5.7.2 8.8.5 17.8 1 36.1-10.7 43-4.7 2.7-9.9 4.9-15 7.1-9.6 4-18.7 7.8-22.4 14.5-5 8.6-4.7 20.1-4.5 23.6z"/>
    <path d="M93.9 153.8c-.5 1.8-.4 3.4.5 5.2.8 1.6 2.1 2.7 3.9 2.9.4 0 .7-.5.5-.8-1.6-2.2-3.5-4.2-3.7-7.1 0-.7-1-.9-1.2-.2zM112.5 187.5c8.8.5 18.1-.7 26.6-2.9.7-.2.6-1.4-.2-1.3-8.8 1.1-17.7 2-26.5 3.3-.5.1-.3.9.1.9zM63.1 182.5c3.8.9 7.6 1.9 11.5 2.8 3.6.8 7.4 2 11.1 2.1.7 0 .8-.9.2-1.2-3.5-1.4-7.5-1.7-11.2-2.5-3.8-.7-7.5-1.3-11.3-2-.5 0-.7.7-.3.8z"/>
    <path d="M77.6 140.5s-8.6 2.8-13.1 5.9-5.6 10-5.6 10-2.3-3.3-4.5 1.9-1.8 5.6-4 7.9c-2.3 2.3-1 6.8-.2 7.9 0 0-4 2.8-8.4 4s-10.3 4.2-12.1 6.6-9.6 12.8-5.6 34h153.6s0-21-3-27.5-7.7-7.5-7.7-7.5-9.8-7-11.7-8.2-11-4.2-11-4.2-.5-4.2-1.2-7.2-4.6-8.1-6.6-8.4c-2.1-.4-3-2.8-5.6-7-2.6-4.2-5.8-6.5-7.3-7-1.6-.5-3.3-.2-3.3-.2s1.2 8.9 1.2 13.6-.9 7.7-4.6 12.2c-3.7 4.6-6.1 5.8-11.4 9.3s-6.3 5.4-6.3 5.4-3.2-5.1-8.8-8.6S83 166 79 162.5s-1.1-6.1-1.4-11.2c-.3-5.1 0-10.8 0-10.8z" fill="#fff"/>
    <path d="M175.6 190.8c-2.8-6.1-7.1-7.7-8.2-8-1.3-.9-9.8-7-11.6-8.1-1.8-1.1-8.5-3.4-10.6-4.1-.2-1.3-.6-4.3-1.2-6.6-.7-3-4.7-8.7-7.5-9.1-1.1-.2-1.8-1.3-3.3-3.9-.5-.8-1-1.6-1.6-2.6-2.6-4.2-5.9-6.8-7.9-7.4-1.8-.6-3.8-.2-3.8-.2-.5.1-.9.6-.8 1.1 0 .1 1.2 8.9 1.2 13.5 0 4.2-.7 7.1-4.3 11.6-3 3.8-5.1 5.1-9 7.6-.7.4-1.4.9-2.2 1.4-3.1 2.1-4.8 3.6-5.7 4.6-1.3-1.8-4.1-5.1-8.3-7.7-3.3-2.1-5.2-4.4-7.1-6.6-1.2-1.4-2.5-2.9-4.1-4.4-2.2-1.9-1.9-3.4-1.5-5.7.3-1.4.6-2.9.4-4.8-.3-4.9 0-10.7 0-10.7 0-.3-.1-.6-.4-.9-.3-.2-.6-.3-.9-.2-.4.1-8.8 2.9-13.4 6.1-3.5 2.4-5 6.7-5.7 9-.4-.2-.8-.3-1.3-.2-1.4.1-2.5 1.3-3.5 3.6-.7 1.7-1.2 2.9-1.5 3.8-.7 1.9-.9 2.4-2.3 3.8-2.2 2.2-1.7 6.2-.8 8.3-1.3.8-4.3 2.5-7.3 3.4-4.6 1.3-10.7 4.3-12.6 7l-.1.2c-6.4 8.9-8.3 20.6-5.6 34.6.1.5.5.8 1 .8h153.6c.6 0 1-.4 1-1 0-1.2-.1-21.6-3.1-28.2zm-33-23.6c.3 1.9.6 3.7.6 4.1 0 .2-.1.8-.6 1.6.3-1.8.2-3.8 0-5.7zm-20.7-19.4c.5.2 1.2.5 1.9.9-.2.1-.3.1-.5.1l-1.2.3c-.2-.5-.2-.9-.2-1.3zm-.1 12.5h1.5c-.6.4-1.3 1-2 1.6.2-.5.4-1 .5-1.6zm4.2-3.1c-1.2.1-2.6.4-3.8.6.1-.5.1-1 .1-1.5 1.3-.1 2.7-.3 3.9-.5 0 .5-.1 1-.2 1.4zm.1-5c.1.5.1.9.1 1.3-1.3 0-2.7.4-3.9.8 0-.5 0-1-.1-1.5 1.3-.2 2.7-.3 3.9-.6zm-3.8 3.6v-1.1c.7-.2 1.4-.3 2.2-.4.6-.1 1.2-.1 1.8-.2v1.1c-1.3 0-2.7.3-4 .6zm-.1-3.5c0-.4-.1-.8-.1-1.1.6-.1 1.1-.1 1.7-.2.6-.1 1.2-.2 1.7-.3.2.3.3.6.4 1-1.2 0-2.5.3-3.7.6zm1.9-2c-.6.1-1.3.2-1.9.4 0-.3-.1-.7-.1-1 .4-.1.9-.2 1.3-.3.3-.1.7-.1 1-.3l.9.9c-.5.1-.9.2-1.2.3zm-1.9 8c1.1-.1 2.4-.2 3.5-.4-.3.7-.9 1.3-1.6 1.8-.7 0-1.5.1-2.2.1l.3-1.5zM76 159.6c-1.2-1.1-2.3-2.2-2.7-3.1-.1-.1-.1-.2-.1-.4.9.7 1.8 1.5 2.8 2.1-.1.5-.1 1 0 1.4zm-.5-10.9c.3.4.7.7 1.1 1 0 .4 0 .9.1 1.3-.3-.2-.5-.4-.8-.6-.4-.3-.7-.6-1.1-.9.1-.2.4-.5.7-.8zm.3-.3c.2-.2.4-.3.6-.4v1c-.1-.2-.3-.4-.6-.6zm-1.4 1.5c.4.4.8.7 1.2 1 .3.3.6.6 1 .8v1c-.8-.7-1.8-1.4-2.7-2 .2-.2.3-.5.5-.8zm-.7 1.4c.9.8 1.8 1.7 2.8 2.3 0 .3-.1.6-.1.9-.4-.3-.9-.6-1.4-.9-.6-.4-1.2-.8-1.7-1.2.1-.4.3-.8.4-1.1zm-.5 1.5c.5.4 1.1.8 1.6 1.2.5.4 1 .8 1.6 1.1 0 .2-.1.4-.1.5 0 .1-.1.3-.1.4-.5-.3-1-.6-1.4-.9l-1.8-1.2c0-.3.1-.7.2-1.1zm2.7 4.8c-.9-.8-1.9-1.5-2.9-2.1v-1c.4.4.9.7 1.4 1.1.5.4 1.1.8 1.7 1.2-.1.2-.1.5-.2.8zm-22.1 4.8c.3-.9.8-2 1.5-3.7.9-2.1 1.6-2.3 1.8-2.4.3 0 .6.2.8.4.1 2.2 1.5 13.1 16.7 21.5.2.1.3.1.5.1.3 0 .7-.2.8-.5.1.2.2.5.3.7.1.1.3.1.3-.1-.2-2-.6-3.7-.3-5.7 0-.2-.3-.4-.4-.1-.2 1.2-.4 2.5-.2 3.8l-.1-.1c-.1-.1-.2-.1-.3-.2-.3-1.7-.5-3.3-.4-5 0-.3-.4-.3-.4 0-.2 1.5-.2 3.1.1 4.6-.4-.3-.9-.5-1.3-.8-.2-.5-.3-1.1-.4-1.6-.2-1.1-.1-2.1.1-3.1 0-.2-.3-.3-.3-.1-.3 1.3-.4 3 0 4.4-.4-.2-.7-.5-1-.7-.1-2.3-.2-4.5.1-6.8 0-.3-.4-.2-.4 0-.3 2.1-.4 4.2-.2 6.4-.6-.4-1.2-.9-1.7-1.4-.1-2.1-.1-4.2.3-6.4 0-.2-.2-.3-.3-.1-.5 2-.7 4-.6 6-.4-.4-.8-.8-1.2-1.1 0-1-.1-2.1 0-3.1.1-1.4.4-2.8.8-4.1.1-.2-.2-.3-.3-.1-.7 2-1.3 4.5-1 6.7-.4-.4-.7-.8-1.1-1.1-.2-1 .2-3.2.2-3.5.2-1.4.5-2.7 1-4 .1-.2-.2-.2-.3-.1-.8 2.3-1.3 4.7-1.4 7.1-.3-.3-.5-.6-.8-1 .1-.1.1-.2.1-.2.1-.1-.1-.3-.2-.2.2-2.9.8-5.8 1.8-8.5.1-.2-.2-.3-.3-.1-1 2.7-1.7 5.5-1.9 8.3-.3-.5-.6-.9-.9-1.4.7-2.8 1.1-5.7 2.1-8.5.1-.3-.3-.4-.4-.1-.9 2.5-1.8 5.3-2 8-.4-.6-.7-1.2-1-1.8.7-3 1.1-5.8 2.5-8.6.1-.2-.2-.4-.3-.2-1.3 2.4-2.4 5.3-2.6 8.1-.3-.8-.6-1.6-.8-2.2 1.2-2.8 1.9-5.8 3.1-8.6.1-.2-.2-.4-.3-.2-1.2 2.5-2.6 5.3-3.1 8-.3-1.4-.4-2.3-.4-2.6 1.2-2.5 2.1-5.1 3.3-7.6.5-.6 1.1-1.2 1.8-1.7 3.3-2.3 8.9-4.4 11.5-5.3 0 1-.1 2.4-.1 3.9-1.9.7-3.5 2.3-4.5 4.5-1.1 2.5-1.3 5.3-.5 7.1 1.1 2.4 5.2 5.4 8.7 7.8.3.2.5.3.6.4l1.5 1.8c2 2.3 4 4.8 7.6 7 5.3 3.3 8.4 8.2 8.4 8.2.2.3.5.5.9.5.3 0 .7-.2.8-.5 0 0 1.1-1.8 6-5.1.8-.5 1.5-1 2.2-1.4 3.2-2.1 5.4-3.5 7.8-6.2.2 0 .4-.1.5-.3.1-.1 5.5-6.1 8.3-7.9 3.5-2.4 3.9-5.5 3.3-9.8-.6-4.3-5-5.9-6.5-6.3-.2-1.3-.3-2.4-.4-3.2.5 0 1.2 0 1.9.2 1.4.5 4.3 2.6 6.8 6.6.6.9 1.1 1.8 1.5 2.6 0 0 0 .1.1.1l-.7-.7c-.1-.1-.3.1-.2.2.7.8 1.3 1.7 2 2.5v.1s.3 1.1.3 2.9c-.5-.8-1.1-1.6-1.4-2.5-.1-.2-.4-.1-.4.1.4 1.2.9 2.4 1.8 3.3 0 .3 0 .7-.1 1.1-.5-.7-1.1-1.3-1.5-1.9-.1-.2-.5 0-.3.2.5.7.9 1.4 1.4 2.1.1.2.2.3.3.5-.1.6-.2 1.2-.3 1.9-.5-.6-1-1.2-1.4-1.8-.1-.2-.4.1-.3.2.5.7 1 1.6 1.6 2.3-.1.5-.3 1.1-.6 1.7-.2-.4-.4-.9-.5-1.3-.1-.2-.5-.1-.4.1.2.6.4 1.4.6 2.1-.2.5-.5 1.1-.9 1.6-.1-.3-.1-.6-.1-.9 0-.3-.4-.3-.4 0 0 .5.1 1.1.1 1.6-.4.5-.8 1.1-1.2 1.6-.1-.6-.2-1.3-.3-1.9 0-.2-.4-.2-.4.1.1.8.1 1.6.2 2.3-.4.4-.8.9-1.2 1.3 0-.8-.1-1.5-.2-2.3 0-.3-.4-.3-.4 0 0 .9-.1 1.9 0 2.9-.3.3-.6.6-.9.8 0-.2 0-.5-.1-.7 0-.8-.1-1.5-.1-2.2 0-.3-.4-.3-.4 0 0 .8 0 1.5.1 2.2v1.2c-.4.4-.9.7-1.3 1.1 0-.2-.1-.4-.1-.7 0-.6 0-1.1.1-1.7 0-.3-.3-.4-.4-.1-.2.9-.4 2-.1 2.9-.3.3-.7.5-1 .8 0-.4-.1-.8-.1-1.2 0-.3-.5-.3-.5 0v1.6c-.4.3-.7.5-1.1.8 0-.4-.1-.9-.1-1.3 0-.3-.5-.3-.5 0 0 .6 0 1.1.1 1.6-.4.3-.8.5-1.1.7v-1.8c0-.3-.4-.3-.4 0 0 .6-.1 1.1-.1 1.7v.5c-.4.2-.7.4-1.1.6v-1.4c0-.3-.4-.2-.4 0-.1.5-.1 1.1-.1 1.6-.2.1-.5.2-.7.3-.1 0-.1 0-.1.1 0-.4.1-.7.1-1.1 0-.2-.4-.2-.4 0-.1.4-.1.8-.2 1.3-.3.1-.7.3-1 .4v-1.3c0-.2-.4-.2-.4 0 0 .5-.1 1-.2 1.5-.5.2-1 .4-1.4.5v-1c0-.3-.4-.3-.4 0 0 .4-.1.8-.1 1.2-.3.1-.6.2-.8.3 0-.4.1-.7.1-1.1 0-.2-.4-.3-.4-.1-.1.4-.1.9-.2 1.3-.2.1-.4.1-.4.1-.5.2-.8.7-.7 1.2.1.4.5.7 1 .7h.3c.1 0 1.5-.5 4.4-1.6v.1c0 .2.3.1.3 0s0-.1.1-.2c.4-.1.7-.3 1.1-.4 3.7-1.5 13.6-8.3 16.3-15 1.5-3.6 1.7-6.9 1.6-9 .4.2.8.4 1.2.4 1.4.2 5 4.6 5.8 7.4-.1 0-.2.1-.2.2.3 3.2.1 6.4.2 9.5-.2.2-.4.5-.6.7v-8.7c0-.2-.4-.2-.4 0-.1 3.1-.2 6.2-.2 9.3l-.5.5c0-2.4-.3-4.8-.4-7.2 0-.2-.4-.3-.4 0 .1 2.6-.1 5.2.2 7.8-.2.1-.4.3-.5.4.1-2 0-4.1-.1-6.1 0-.2-.4-.2-.4 0-.1 2.2-.4 4.5-.3 6.7-.2.2-.5.3-.7.5.2-2 .1-4 0-6 0-.2-.4-.2-.4 0 0 2.1-.2 4.3-.3 6.4-.4.2-.9.5-1.4.7.2-1.9 0-3.9 0-5.8 0-.3-.4-.3-.4 0-.1 2-.3 4.1-.2 6.1-.4.2-.8.4-1.3.6.2-1.3.2-2.7.3-4 0-.3-.4-.3-.4 0-.2 1.4-.5 2.9-.6 4.3-.4.2-.9.4-1.3.5.2-1.4.2-2.9.6-4.3.1-.3-.4-.4-.4-.1-.3 1.4-.8 3.1-.9 4.7-.5.2-.9.3-1.4.5.1-1.2 0-2.6.1-3.8 0-.3-.4-.3-.4 0-.1 1.2-.4 2.7-.3 4-.6.2-1.3.4-1.9.7 0-.4 0-.9.1-1.3.1-.9.3-1.7.6-2.5.1-.2-.3-.3-.4-.1-.5 1.2-1 2.7-1 4.1l-.9.3v-.1c.1-.7.1-1.4 0-2.1 0-.3-.5-.3-.5 0 0 .7 0 1.3-.1 2 0 .1-.1.3-.1.5-.4.1-.8.3-1.2.4.1-.6.1-1.2.1-1.8 0-.3-.4-.3-.5 0-.1.6-.2 1.3-.3 2-.5.1-1 .3-1.5.5v-1c0-.3-.5-.3-.4 0v1.2c-.5.2-1 .3-1.5.5.1-.5.3-1.1.4-1.6.1-.3-.3-.4-.4-.1-.2.6-.4 1.3-.6 1.9-.4.1-.8.2-1.2.4.1-.6.2-1.1.3-1.6.1-.3-.4-.4-.4-.1-.2.6-.4 1.3-.5 1.9-.2.1-.4.1-.6.2.1-.4.2-.9.4-1.3.1-.2-.3-.4-.4-.1-.2.5-.4 1-.6 1.6-.2.1-.3.1-.5.1 0-.2.1-.4.1-.6.1-.2-.3-.3-.3-.1-.1.3-.2.5-.3.8-.5.1-.9.3-1.3.4 0-.1-.2-.2-.3 0 0 .1-.1.1-.1.1-.8.2-1.6.4-2.2.6-1.6.4-2.7.8-3.1.9-.3.1-1.2.2-2.4.2-.2-1.3-.6-2.7-1.5-4.8-.2-.5-.8-.7-1.3-.5s-.7.8-.5 1.3c.8 1.7 1.1 2.9 1.3 3.9H101c-.3-.4-.6-.7-1-1-.2-.2-.5.1-.3.3l.7.7h-1.2c-.2-.2-.4-.5-.6-.7-.4-.6-.7-1.2-.9-1.9-.1-.3-.5-.2-.4.1.2.8.6 1.7 1.1 2.5-.4 0-.9 0-1.3-.1-.1-1.8-.1-3.5-.1-4.4 0-.6-.4-1-1-1s-1 .4-1 1c0 .4 0 2.2.1 4.3h-.2c-.3-.4-.7-.8-.9-1.3-.4-.7-.6-1.5-.7-2.3 0-.2-.4-.3-.4 0 .1 1.1.4 2.6 1.2 3.5-.5 0-.9-.1-1.4-.1-.2-.4-.5-.9-.7-1.3-.3-.7-.5-1.5-.5-2.3 0-.2-.4-.3-.4 0 0 1.1.3 2.6 1 3.6-.3 0-.5 0-.8-.1-.2-.6-.7-1.1-.9-1.7-.3-.7-.4-1.4-.4-2.1 0-.3-.4-.3-.4 0-.1 1.1.2 2.9 1.1 3.8-.4 0-.8-.1-1.3-.1-.3-.6-.8-1.2-1.1-1.8-.3-.8-.5-1.6-.5-2.4 0-.3-.4-.3-.4 0 0 1.3.3 3.1 1.3 4.1-.6-.1-1.2-.1-1.8-.2-.3-.4-.5-.9-.7-1.4-.3-.8-.4-1.6-.5-2.4 0-.3-.5-.3-.4 0 0 1.2.3 2.6.9 3.7-.4-.1-.9-.1-1.3-.2-.2-.4-.5-.9-.7-1.4-.3-.8-.5-1.5-.5-2.3 0-.3-.4-.3-.4 0 .1 1.2.3 2.5 1 3.6-.5-.1-.9-.1-1.3-.2-.4-.6-.8-1.1-1-1.7-.4-.8-.6-1.7-.8-2.6 0-.2-.4-.1-.3.1.1 1.3.5 3 1.3 4.1-.7-.1-1.3-.3-1.8-.4-1-1.4-1.8-2.7-2.2-4.5-.1-.2-.3-.1-.3.1.2 1.4.8 2.9 1.7 4.1-.2-.1-.5-.2-.6-.3-.3-.2-.8-.4-1.3-.6-.7-1.5-1.4-3-1.8-4.7-.1-.3-.5-.2-.4.1.2 1.4.6 2.9 1.3 4.1-.3-.1-.7-.3-1-.4-.8-1.6-1.6-3-1.9-4.9 0-.2-.4-.2-.4.1.2 1.5.6 3.2 1.4 4.5-.3-.1-.6-.2-.9-.4-.4-.8-.8-1.5-1.1-2.2-.4-1.1-.7-2.2-.8-3.3 0-.3-.5-.2-.5.1.2 1.6.6 3.6 1.5 5.1l-1.5-.6c-.3-.7-.7-1.3-1-2-.4-.9-.7-1.9-.9-2.9-.1-.3-.5-.2-.4.1.3 1.4.7 3.2 1.6 4.5-.2-.1-.4-.1-.5-.2-.5-.2-1-.4-1.6-.6-.9-1.5-1.5-3-1.8-4.8 0-.2-.4-.2-.4.1 0 1.5.5 3.1 1.3 4.4-.7-.3-1.4-.6-2.1-.8-.8-1.7-1.5-3.4-1.7-5.3 0-.3-.4-.3-.4 0 .1 1.7.5 3.5 1.3 5-.4-.2-.8-.3-1.2-.5-.5-.8-1-1.5-1.4-2.4-.5-1.2-.8-2.5-.9-3.8 0-.3-.4-.3-.4 0 .1 1.9.6 4.1 1.7 5.8-.6-.3-1.3-.5-1.9-.8-1.2-2.1-2.1-4-2.2-6.6 0-.3-.4-.3-.4 0 0 2.1.5 4.4 1.6 6.1-.5-.2-1.1-.5-1.6-.7-1.3-2.3-2.1-4.5-2-7.2 0-.3-.4-.3-.4 0-.2 2.3.3 4.8 1.6 6.8-.3-.2-.7-.3-1-.5-1.3-2.7-2.2-5.2-2.2-8.2 0-.3-.4-.3-.4 0-.1 2.7.5 5.6 1.9 7.9-.7-.4-1.3-.7-1.9-1-1.6-2.4-2.2-4.8-2-7.9v-.1c.8-1.9 1.1-2.7 1.9-4.7zm-3.3 5.3c-.3 2.1.2 4.4 1.3 6.3-.3-.2-.6-.4-.8-.6-.6-.7-1.5-3.7-.5-5.7zM33.2 183c.3.9.8 2.5 1.4 4.6-.7-.3-1.5-.5-2.1-.9-.7-.4-1.3-1-1.8-1.6.5-.7 1.4-1.4 2.5-2.1zm-2.8 2.5c1.1 1.3 2.7 2.5 4.4 2.6.2.8.5 1.7.7 2.7l-.1-.1c-2.4-.9-4.4-1.8-6.2-3.4l1.2-1.8zm-6.2 27.4c3.5 2.2 7.7 4.1 11.8 4.8H24.9c-.3-1.6-.5-3.2-.7-4.8zm12.9 4.8c0-.1 0-.2-.1-.3-4.5-1.5-8.6-2.9-12.8-5.1-.1-.9-.1-1.9-.2-2.8 4.6 2.7 10 5.1 15.2 6.1.2 0 .3-.2.1-.3-5.1-2.2-10.2-4.2-15.3-6.5v-2.9c3.5 2.5 7.6 4.5 11.9 5.4.3.1.4-.4.1-.5-4.2-1.6-8.2-3.2-12-5.5 0-1.2.1-2.3.3-3.4 2.9 1.7 5.9 3.1 9.1 4 .3.1.4-.4.1-.5-3.1-1.3-6.2-2.6-9.2-4.1.1-.9.3-1.8.4-2.6 3 2.4 6.6 4.4 10.4 5 .2 0 .3-.2.1-.3-3.7-1.5-7.1-3.1-10.4-5.2l.6-2.4c2.8 1.9 5.8 3.8 9 4.7.2.1.3-.2.1-.3-3-1.7-6-3.1-8.9-4.9.3-.9.5-1.7.9-2.5 2.4 1.8 5.3 3.1 8.3 3.6.3 0 .4-.3.1-.4-2.9-1-5.6-2.2-8.2-3.8.2-.6.5-1.2.8-1.8 2.2 2 4.9 3.6 7.8 3.9.2 0 .2-.2 0-.3-2.8-1.1-5.3-2.2-7.6-4.1.4-.7.7-1.4 1.1-2.1 1.7 1.8 4.1 3.1 6.5 3.3.1 0 .1 0 .2-.1 1.4 5.9 3.1 14.8 4.1 26.7h-2.5zm4.5 0C39.9 196.6 36 184.9 35 182c2.2-1.2 4.9-2.3 7-2.9 3.5-1 6.7-2.9 8.1-3.7 3.3 2.5 11.8 5.9 18.6 8.6 3.8 1.5 7.2 2.8 8.6 3.6 2.4 1.3 10.3 2.2 17.6 2.6.2 1.5.4 2.9.7 3.8.7 1.9.5 3.3-.2 7.5l-.3 1.8c-.3 1.9-.7 3.4-1.1 4.8-.7 2.6-1.3 4.6-.2 6.8.2.4.5.6.9.6.1 0 .3 0 .4-.1.5-.2.7-.8.5-1.3-.8-1.6-.3-3 .3-5.4.4-1.3.8-3 1.2-5l.3-1.8c.7-4.3 1-6.1.1-8.5-.2-.6-.4-1.8-.6-3 2.3.1 4.5.2 6.4.2 0 .5-.1 1.1-.1 1.7-.1.7-.1 1.5-.2 2.4-.2 4.4.8 10 .9 10.9l-.2 9c0 .6.4 1 1 1 .5 0 1-.4 1-1l.2-9.1v-.2c0-.1-1.1-6-.9-10.5 0-.9.1-1.7.2-2.4s.1-1.3.1-1.9c1.5 0 2.5-.1 2.9-.3.4-.1 1.5-.4 3-.9 2.4-.7 5.7-1.6 9.2-2.7.1.1.3.1.4 0l.1-.1c6.8-2.1 14.4-4.6 17.7-6.8 4.4-2.9 5.9-5.5 6.4-7 3 1 8.4 2.9 9.8 3.8 1.6 1 9.1 6.4 11.1 7.8-.6 3.2-3.3 18.3-2.9 33.6l-121.4-.2zm123.3-1.3c.9.5 1.8.9 2.8 1.3H165c0-.4 0-.9-.1-1.3zm4.4 1.3c-1.4-.7-2.9-1.4-4.4-1.9v-3.1c2.8 2 6 3.5 9.3 4 .3 0 .4-.4.1-.4-3.4-1.1-6.5-2.3-9.4-4.2 0-1.1.1-2.1.1-3.2 2.6 1.2 5.3 2.4 8 3.2.2.1.4-.3.2-.4-2.6-1.3-5.4-2.4-8.1-3.4.1-1.1.1-2.1.2-3.1 2.3 1.5 4.8 2.8 7.4 3.6.2.1.4-.3.2-.4-2.6-1.2-5.1-2.3-7.6-3.8.1-.9.1-1.8.2-2.7 1.8 1.7 4.7 2.7 7.1 2.8.2 0 .3-.3.1-.4-1.4-.4-2.8-.8-4.2-1.4-1-.5-1.9-1.1-2.9-1.7.1-.9.2-1.7.2-2.6 2.1 1.2 4.2 2.5 6.4 3.3.2.1.3-.2.1-.3-2-1.4-4.3-2.4-6.5-3.4.1-1.1.2-2.1.4-3 1.6 1.1 3.2 2.2 4.9 3.1.2.1.3-.1.1-.2-1.6-1.2-3.3-2.3-5-3.2.3-2.3.6-4.3.8-6 1 .9 2 1.8 3.1 2.5.2.1.4-.1.2-.3-.9-1-2.1-1.9-3.2-2.7.2-1.4.4-2.5.6-3.2 1.4.7 4.1 2.4 6 6.6 2.5 5.4 2.8 21.9 2.9 26.1l-7.3-.2zm-2.3-25.9c-.3-.1-.4.2-.2.4 1.2.9 2.5 1.9 3.8 2.4.2.1.5-.2.3-.4-1.2-1-2.6-1.8-3.9-2.4zm-87.4-12.2c-.1-.8-.4-1.6-.6-2.5-.2-1-.2-1.9-.1-2.9 0-.3-.4-.3-.4 0-.2 1.7-.1 4 .8 5.5.1.2.3.1.3-.1zm1.9.9c.1-1.6-.3-3.4-.5-5 0-.3-.4-.3-.4 0 .1 1.7.1 3.5.5 5.1.1.2.4.1.4-.1zm1.2.1c.1-1.3-.3-2.7-.5-4.1 0-.2-.3-.1-.3.1.1 1.3.1 2.8.5 4.1 0 .2.3.1.3-.1zm2 1c-.2-1.5-.8-2.8-1-4.3 0-.3-.4-.3-.4 0 .1 1.4.3 3.2 1.1 4.4.1.2.3.1.3-.1zm2.1.2c.1.1.2-.1.1-.2-.3-.3-.6-.6-.8-1-.2-.4-.4-.8-.4-1.2 0-.3-.5-.2-.4.1 0 .9.5 2 1.5 2.3zm2.4.7c.1.1.3 0 .3-.2-.4-.9-1.1-1.8-1.7-2.6-.2-.2-.6 0-.4.2.6.9 1.1 1.8 1.8 2.6zm19 .3c.2-.5.2-1.2.2-1.8 0-.2-.4-.2-.4 0-.1.6-.3 1.2-.1 1.8.1.1.3.1.3 0zm1.3-.4c.2-.4.2-.8.3-1.2.1-.5.2-.9.3-1.4.1-.3-.3-.4-.4-.1l-.3 1.5c-.1.4-.2.8-.1 1.2-.1.1.1.2.2 0z"/>
    <path d="M60.7 84.7s-1.8-5-3.3-7.9-3.6-6.3-6.6-7.2-4 3.9-2.9 8.3 4.2 13.9 5 17.6 1.8 8.1 3.6 7.5 7.1-7.7 4.2-18.3z" fill="#fff"/>
    <path d="M55.1 103.6c-1.5-.8-2.3-3.8-3.2-8-.4-2.2-1.7-6.4-2.9-10.5-.8-2.7-1.6-5.3-2.1-7.1-.9-3.5-.5-7.1 1-8.6.8-.8 1.8-1 2.9-.7 3.3.9 5.5 4.4 7.2 7.6 1.6 2.9 3.3 7.8 3.4 8v.1c3.1 11.1-2.6 18.5-4.8 19.3-.2.1-.4.1-.6.1-.3.1-.6 0-.9-.2zm1.5-26.4c-1.6-2.9-3.4-6-6.1-6.7-.5-.1-.9 0-1.3.3-1.1 1.1-1.3 4-.6 6.9.5 1.8 1.2 4.3 2 7 1.2 4.1 2.5 8.4 3 10.6.8 4.1 1.6 6.4 2.3 6.8h.1c1.1-.4 6.6-6.8 3.8-17.2-.1-.4-1.8-5.1-3.2-7.7z"/>
    <path d="M48.8 72.7c1.9-.8 3.6 1.4 4.8 3.3 1.6 2.5 2.6 5.5 2.9 8.6v.2c0 .2 0 .5.1.7 0 .2-.2.2-.2 0-.1-.4-.2-.9-.3-1.4 0 0-.1-.1-.1-.2-1.2-.6-1.8-.3-1.8.8 0 .7.2 1.5.3 2.2.3 1.2.9 2.3 1.3 3.5.1.2-.2.4-.3.2-.9-1.6-2.6-5.3-1.5-7.2.5-.9 1.3-.8 1.9-.2-.5-2-1.2-4.3-2.2-6.2-2.1 4.5-1 9.2.1 14.2 0 .2-.2.3-.3.1-1.4-4.6-2.7-10.7 0-14.5-1.2-2.2-2.8-3.9-4.7-3.8-.1.1-.2-.3 0-.3z"/>
    <path d="M139.3 84.7s1.8-5 3.3-7.9 3.6-6.3 6.6-7.2 4 3.9 2.9 8.3-4.2 13.9-5 17.6c-.7 3.7-1.8 8.1-3.6 7.5s-7.1-7.7-4.2-18.3z" fill="#fff"/>
    <path d="M144 103.9c-.2 0-.4 0-.6-.1-2.2-.8-7.9-8.2-4.8-19.3v-.1c.1-.2 1.8-5.1 3.4-8 1.7-3.2 3.9-6.7 7.2-7.6 1.1-.3 2.2 0 2.9.7 1.5 1.5 1.9 5 1 8.6-.5 1.8-1.2 4.4-2.1 7.1-1.2 4.1-2.5 8.3-2.9 10.5-.8 4.2-1.7 7.2-3.2 8-.3.1-.6.2-.9.2zm-3.9-19c-2.9 10.4 2.6 16.8 3.8 17.2h.1c.7-.4 1.5-2.7 2.3-6.8.5-2.3 1.7-6.5 3-10.6.8-2.7 1.6-5.3 2-7 .8-2.9.5-5.9-.6-6.9-.3-.3-.8-.4-1.3-.3-2.7.7-4.6 3.9-6.1 6.7-1.3 2.6-3 7.3-3.2 7.7z"/>
    <path d="M151.2 72.7c-1.9-.8-3.6 1.4-4.8 3.3-1.6 2.5-2.6 5.5-2.9 8.6v.2c0 .2 0 .5-.1.7 0 .2.2.2.2 0 .1-.4.2-.9.3-1.4.1-.1.1-.2.2-.3 1.2-.6 1.8-.3 1.8.8 0 .7-.2 1.5-.3 2.2-.3 1.2-.9 2.3-1.3 3.5-.1.2.2.4.3.2.9-1.6 2.6-5.3 1.5-7.2-.5-.9-1.3-.8-1.9-.2.5-2 1.2-4.3 2.2-6.2 2.1 4.5 1 9.2-.1 14.2 0 .2.2.3.3.1 1.4-4.6 2.7-10.7 0-14.5 1.2-2.2 2.8-3.9 4.7-3.8 0 .2.1-.2-.1-.2z"/>
    <path d="M142.4 53.6c-2.3-11.4-15.1-28.8-42.4-28.8S63.6 38.2 59.6 48.1c-3.5 8.5-3.4 22.4-3.4 22.4s.5 29.9 11.4 48.5c10.6 17.9 32.9 33.4 52.7 12.4 24.5-26.1 23.5-60.8 23.5-60.8s.2-8.9-1.4-17z" fill="#fff"/>
    <path d="M99.6 142.7c-.9 0-1.9-.1-2.9-.2-13.2-1.5-24.2-12.8-30.2-22.9C55.6 101 55 71.8 55 70.6c0-.6 0-14.3 3.5-22.9 6.6-16.2 20.1-24 41.5-24 12.3 0 23.2 3.6 31.3 10.4 6.3 5.2 10.9 12.5 12.2 19.3 1.6 7.9 1.4 16.5 1.4 17.2 0 .7.1 9.2-2.6 20.9-2.6 11-8.4 27.1-21.2 40.7-6.6 7-13.8 10.5-21.5 10.5zM100 26c-20.3 0-33.2 7.4-39.4 22.6-3.3 8.2-3.3 21.9-3.3 22 0 .3.6 29.8 11.3 47.9 5.7 9.6 16.2 20.4 28.5 21.8 8 .9 15.6-2.4 22.4-9.7 12.5-13.3 18.1-28.9 20.7-39.6 2.8-11.7 2.6-20.3 2.6-20.4 0-.1.2-8.9-1.4-16.7-1.3-6.4-5.6-13.1-11.5-18-7.8-6.5-18.1-9.9-29.9-9.9z"/>
    <path d="M113.77 117.76c-.37.06-.74.14-1.11.21-2.95-1-5.96-1.67-9.06-2.03-.11-.01-.16.04-.2.12-1.14.59-2.28 1.18-3.43 1.78-1.21-.44-2.36-1-3.45-1.67-.12-.08-.24-.02-.3.07l-8.19 2.31c-.03.01-.03.03-.05.04-.44-.04-.88-.09-1.32-.12-.63-.04-.63.94 0 .98.52.03 1.03.08 1.55.14 3.7 3.09 7.35 7.51 12.61 7.33 5.19-.18 8.91-4.27 12.02-7.98.4-.08.79-.15 1.19-.22.62-.13.36-1.07-.26-.96zm-17.32-1.09c1.09.65 2.23 1.2 3.42 1.64.03.01.04-.01.07 0 .06.03.13.03.21-.01 1.19-.62 2.38-1.24 3.58-1.85 2.71.32 5.35.9 7.94 1.72-3.46.71-6.98 1.58-10.47 1.8-4.03.25-8-.73-11.99-1.25 2.41-.69 4.83-1.37 7.24-2.05zm4.37 9.75c-4.89.13-8.3-3.75-11.73-6.74 4.11.52 8.2 1.56 12.35 1.25 3.56-.27 7.12-1.14 10.64-1.85-2.92 3.46-6.46 7.21-11.26 7.34z"/>
    <path d="M75.2 84.6c-1.5 1.9-1.3 4.5.4 6 1.8 1.7 4.9 2.1 7.1.1 1.1-1.1 1.8-2.7 1.5-4.1-.1-.5-.3-1-.6-1.4-.2-.6-.5-1.1-1-1.5-2.1-1.9-5.6-1.5-7.4.9z" fill="#fff"/>
    <path d="M79.3 92.3c-1.5 0-2.9-.6-3.9-1.5-1.8-1.7-2-4.4-.4-6.4 1-1.2 2.4-2 4-2.1 1.4-.1 2.8.3 3.8 1.2.5.4.8 1 1.1 1.6.3.4.5 1 .6 1.5.3 1.4-.3 3.2-1.6 4.4-1.1.9-2.4 1.3-3.6 1.3zm-3.9-7.5c-1.4 1.7-1.2 4.1.4 5.6 1.7 1.5 4.7 2 6.6.1 1.1-1.1 1.7-2.6 1.4-3.8-.1-.4-.3-.9-.5-1.3v-.1c-.2-.5-.5-1-.9-1.4-.9-.8-2.1-1.2-3.3-1.1-1.5.2-2.8.9-3.7 2zm4.7 4.9c0-.1-.1-.1-.1-.2 0-.2 0-.4.1-.5.2-.3.4-.4.7-.4.2 0 .4.1.5.2l.2.2c.4-.4.6-.9.6-1.5 0-.5-.2-1-.5-1.3-.2-.7-.8-1.2-1.5-1.4-.4-.1-.9-.1-1.3 0 .3.8-.1 1.9-1.1 1.9-.3 0-.6-.1-.8-.2-.4 1-.2 2.2.7 3 .6.4 1.6.5 2.5.2z"/>
    <path d="M79 72.1c-8.2 0-14.8 6.6-14.8 14.8s6.6 14.8 14.8 14.8 14.8-6.6 14.8-14.8c0-8.1-6.6-14.8-14.8-14.8zM84.4 93c-4.5 1.4-10-.2-12.8-2.1C68.9 89 67 86 67 86c9.1-2.2 13.6-.3 17 1.1s5 4.1 5 4.1-.1.4-4.6 1.8z" fill="#fff"/>
    <path d="M90.3 92.1c-2.1-6.9-5.3-10.9-9.6-12-7.4-1.9-15.1 5.6-15.4 5.9-.2.2-.2.5-.1.7s.4.3.6.3c12.7-3.7 19.6 1.4 22.2 4.1-2.2 1.1-13 5.7-19.8-4.2-.2-.3-.5-.3-.8-.1-.3.2-.3.5-.1.8 3.6 5.2 8.2 6.7 12.3 6.7 4.5 0 8.4-1.8 9.2-2.2.3.4.5.6.5.6.1.2.3.3.5.3h.2c.3-.3.4-.6.3-.9zM69.1 85c.4-.3.8-.8.9-.8.4-.4.9-.7 1.3-1.1.4-.2.9-.5 1.3-.7-.5.4-1 .9-1.5 1.3-.4.4-.8.8-1.1 1.2-.3 0-.6 0-.9.1zm1.8-.3.7-.7c.6-.5 1.1-1.1 1.5-1.7.1-.1 0-.2-.1-.2.8-.4 1.7-.7 2.6-.9-.6.4-1.2.9-1.7 1.4-.7.6-1.3 1.2-1.9 1.9-.4.1-.7.1-1.1.2zm3.6-.2c.9-.8 1.9-1.6 2.6-2.6.1-.2-.1-.4-.3-.3-1.2.8-2.2 1.9-3.2 2.9h-.9c.5-.4.9-.9 1.4-1.3.8-.7 1.6-1.3 2.3-2v-.1c.6-.1 1.2-.2 1.8-.2.7 0 1.5.1 2.2.3 3.3.9 5.9 3.7 7.8 8.5-2.2-2.2-6.6-5.2-13.7-5.2z"/>
    <path d="M117.2 84.6c-1.5 1.9-1.3 4.5.4 6 1.8 1.7 4.9 2.1 7.1.1 1.1-1.1 1.8-2.7 1.5-4.1-.1-.5-.3-1-.6-1.4-.2-.6-.5-1.1-1-1.5-2.1-1.9-5.6-1.5-7.4.9z" fill="#fff"/>
    <path d="M122.1 89.7c0-.1-.1-.1-.1-.2 0-.2 0-.4.1-.5.2-.3.4-.4.7-.4.2 0 .4.1.5.2l.2.2c.4-.4.6-.9.6-1.5 0-.5-.2-1-.5-1.3-.2-.7-.8-1.2-1.5-1.4-.4-.1-.9-.1-1.3 0 .3.8-.1 1.9-1.1 1.9-.3 0-.6-.1-.8-.2-.4 1-.2 2.2.7 3 .7.4 1.7.5 2.5.2zm-.8 2.6c-1.5 0-2.9-.6-3.9-1.5-1.8-1.7-2-4.4-.4-6.4 1-1.2 2.4-2 4-2.1 1.4-.1 2.8.3 3.8 1.2.5.4.8 1 1.1 1.6.3.4.5 1 .6 1.5.3 1.4-.3 3.2-1.6 4.4-1.1.9-2.3 1.3-3.6 1.3zm-3.9-7.5c-1.4 1.7-1.2 4.1.4 5.6 1.7 1.5 4.7 2 6.6.1 1.1-1.1 1.7-2.6 1.4-3.8-.1-.4-.3-.9-.5-1.3v-.1c-.2-.5-.5-1-.9-1.4-.9-.8-2.1-1.2-3.3-1.1-1.5.2-2.8.9-3.7 2z"/>
    <path d="M121 72.1c-8.2 0-14.8 6.6-14.8 14.8s6.6 14.8 14.8 14.8 14.8-6.6 14.8-14.8c0-8.1-6.6-14.8-14.8-14.8zm6.8 18.8c-2.8 1.9-8.3 3.5-12.8 2.1s-4.6-1.7-4.6-1.7 1.6-2.7 5-4.1 7.9-3.3 17-1.1c.1-.1-1.8 2.9-4.6 4.8z" fill="#fff"/>
    <path d="M134.2 85.9c-.3-.3-8.1-7.8-15.4-5.9-4.3 1.1-7.5 5.2-9.6 12-.1.3.1.6.3.7h.2c.2 0 .4-.1.5-.3 0 0 .2-.3.5-.6.8.4 4.7 2.2 9.2 2.2 4.1 0 8.7-1.5 12.3-6.7.2-.3.1-.6-.1-.8s-.6-.1-.8.1c-6.8 10-17.6 5.3-19.8 4.2 2.6-2.7 9.5-7.9 22.2-4.1.2.1.5 0 .6-.3.1 0 .1-.3-.1-.5zm-21.6 2.6c-.1.1-.3.2-.4.3.1-.6.2-1.2.2-1.8.1-.1.1-.2.2-.3 0 .6-.1 1.2 0 1.8zm.6-.4v-2.2c.1-.2.2-.3.3-.5-.1.8-.1 1.6.2 2.4-.2.1-.4.2-.5.3zm1-.7c.1-1 0-2 0-2.9.3-.4.7-.7 1-1.1-.1 1.1-.2 2.3.1 3.4-.4.2-.8.4-1.1.6zm1.4-.8c.1-1.2 0-2.4 0-3.6.3-.2.6-.5.9-.7 0 1.1 0 2.2.2 3.2 0 .2.3.1.3 0 .1-1.1-.1-2.1-.2-3.2 0-.1-.1-.1-.1-.1.5-.3 1-.6 1.5-.8 0 1.3 0 2.7.4 4-1.1.4-2.1.8-3 1.2zm3.4-1.3c.1-1.3-.2-2.7-.6-4 .2-.1.4-.1.6-.2.7-.2 1.5-.3 2.2-.3 4.1 0 8.1 2.6 10.3 4.3-5.1-1.1-9.3-.7-12.5.2z"/>
    <path d="M70.67 64.23c3.47-1.02 20.5 4.56 20.86 5.78.36 1.22.7 5.93-.55 6.46-1.25.54-18.75-7.56-20.49-6.88-1.73.68-5.21 6.18-6.11 6.11-.89-.07 4.68-10.99 6.29-11.47z" fill="#fff"/>
    <path d="M64.33 76.2c.66.05 1.32-.67 3.04-2.75 1.14-1.38 2.55-3.1 3.32-3.4.9-.21 6.99 2.19 11.01 3.79 6.61 2.62 8.66 3.35 9.42 3.12.03-.01.05-.01.08-.02 1.83-.78 1.11-6.27.87-7.09-.25-.84-3.93-2.22-6.72-3.16a.428.428 0 0 0-.28-.09c-1.18-.38-2.16-.69-2.61-.83-2.81-.84-9.61-2.73-11.92-2.05-1.88.55-6.89 10.55-6.77 11.88.02.42.32.59.56.6zm3.63-7.48 1.89.63c-.41.27-.85.67-1.32 1.15-.53.12-1.07.15-1.61.12.33-.63.68-1.27 1.04-1.9zm3.19.34-2.83-.95c1-1.7 1.95-3.08 2.44-3.35 1.43 1.7 2.77 3.48 4.01 5.31-1.67-.58-2.86-.92-3.62-1.01zm4.75 1.42c-1.33-2.03-2.78-4-4.34-5.87.64-.03 1.48.04 2.46.19l4.06 6.5c-.78-.3-1.51-.57-2.18-.82zm9.08-2.82c1.01 2.41 1.92 4.89 2.71 7.38-1.24-.46-2.7-1.02-4.12-1.58-.99-1.49-1.97-2.91-2.92-4.28-.78-1.13-1.57-2.29-2.38-3.49 2.22.56 4.61 1.27 6.71 1.97zm3.58 7.68c-.77-2.48-1.67-4.96-2.67-7.38 1.11.38 2.11.75 2.93 1.1.67 2.17.98 4.41.96 6.69-.34-.1-.76-.24-1.22-.41zm2.25.64c-.07 0-.18-.01-.29-.04.04-2.21-.24-4.39-.84-6.51.7.32 1.19.59 1.36.78.4 1.49.42 5.35-.23 5.77zm-11.6-4.24-4.23-6.77c.7.13 1.46.29 2.25.47.97 1.44 1.9 2.81 2.81 4.12.76 1.1 1.55 2.24 2.34 3.42-.08-.03-.17-.07-.24-.1-1.06-.41-2.03-.79-2.93-1.14zM65.1 74.51c.31-.8.84-1.96 1.47-3.21.41.05.82.04 1.24 0-.43.49-.86 1.01-1.29 1.53-.44.54-.98 1.19-1.42 1.68z"/>
    <path d="M129.1 64.02c-3.5-.92-20.35 5.2-20.67 6.43-.32 1.23-.51 5.94.76 6.44s18.5-8.15 20.26-7.52c1.76.63 5.4 6.01 6.3 5.91.88-.09-5.02-10.84-6.65-11.26z" fill="#fff"/>
    <path d="M136.37 75.18c.07-1.34-5.25-11.17-7.14-11.67-2.33-.61-9.06 1.49-11.85 2.42-.45.15-1.43.48-2.58.91a.37.37 0 0 0-.27.09c-2.77 1.02-6.39 2.51-6.62 3.37-.21.82-.78 6.33 1.09 7.06.03.01.05.01.08.02.76.2 2.78-.6 9.32-3.42 3.97-1.72 9.98-4.31 10.89-4.13.79.28 2.25 1.95 3.43 3.29 1.78 2.02 2.46 2.73 3.12 2.66.22-.01.51-.19.53-.6zm-3.32-4.89c-.54.05-1.07.04-1.61-.07-.48-.47-.93-.85-1.35-1.11l1.87-.69c.37.62.74 1.25 1.09 1.87zm-7.85-.31c1.18-1.87 2.47-3.69 3.84-5.44.5.26 1.49 1.6 2.55 3.27l-2.8 1.03c-.78.13-1.95.51-3.59 1.14zm-3.29 1.34 3.86-6.62c.98-.18 1.82-.28 2.45-.27-1.5 1.92-2.89 3.94-4.15 6-.66.27-1.38.56-2.16.89zm-.35-5.6c-.77 1.22-1.53 2.41-2.27 3.56-.9 1.4-1.84 2.85-2.78 4.37-1.4.61-2.84 1.21-4.07 1.71.71-2.51 1.55-5.01 2.48-7.46 2.06-.78 4.43-1.55 6.64-2.18zm-11.2 10.41c-.09-2.28.15-4.53.75-6.72.81-.37 1.8-.77 2.89-1.19-.92 2.45-1.74 4.94-2.43 7.46-.46.18-.87.34-1.21.45zm-1.42-5.49c.16-.19.64-.48 1.33-.82-.53 2.14-.74 4.32-.63 6.53-.12.03-.23.04-.29.05-.67-.41-.78-4.27-.41-5.76zm8.97 2.39c-.08.03-.15.07-.23.1.76-1.2 1.51-2.37 2.23-3.49.87-1.35 1.77-2.75 2.68-4.21.78-.21 1.53-.4 2.23-.54l-4.01 6.9c-.9.38-1.85.79-2.9 1.24zm15.6-.54c-.45-.51-.89-1.01-1.34-1.49.42.03.82.02 1.24-.04.67 1.22 1.24 2.36 1.57 3.16-.45-.48-1-1.11-1.47-1.63zM93.69 128.22c-2.15-.8 1.81 6.87 2.48 8.2s2.19 2.29 2.19 2.29l.95-.76.1.76s3.34-1.43 4.58-2.77c1.24-1.34 2.29-7.82 2.29-7.82l-5.53.29-1.05.67-.48-.76c0-.01-4.77.19-5.53-.1z"/>
    <path d="M103.29 107.27c-1.43 1.14-6.6.84-8.09-1.16-1.49-2.01-1.23-5.37-.71-8.74.52-3.36 3.24-17.34 3.75-18.38.52-1.04 1.75-1.16 2.39 0s3.43 16.63 3.75 20.45.86 6.28-1.09 7.83z" fill="#fff"/>
    <path d="M95.15 107.24c2.35 1.15 5.1 2.37 7.68 1.14 2.66-1.27 2.67-4.06 2.36-6.63-.96-7.77-2.31-15.48-3.95-23.13-.2-.94-1.65-.54-1.44.4 1.2 5.6 2.24 11.23 3.09 16.89.41 2.72 1.34 5.93.94 8.68-.62 4.25-5.38 2.6-7.91 1.36-.88-.42-1.64.87-.77 1.29z"/>
    <path d="M73.2 48.8s14.8-.7 23-2.9c0 0 22.1 2 28.9 1.3 0 0 6 10 10.1 11.3 0 0 1.6 8.2 3.6 10.4 0 0 1.6 9.3 2.9 12s-.7 14-.7 14 7.8-12.7 7.2-19.1c0 0 4 6.2 9.2 8.4 0 0-7.2-15.5-7.6-20.7 0 0 7.6 2 11.6 5.3 0 0-8.1-15.5-13-18.9 0 0 3.6-.9 8.3-3.3 0 0-9.6-2.7-12.1-4.9 0 0 7.6-3.6 10.3-8.4 0 0-9.2 1.1-11.2.4 0 0 3.4-8.7 3.8-14.4 0 0-9.2 5.8-14.8 4.4 0 0 4.3-5.1 5.1-9.1 0 0-15.2 5.6-26.8 4.7 0 0 3.6-5.8 4.3-10.2 0 0-10.7 7.3-16.6 8.2-5.8 1.1-14.8 3.7-14.8 3.7s2.5-5.3 1.8-10.4c0 0-11.9 14.2-15 16.4s-9.8 6.7-9.8 6.7-1.1-9.3-5.4-13.8c0 0 .4 16.7-1.3 20.2 0 0-5.4-4.7-11.2-6 0 0 6.7 9.3 8.3 12.9 0 0-4.5 8-10.5 10l7.8 1.3s-3.8 11.1-5.8 15.1-4.3 9.1-7.6 12.4l13.2-7.1s-6.3 15.5-5.8 22.9L50 94s1.6 10.4 4.5 12c0 0 2.2-18 4.3-21.1 2-3.1 5.8-27.3 5.8-27.3s1.8 7.6 2 11.3c-.1.1 7-12.6 6.6-20.1z" fill="#fff"/>
    <path d="M162.2 68.5c-.3-.6-6.8-13.1-11.8-18 1.5-.5 3.9-1.4 6.7-2.9.4-.2.6-.6.5-1s-.3-.7-.7-.9c-2.2-.6-7.6-2.3-10.4-3.8 2.4-1.3 7.1-4.3 9.2-8.1.2-.3.2-.7 0-1s-.6-.5-.9-.4c-2.9.3-7.5.8-9.7.6.9-2.6 3.1-8.9 3.4-13.6 0-.4-.2-.7-.5-.9-.3-.2-.7-.2-1 0-.1 0-7.2 4.5-12.4 4.5 1.4-1.9 3.6-5.2 4.2-8.1.1-.4 0-.7-.3-1-.3-.2-.7-.3-1-.2-.1.1-13.8 5-24.8 4.7 1.1-2 3.1-5.9 3.6-9.2.1-.4-.1-.8-.5-1-.3-.2-.8-.2-1.1 0-.1.1-10.6 7.2-16.1 8.1-4.2.6-10 2.2-13 3 .7-2.1 1.6-5.6 1.1-9.1-.1-.4-.3-.7-.7-.8-.4-.1-.8 0-1 .3-4.1 4.9-12.4 14.6-14.8 16.3-2.2 1.6-6.4 4.4-8.5 5.8-.5-2.9-2-9.2-5.4-12.8-.3-.3-.7-.4-1.1-.2-.4.2-.6.5-.6.9.1 4.1.1 14.4-.8 18.5-1.9-1.5-6-4.3-10.5-5.3-.4-.1-.8.1-1.1.4-.2.3-.2.8 0 1.1.1.1 6.1 8.5 8 12.2-1 1.6-4.9 7.5-9.7 9.1-.4.1-.7.6-.7 1 0 .5.4.8.8.9l6.7 1.1c-1 2.9-3.8 10.7-5.4 13.9-.3.6-.6 1.1-.9 1.7-1.8 3.6-3.8 7.7-6.6 10.4-.4.4-.4.9-.1 1.3s.8.5 1.3.3l10.8-5.8c-1.8 4.8-5.3 15-4.9 20.8 0 .4.3.7.6.9.4.1.8 0 1.1-.2l6-6.2c.6 3.4 2.1 9.4 4.7 10.8.1.1.3.1.5.1s.3 0 .5-.1c.3-.2.5-.4.5-.8.9-7.1 2.7-18.5 4.1-20.7 1.5-2.4 3.8-15 5.1-22.5.4 2.1.8 4.4.9 6 0 .4.3.8.8.9.4.1.9-.1 1.1-.5.3-.5 6.7-12 6.9-19.8 3.4-.2 14.9-.9 22.1-2.8 2.2.2 21.2 1.9 28.2 1.4 1.3 2.2 6 9.2 9.7 11 .4 1.9 1.7 7.9 3.5 10.2.3 1.6 1.7 9.5 3 12 .9 1.7 0 9.1-.8 13.4-.1.5.2.9.6 1.1.4.2 1 0 1.2-.4.3-.5 6.1-9.9 7.2-16.8 1.7 2.1 4.6 5.1 7.9 6.5.4.2.8.1 1.1-.2.3-.3.4-.7.2-1.1-.1-.1-5.9-12.9-7.3-18.8 2.4.7 7 2.4 9.7 4.7.4.3.9.3 1.3 0s.5-.4.3-.9zm-12.3-5.8c-.3-.1-.6 0-.9.2s-.4.5-.4.9c.3 3.9 4.3 13.4 6.4 18.1-3.5-2.6-6.1-6.5-6.2-6.6-.3-.4-.7-.6-1.2-.4-.4.2-.7.6-.7 1 .4 3.6-2.2 9.6-4.4 13.8.4-3.5.6-7.6-.2-9.2-1-2.1-2.4-9.2-2.8-11.7 0-.2-.1-.4-.2-.5-1.5-1.6-2.9-7.7-3.3-10-.1-.4-.3-.6-.7-.8-3-1-7.8-8.1-9.5-10.8 4.6-1.9 8.7-4.8 12-8.6.3-.4.1-.8-.2-1-.1-.3-.3-.5-.7-.4-3.6 1.4-7.2 2.3-11 2.7 4-3.6 7.1-8 9.3-13 .2-.6-.3-1.1-.7-.9-.2-.1-.5-.2-.8 0-3.6 2.8-7.5 5-11.9 6.5-.8.3-.4 1.5.3 1.2 4.1-1.4 7.8-3.4 11.3-6-2.3 4.6-5.4 8.7-9.3 12.1-.2.2-.2.4-.2.6-.2.4 0 .9.5.9 3.9-.3 7.6-1.1 11.3-2.3-3.2 3.3-7.1 5.9-11.5 7.5-.1.1-.2.1-.3.2-5.9.4-20.5-.8-25.9-1.2 6.7-2.8 12.6-7 17.4-12.7.1-.1.1-.2.1-.4.3-.5-.5-1.2-1-.7-3.7 3.4-10.4 3.5-15.1 4.4-.8.2-.5 1.4.3 1.2 3.7-.7 8.3-1 12.1-2.6-5.1 5.1-11.3 8.9-18.3 11-.1 0-.1.1-.2.1-8.3 1.7-20.4 2.3-20.6 2.3-.3 0-.5.1-.7.3s-.3.5-.3.7c.3 5.1-3.1 12.7-5.1 16.8-.6-3.7-1.6-8-1.6-8.2-.1-.5-.5-.8-1-.8s-.9.4-.9.8c-1.5 9.6-4.3 24.8-5.7 26.9-1.7 2.6-3.4 14.3-4.1 19.3-1.2-2.3-2.3-6.7-2.8-9.8-.1-.4-.3-.7-.7-.8h-.3c-.3 0-.5.1-.7.3l-5.6 5.7c.7-7.6 5.6-19.8 5.7-20 .2-.4.1-.8-.3-1.1-.3-.3-.8-.3-1.1-.1l-8.9 4.8c1.5-2.3 2.7-4.8 3.9-7.1.3-.6.6-1.2.9-1.7 2-4 5.7-14.8 5.9-15.2.1-.3.1-.6-.1-.8-.1-.3-.4-.4-.7-.5l-4.5-.6c4.8-3.1 8-8.8 8.2-9 .2-.3.2-.6 0-.9-1.1-2.5-4.5-7.6-6.7-10.6 4.4 1.8 7.9 4.9 8 4.9.2.2.5.3.8.2s.6-.3.7-.5c1.4-2.8 1.5-12.4 1.5-17.5 2.5 4.5 3.3 10.7 3.3 10.8 0 .3.3.6.6.8.3.1.7.1 1-.1.1 0 6.8-4.5 9.9-6.7 2.5-1.8 10.1-10.6 13.5-14.6-.2 3.9-1.8 7.4-1.8 7.4-.2.4-.1.8.2 1.1.3.3.7.4 1 .3.1 0 8.9-2.7 14.6-3.5 4.4-.7 11.3-4.8 14.8-7-1.2 3.7-3.5 7.4-3.5 7.5-.2.3-.2.7 0 1s.5.5.8.5c9.4.7 20.8-2.6 25.3-4.1-1.4 3.3-4.3 6.8-4.3 6.9-.2.3-.3.6-.2 1s.4.6.7.7c4.4 1.1 10.7-1.9 13.8-3.5-.9 5.4-3.5 12.1-3.5 12.2-.1.3-.1.5 0 .8s.3.4.6.5c1.6.5 6.4.1 9.4-.2-3.1 3.7-8.6 6.3-8.6 6.3-.3.1-.5.4-.6.8 0 .3.1.7.3.9 1.8 1.6 6.9 3.4 10 4.4-3.4 1.5-5.7 2.1-5.8 2.1-.4.1-.7.4-.7.8-.1.4.1.8.4 1 3.3 2.2 8.1 10.4 10.8 15.1-3.9-2.3-8.3-3.5-8.6-3.6zM91.4 23.9c-.1 0-.1.1-.2.1-7.9 2.2-17.1 6.5-20.8 14.3-.3.7.7 1.4 1.1.6 3.1-6.6 10.4-10.6 17.3-12.9-1.9 1.8-3.5 3.9-4.7 6.3-.4.7.7 1.3 1.1.6 1.6-3.1 3.8-5.8 6.6-7.9h.1c.5-.1.5-.7.3-1-.1-.2-.5-.4-.8-.1zM59.6 51c-1.4 5.4-3 10.7-6.7 14.8 1.1-3.9 1.2-7.9.3-11.9-.2-.9-1.4-.5-1.2.3 1 4.5.7 8.9-.9 13.2-.1.2 0 .4.1.6.2.3.7.6 1 .2 5.1-4.3 7-10.6 8.6-16.8.2-.9-1-1.2-1.2-.4z"/>
</svg>
