<svg xmlns="http://www.w3.org/2000/svg" width="600" height="600" viewBox="0 0 200 200" style="overflow:hidden!important">
    <path d="M0 0h200v200H0V0z" fill="#ecf0f1"/>
    <path d="M81.5 113.2c-.2-1.7-1.2-2.7-1.8-4.3-.8-2.2-.1-3.6.2-5.9.4-3.4-1.7-5.8-1.8-9 0-3.7 2.3-7.2 2.5-11 .2-3.6-.8-7.3-2.8-10.3-2.7-4-8.1-7.4-13-6.4-.8-.9-2.5-1.2-3.5-.3-2 1.7-2.9 3.9-2.5 6.6.4 2.6 1.1 3.4-.5 5.8-.6.9-1.6 1.6-2.2 2.5-.9 1.4-1.2 2.9-.6 4.3-1.5 1.5-2.8 3.1-4.4 4.5-1 1-1.9 1.7-2.2 3.2-.4 2.4 1.4 4.2-.1 6.6-.8 1.3-2.4 2.1-3.1 3.6-.6 1.2-.6 2.5-.3 3.8.6 2.5 1.8 3.6.3 6.3-.8 1.4-2.2 2.3-2.4 4.1-.2 2.1 2.1 4.8.7 6.7-.3.4.2 1 .7.8 3.7-1.2 2.2-4.1 2.8-7 .5-2.3 2.2-3 3.1-5.1.8-1.9 0-3.2-.3-5-.6-3.7 1.4-4.1 3-6.8.9-1.5.8-2.6.8-4.3 0-2.2-.1-2.5 1.3-4.2.5-.6 1.2-1.1 1.7-1.8.1-.2.2-.4.3-.5 0 .5 0 1 .1 1.3l-.5.5c-1.3 1.6-2.2 2.8-1.2 5 .2.5.6.8 1 1.1-.2 1-.8 1.7-1.9 2.2-1.3.8-1.8 2.8-.5 4 .2.2.4.3.5.5-.5.9-.7 1.8-.4 2.9-1 1-2.3 2-2.5 3.3-.2 1 .2 1.8.5 2.7.9 2.1 1.3 1.2 0 3.4-1.2 2-1.5 2.6-.7 4.8.7 1.7.8 2 .5 3.8-.2 1.2-.3 2 0 3.3.3 1.1 1.9.9 2-.3 0-.6.3-1.2.6-1.7.1 1.7 1 2.7 2.6 3.1.1 0 .3.1.4.1-.1 1.4.3 2.5 1.8 3.1.7.3 1.5-.7 1-1.3-.1-.2-.2-.4-.2-.6.1.1.2.1.2.2 1.4 1 2.8 1.1 3.9.7v.1c-.2.9.7 1.4 1.4 1.1 1 .7 2.2 1.1 3.2.9.4.4 1.2.3 1.6-.2.5-.8 1.8-1.1 2.5-1.9.3-.4.5-.9.7-1.4.4.9.9 1.6.9 1.6-1.1 1.6 1.4 3.5 2.7 2.1 1.2-1.3 1.5-2.3 1.1-4-.1-.6-.4-.9-.7-1.1.5-.2.9-.6 1.1-1.1.7-2.7 1.6-3.8 1.5-6.6-.2-3 1.3-5.6.9-8.5zm-23.6-1.6c-.1.4-.2.7-.4 1-.7-.9-1.2-.3-.1-1.2.1-.1.3-.2.4-.3 0 .1.1.3.1.5zm-1.3 9.7c0 .1-.1.2-.1.3v.1c-.1.3-.2.6-.3.8-.3-.8-.8-1.5-.8-2.2 0-.4.1-.8.3-1.1.8.7 1 1.4.9 2.1zm107.8 4.7c1.3.7-.9-7.1-.9-6.8.2-2.1 2.3-2.6.8-5-.9-1.4-2-1-2-2.7 0-.9 1.3-2.2 1.4-3.3.3-2.3-.7-3.8-2.5-5.2-1.9-1.4-2.9-.8-2.7-3.9.1-1.4.7-2.5.5-4-.4-3.2-2.6-3.8-4.9-5.3-1.4-.3-2.4-1.1-3.1-2.5.1-.7.1-1.4 0-2.1-.2-1.2-.7-2-1.6-2.7-3-2.4-6.9-.8-9.6-4.3-.2-.3-.6-.5-.9-.7-.7-2.9-2.4-5.3-5.2-6.8-3.6-1.9-10.9-1.8-14.4 1.3-1 .6-1.9 1.4-2.6 2.5-.7 1.1-.8 2-.9 3.2-.1 1.1.3 2.4-.2 3.4-.3.7-1.2 1.2-1.6 1.8-2 3.3.1 5.8.8 9 1.1 4.7-2.7 8.2-.8 13.1 1 2.7 1.5 4.9 1.3 7.8-.1 1-.1 1.8 0 2.5-.4.6-.6 1.2-.7 1.8-.1 1.1.5 1.9 1.1 2.8 1 1.8 2.9 1 2.1 4.5-.2.8-1.2 1.7-1.6 2.5-.5 1-.7 2-.6 3.2.1 1.3 2.5 4.2 1.5 5.3-1.3 1.5.3 3.4 2 2.6 1.6-.7 2.3-1.6 2.5-2.6.3.4.8.6 1.4.6h.1l.2.2c.8.8 1.8.4 2.2-.4.2.4.4.8.6 1.3.6 1.1 2.2.5 2.2-.6.1-.8.2-1.6.4-2.3.2.2.4.4.8.5l.7.3c.7.3 1.3-.1 1.6-.6.6.9 1.7 1.6 3 1.7.8.1 1.2-.9.9-1.5-.3-.7-.2-1.2.1-1.7.1.1.3.3.6.4.7.5 1.5-.1 1.7-.8.6 0 1.2-.1 2.2-.2.8-.1 1.2-.8 1.3-1.5.6.7 1.1 1.3.9 2-.2.8.9 1.6 1.4.8.9-1 1.1-1.8.8-3.1-.4-1.4-1.2-1.8-1.1-3.3 0-.4.3-.8.6-1.2.1.1.2.2.3.4 0 .1.5.2.6.1-.1.3-.6 1-.6 1.2 0 .4 1.1 5.4 2.4 3.4-.4.6 0 1.5.7 1.7.2.1.4.1.5.1.6.2 1.4-.1 1.7-.7l.3-.6c.4-.8.3-1.6-.3-2.2-.4-.4-1.2-1.4-1.3-1.2.1-.6.9-1.4.9-2.1-.1-1.8-1.4-2.1-2.4-2.7.9-1.2 1.8-2.5 2.7-3.7.7-1 .1-2.2-.7-2.8-.4-.3-4.8-2-4.8-1.9-.1-.3 2.2-3.4 2.3-4.2.4-2.5-1.1-4.2-3-5.3 1-1.4 1.7-2.9 1.7-4.6.7.5 2.6 1.5 2.4 1 .3.8-.6 2.3-.3 3.4.4 1.2 1.1 1.5 1.8 2.4 1 1.2 1.1.5 1.1 2.1 0 .6-.6 1.2-.8 1.7-.3 1.3-.3 2.4.3 3.6.5 1 2 1.6 2.2 2.5.2 1-1.1 2.6-1.1 3.7 0 .9.3 1.6.8 2.4.3.5 1.1.6 1.3 1 .7 1.2.2 1.8.4 2.8.2 1.3-.2 1.4.4 2.5.4.9 1.8.4 1.8-.5-.1-2.5 2.1-3.7 1.2-6.3-.5-1.5-1.5-1.5-1.2-3.6.2-1.1.9-2 .8-3.2-.1-.9-.6-1.5-1-2.3-.4-.9-.9-.7-.9-1.9 0-.3.9-1.8 1.1-2.3.3-1.1.4-2.3-.1-3.3-.5-1.3-2-1.6-2.5-2.7-.9-1.7.8-3.6-1-5.4-.8-.9-2.4-1-3-1.9-.6-1-.2-2.7-.7-3.9-.5-1.2-1.5-1.9-2.6-2.6-2-1.3-2.1-1.4-2.6-3.8l-.3-.9c.8.1 1.6.2 2.1.6 1.3.9.7 2 1.3 3.6.5 1.5 1.5 2.4 2.9 3.2 2.4 1.4 4.8 1 4.6 4.6-.1 3-.9 5.3 1.8 7.5 1.1.9 3.4 1.3 3.6 2.9.1.9-1.5 2.7-1.5 4 0 1.1.2 2.3 1.1 3.2 1.4 1.4 1.6.4 1.7 2.3.1 1.1-.8 1.7-.4 2.9.5 1.3 1.3 1.5 1.6 2.8.5 2.2-.6 3.9 2 4.7 1.3.8 2-1.1.9-1.7zm-24.5 1.6c-.2-.2-.3-.4-.5-.7-.2-.5-.4-.7-.5-.8.1 0 .3-.1.4-.7.1-.5.6-.8.9-1.3.3.2.5.4.6.7.3.3-.6 1.7-.9 2.8zm5-7.8-1.2 1.7-.1-.1c-1.2-1.5-1.4-.5-1-2.1.8.1 1.6.3 2.3.5zm-1.6-23.1c-1.1-1.1-2.2-1.7-3-2.5v-.7c.1.1.2.2.4.3 1.9 1.3 2.2 1.3 2.6 2.9z"/>
    <path d="M86.5 107c0 18.8 2.7 50.3-8.1 58s-31.8 13.9-36.7 24.4-3.6 29.4-3.6 29.4h124.1s.6-23.1-4.2-30.4c-6.6-10.1-28.5-17.7-36.5-22.9-8.1-5.2-10.9-32.2-10.9-58.8l-24.1.3z" fill="#fff"/>
    <path d="M163.4 220.1H37.2l-.3-.9c-.1-.5-1.3-19.7 3.6-30.3 3.4-7.3 13.6-12.4 23.5-17.4 5.1-2.5 9.9-5 13.6-7.5 8.6-6 8.1-29.8 7.7-47.1-.1-3.5-.1-6.8-.1-9.8v-1.3l26.7-.4v1.3c0 32 3.8 53.5 10.3 57.7 2.4 1.6 6 3.3 10.2 5.4 9.7 4.7 21.9 10.6 26.7 18 5 7.6 4.4 30.9 4.4 31.2l-.1 1.1zm-124.1-2.6h121.6c-.1-2.4-.6-23.2-4-28.4-4.4-6.7-16.2-12.5-25.6-17-4.3-2.1-8-3.9-10.5-5.5-9.8-6.3-11.4-38.8-11.5-58.6l-21.5.4c0 2.6.1 5.5.1 8.5.4 18.9.9 42.4-8.8 49.3-3.8 2.7-8.7 5.1-13.9 7.7-9.5 4.8-19.4 9.7-22.3 16.1-3.3 6.9-3.7 25.9-3.6 27.5z"/>
    <path d="M76.8 173.7c4.8 2.3 10.4 3.9 15.7 2.9.4-.1.4-.7 0-.8-5.1-.9-10.2-1.4-15.2-3.2-.6-.2-1.1.8-.5 1.1zm31.5 2.4c2.4.3 4.9-.4 7.1-1.2 2.1-.8 4.3-1.7 5.8-3.4.5-.5-.1-1.2-.7-.9-2.1.9-3.9 2.3-6.1 3-2 .7-4.1 1-6.2 1.5-.6.1-.4.9.1 1z"/>
    <path d="M85.2 148.9s-6.4 0-8.1 1.6-6.3 1.9-8.1 7.7c0 0-4.8 5.8-4.5 9l-4.7 5.1s-8.5 3.1-11 4.5c-2.4 1.4-5.6 5.1-5.6 5.1s-4.3 2.7-5.3 5.3c-.9 2.3-2.9 8.9-2 15.4.1.7.2 16.4.4 17.1H164c0-.7.5-.7-.1-16.7-.1-3.3-.5-10.5-1.1-12.6-.8-2.7-5.8-9.3-8.1-9.8 0 0-7.1-6.3-9-7.1s-6.9-2.4-6.9-2.4-5-3.4-6.8-6.9c-.3-.6-4.8-7.9-6.1-8.7 0 0-.5-2.1-3.7-4.5s-8.4-2.9-8.4-2.9.6 2.4 1.3 6.4c.6 4 1 6.6-.2 9.3-1.1 2.7-4.8 5.5-7.6 8.5s-4.5 4.5-6 8.1c0 0-6.3-6.1-10.9-8.4s-6.4-4.2-7.2-7.2c-.6-2.9 2-15.9 2-15.9z" fill="#fff"/>
    <path d="M165 203.1c-.1-3.4-.5-10.6-1.1-12.8-.8-2.7-5.6-9.4-8.5-10.4-1.3-1.1-7.2-6.3-9.1-7.1-1.8-.7-6-2.1-6.9-2.4-.7-.5-4.9-3.5-6.3-6.5-.1-.3-4.3-7.2-6.2-8.8-.3-.8-1.2-2.7-4-4.7-3.4-2.6-8.7-3.1-8.9-3.1-.3 0-.6.1-.9.4-.2.2-.3.6-.2.9 0 0 .6 2.4 1.3 6.3.6 3.8.9 6.3-.1 8.8-.7 1.6-2.5 3.4-4.4 5.2-1 1-2.1 2-3 3-.5.6-1 1.1-1.4 1.6-1.7 1.8-3 3.2-4.1 5.5-2-1.9-6.5-5.8-10.2-7.6-4.8-2.3-6.1-4.1-6.7-6.6-.5-1.8.5-8.6 1.4-13.7.4-.2.6-.7.4-1.2 0-.1-.1-.2-.1-.2 0-.2.1-.4.1-.5.1-.3 0-.6-.2-.8s-.5-.4-.8-.4c-1.1 0-6.9.1-8.7 1.9-.3.4-1 .7-1.8 1.1-2 1-5.1 2.5-6.5 6.9-.9 1.1-4.6 5.8-4.6 9.1l-4.2 4.7c-1.4.5-8.6 3.1-10.9 4.5-2.3 1.4-5.2 4.6-5.8 5.2-.8.5-4.6 3.1-5.6 5.7-.8 2.1-3 8.9-2.1 15.9.1.7.2 16.5.4 17.2.1.4.5.8 1 .8h127.6c.3 0 .5-.1.7-.3s.3-.5.3-.7c.2-.3.1-15.9.1-16.9zm-2 14c-3.6-2.6-7.8-4.2-11.5-6.8v-4.4c3.2 2.9 6.8 6.3 10.9 7.4.1 0 .2-.2.1-.2-4-2.2-7.4-4.9-11-7.7v-3.1c.4.4 5.7 5 11.4 7.1.1 2.8.1 5.8.1 7.7zm0-8.2c-6.1-2.6-9.4-5.8-9.6-5.9-.7-.5-1.3-1.1-1.8-1.7 0-1.2.1-2.3.1-3.3 1.7 2.2 8.6 7.4 11.3 8.9v2zm-4.8-19.1c-1.4-1.5-3-2.9-4.4-4.4.6-1.7 1.1-2.8 1.4-3.4 2 1.3 6 6.4 6.7 8.8.5 1.8.9 8.3 1 12.2v3.5c-3.1-1.9-9.2-6.7-11.3-9.1.1-1.6.2-3.1.4-4.4 2.8 3.8 6.4 7.2 10.5 9.4.2.1.4-.2.2-.3-4-2.8-7.5-5.8-10.6-9.5h-.1c.2-1.4.4-2.6.7-3.7 2.2 3.2 5.1 6.4 8.6 8.2.2.1.4-.2.2-.3-3.3-2.5-6.2-4.9-8.5-8.4 0-.1-.1-.1-.1-.1.2-.9.4-1.7.7-2.4 1.3 1.5 2.7 3.1 4.4 4.2.2.1.4-.1.2-.3zm-27.1-25.5c.1.2.2.3.2.4.2.4.4.8.7 1.1-.2.2-.6.7-1.2 1.3.1-.9.2-1.9.3-2.8zm-3.3-4.9c1.1 1.5 2.2 3.3 2.9 4.4-.2 1.3-.5 2.7-.6 4-.2.2-.5.5-.8.7.3-1.7.6-3.5.9-5.2 0-.2-.3-.3-.3-.1-.4 1.9-.9 3.9-1.2 5.9-.3.2-.5.5-.8.7.3-1.5.4-3.1.6-4.5 0-.2-.3-.3-.3-.1-.3 1.7-.8 3.4-.9 5.1-.4.3-.8.6-1.1.9.2-1.3.5-2.5.9-3.8.1-.2-.2-.3-.3-.1-.6 1.3-1.1 2.9-1.2 4.4l-.9.6c0-.2.1-.4.1-.6l.3-2.1c0-.2-.3-.3-.3-.1-.2.7-.3 1.5-.4 2.2-.1.3-.1.6-.2 1-.2.1-.4.3-.7.4.2-.8.2-1.6.3-2.4 0-.2-.2-.2-.3-.1-.2.9-.5 1.8-.7 2.8-.2.1-.4.2-.5.3 0-.2 0-.3.1-.5.1-.6.2-1.1.2-1.7 0-.2-.2-.2-.3 0l-.3 1.8c-.1.2-.1.5-.2.8-.2.1-.5.3-.8.4.1-.5.2-1 .4-1.5.1-.2-.2-.3-.3-.1-.2.6-.4 1.2-.6 1.9-.3.1-.6.3-.9.4-.2.1-.3.2-.4.3.1-.3.2-.7.3-1 .1-.2-.2-.3-.3-.1-.2.6-.4 1.1-.5 1.7 0 .1.2.2.3.1 0 0 0-.1.1-.1 0 .1 0 .3.1.4.2.4.5.6.9.6.1 0 .2 0 .4-.1 6.4-2.6 11.5-7.9 13.1-9.6.7.8 1.5 1.6 2.2 2.2.3 1.3.2 2.6.4 3.9 0 .1.2.2.3 0 .3-1.1.1-2.4-.2-3.6.4.3.8.6 1.1.9.1.6.2 1.2.2 1.9-.8 1.1-2.2 2.1-3.9 3l.1-.1c.4-1.3.4-2.7.3-4 0-.2-.3-.2-.3 0 .1 1.4-.1 2.6-.4 4 0 .1.1.2.2.2-.7.4-1.4.7-2.2 1.1.2-1.1.4-2.2.6-3.2.1-.3-.4-.4-.4-.1-.3 1.1-.7 2.4-.9 3.6-.3.1-.6.2-.8.4l.6-2.1c.1-.2-.3-.4-.4-.1-.2.9-.6 1.7-.9 2.5-.4.2-.8.3-1.2.5.3-.8.5-1.7.6-2.4 0-.2-.3-.2-.3 0-.1.9-.4 1.6-.8 2.4-.1.1-.1.2-.2.3l-1.5.6-.3.1 1.2-3c.1-.2-.3-.3-.4-.1-.5 1.1-1 2.2-1.4 3.4-.4.2-.9.3-1.3.5.6-1 1-2.2 1.2-3.3 0-.2-.3-.3-.3-.1-.3 1.4-1 2.5-1.7 3.7l-.9.3c.5-.9.8-2 .9-2.8 0-.2-.2-.3-.3-.1-.1.8-.4 1.5-.8 2.1-.2.3-.4.6-.7 1l-.9.3c.5-.8.8-1.7 1.1-2.5.1-.2-.2-.3-.3-.1-.2.7-.5 1.3-.9 1.9-.2.3-.4.6-.7.9-.3.1-.6.2-1 .3.3-.5.5-1.1.8-1.6.1-.2-.2-.3-.2-.1-.4.6-.9 1.3-1.3 2-.2.1-.5.2-.8.3.1-.3.3-.6.4-.9.1-.2-.2-.3-.3-.1-.2.4-.5.8-.7 1.3l-.9.3c.1-.2.2-.4.4-.6.1-.2-.2-.4-.3-.2-.2.3-.5.6-.8 1-2.1.7-4.1 1.4-5.8 1.9-1.3-1-2.5-1.7-3.4-2.2 2.1-2.9 4.9-6.2 7.3-7.8.9-.6 1.9-1.3 3-1.9 4-2.6 8.6-5.4 10.8-9.8.8-1.4 1.2-2.8 1.3-4zm-16.9 30.4c2.8 2.9 3 5.5 2.5 6.3-.1.1-.2.4-.9.1-1.7-.6-3-3.8-4-6.1-.4-.9-.7-1.7-1.1-2.3.3-.1.6-.2 1-.3.8.7 1.6 1.4 2.5 2.3zm6.4-30.4c.8-.6 1.3-1.5 1.9-2.2.2-.2.3-.4.5-.6.1.4.1.9-.1 1.3l-1.5 1.5c-.5.5-1 1.1-1.4 1.6.1-1 0-2.1-.1-3.2.5-.6.8-1.3 1.2-1.9.3-.5.8-1 1.2-1.4l.6 1.5c-.3.4-.6.7-.9 1-.6.7-1.3 1.4-1.8 2.2 0 .2.3.3.4.2zm2.1-.6c-.7 1.6-1.8 2.9-2.8 3.9.1-.2.1-.5.2-.7.8-.7 1.3-1.6 2-2.4.1-.3.4-.5.6-.8zm-1.9-3.3c-.3.4-.7.9-.9 1.4-.1-.4-.1-.9-.2-1.4.5-.5.9-1.1 1.3-1.6.2-.2.4-.5.6-.8l.6.9c-.5.4-1 .9-1.4 1.5zm.5-2.8c-.3.3-.6.7-.8 1-.3.3-.6.7-.8 1v-.3c0-.3-.1-.5-.1-.8.2-.2.3-.5.4-.7.2-.4.5-.8.8-1.1.1.4.3.6.5.9zm-1.7-1.9.8.8c-.3.4-.5.8-.8 1.1-.1.1-.1.2-.2.3-.1-.5-.2-1-.3-1.4.1-.3.3-.5.5-.8zm-26.1 22.3c4.5 2.2 10.6 8.1 10.7 8.2.2.2.6.3.9.3.3-.1.6-.3.7-.6 1.1-2.7 2.4-4.1 4.3-6.2.5-.5.9-1 1.5-1.6.9-1 1.9-2 2.9-2.9 1.2-1.1 2.3-2.2 3.2-3.3.3 0 .6-.2.7-.4.1-.1.4-.3.6-.5 1.5-1.2 4.6-3.6 5.8-7.2 1.1-3.2-1.1-6.5-3-8.5 1.1.4 2.3.9 3.2 1.6 2.8 2.1 3.3 3.9 3.3 3.9v.1s0 .1.1.1c0 .1.1.1.1.2v.1c.1.1 1.7 2-.6 6.4-2 3.8-6.3 6.6-10.1 9-1.1.7-2.1 1.3-3.1 2-2.7 1.8-5.8 5.4-8.1 8.7-.2 0-.5.1-.7.3-.2-.1-.4-.1-.6-.1-.3.1-.6.1-.8.6-2.5-1.5-7.1-4-11.9-5.6-.6-.2-1.1-.4-1.7-.7h.1l1.8-2.4c.1-.1-.1-.3-.2-.2-.7.7-1.3 1.5-1.9 2.3-.1.1-.1.1 0 .2-1.2-.6-2.3-1.3-3.5-2.1.3-.8.7-1.6 1.3-2.3.4-.5.9-.9 1.4-1.2 1.1.5 2.2 1.1 3.6 1.8zm1.1 12.7.6.6c-.6 0-1.3-.1-1.9-.1-.2-.2-.3-.5-.4-.8-.1-.3-.5-.2-.4.1.1.2.1.4.3.6-.7-.1-1.5-.1-2.2-.2-.2-.2-.3-.5-.4-.7-.1-.2-.4-.1-.3.1l.3.6-2.7-.3c-.3-.4-.6-.9-.9-1.3-.1-.2-.4 0-.3.2.2.4.4.7.6 1.1-.8-.1-1.6-.2-2.3-.3-.2-.2-.4-.5-.5-.8-.3-.5-.4-1-.6-1.6-.1-.3-.6-.2-.5.1.1.7.4 1.4.8 2.1-.8-.1-1.5-.2-2.2-.4-.9-1.1-1.5-2.2-1.7-3.8 0-.3-.5-.3-.4 0 .1 1.2.5 2.5 1.2 3.6-.7-.1-1.3-.3-1.8-.5-.9-1.1-1.5-2.3-1.9-3.6.2-.1.4-.2.5-.4.3-.5.2-1.1-.3-1.4-.6-.4-1.1-.8-1.6-1.2 0-3.6.5-6.8 2.2-9.9.5.8 1.1 1.6 1.8 2.3-1.2 2.3-1.9 4.8-1.6 7.4 0 .2.3.2.3 0 .1-2.6.4-4.9 1.5-7.2.7.8 1.4 1.5 2.1 2.3-.2.8-.4 1.5-.5 2.3 0 .2.2.3.3.1.3-.6.4-1.3.6-2 3.1 3 6.7 5.4 9.8 6.5 4.4 1.5 8.7 3.7 11.2 5.2-.8.4-1.6 1-2.5 2-1.5-.1-3.2-.1-4.9-.2-.3-.3-.7-.6-1-.9-.2-.1-.5.2-.3.4zm-19.4-23.2c-2.6 2.2-4.4 5.3-4.6 8.7-.5-1-.9-1.8-1.2-2.6.5-3.3 3.5-7 5.5-9.1v.8c0 .8.1 1.5.3 2.2zm0 14.7c-.7-.6-1.2-1.2-1.8-1.8.4-3.6 1.2-6.7 3.1-9.8.3.6.6 1.1 1 1.7-1.8 2.9-2.8 6.4-2.3 9.9zm-2.2-2.3c-.8-1-1.5-2-2-2.9.4-3.5 1.7-6.6 4.4-9 .2.7.5 1.4.9 2.1-1.9 2.9-3.2 6.3-3.3 9.8zm-1.5 1.4c0 1.2.2 2.5.7 3.6l-2.7-2.4c-.3-1.6-.5-3.1-.4-4.7.7 1.1 1.4 2.3 2.4 3.5zm.5.5c.6.7 1.4 1.4 2.2 2.1.1 1.2.5 2.3 1.1 3.3-.8-.6-1.6-1.2-2.4-1.9-.5-1.1-.8-2.3-.9-3.5zm2.6 2.5c.4.4.9.7 1.4 1.1.1.1.2.1.4.1.3 1.2.8 2.3 1.5 3.3-.7-.3-1.3-.7-2-1.1-.5-1.1-1-2.2-1.3-3.4zm27.1 9.3c.6 0 1.2 0 1.8.1-.4 1.1-.8 2.3-1.1 3.4-.2.9-.2 1.7-.3 2.5-.1 1.8-.1 2.9-2.2 4-.7.4-1.2.4-1.3.3-.4-.4-.6-2.9 1.7-7.8.5-1.1.9-1.9 1.4-2.5zm-12.2-17.9c-1.2.8-2.1 2.2-2.7 3.6-1.4-1.1-2.8-2.3-4-3.6.9-.9 1.9-1.8 2.6-2.8.1-.2-.1-.3-.3-.2-.9.8-1.8 1.8-2.6 2.7-.8-.8-1.5-1.6-2.1-2.4 1.1-.9 2.3-1.7 3.4-2.5.2-.1.1-.4-.1-.3-1.3.5-2.5 1.4-3.6 2.5-.5-.6-.9-1.3-1.3-1.9 1.1-.7 2.2-1.4 3.2-2.2.1-.1 0-.3-.2-.2-1.1.6-2.1 1.4-3.2 2.1-.5-.8-.9-1.6-1.2-2.3 1.5-.8 3-1.4 4.6-2 0 0 .1 0 .1-.1 1.3 3.7 4.4 6.9 4.5 7.1.2.2.3.2.6.3.6.7 1.4 1.4 2.3 2.2zM82 155.1c.3.3.6.7.9.9-.1.3-.1.6-.1.9-.3-.2-.7-.4-1-.7-.4-.3-.7-.5-1.1-.8.2-.4.4-.8.6-1.1.3.3.5.5.7.8zm-.3-1.1c.2-.2.4-.5.6-.7.3.3.6.7.9 1-.1.3-.1.7-.2 1l-.6-.6c-.2-.3-.5-.5-.7-.7zm0 2.8c.3.3.7.6 1.1.8-.1.6-.1 1.1-.2 1.6-.3-.2-.6-.4-.9-.7-.5-.4-.9-.7-1.4-1v-.4l.3-1.2c.3.3.7.6 1.1.9zm0 4c-.4-.4-.8-.7-1.2-1.1l-.3-1.5c.4.3.7.6 1.1.9.4.3.7.6 1.1.9 0 .5-.1.9-.1 1.3-.2-.1-.4-.3-.6-.5zm.6 1.5v1.2c-.5-.8-1-1.6-1.3-2.5l.3.3c.3.3.6.7 1 1zm1.2-10c-.1.1-.1.2-.1.3-.1.3-.1.6-.2 1-.2-.2-.4-.4-.6-.7.4-.2.7-.5.9-.6zm0-2.4c-.3.1-.6.3-.9.5 0 0 0-.1-.1-.1l-.6-.3c.6 0 1.1-.1 1.6-.1zm-2.6.3c.5.2.9.4 1.4.5-.3.2-.7.5-1.1.9-.5-.5-1.2-.8-1.9-1.1.4-.1 1-.2 1.6-.3zm-3.1 1c.2-.2.4-.3.7-.4.3.1.7.2 1 .4.5.2.9.5 1.4.7-.3.3-.6.6-.8.9-.9-.4-1.9-.7-2.8-1 .3-.4.5-.6.5-.6zm-.8.9c.9.4 1.9.7 2.8 1-.3.4-.6.8-.8 1.3-1-.4-2.1-.6-3.2-.8.4-.6.8-1.1 1.2-1.5zm-1.4 1.9c1.1.2 2.1.6 3.2.9-.2.4-.3.7-.4 1.1-1.2-.2-2.4-.4-3.6-.5.3-.6.5-1.1.8-1.5zm-.9 1.8c1.2.2 2.5.4 3.7.6 0 .1-.1.3-.1.5-.1.4-.1.8-.1 1.1-1.5-.1-3 .2-4.4.6.2-1 .5-1.9.9-2.8zm-1 3.2c1.5-.4 3-.6 4.5-.8.1.9.2 1.8.5 2.6h-.1c-1.7.2-3.2 1-4.7 1.9-.3-.8-.4-1.6-.4-2.3.1-.4.2-.9.2-1.4zm-3.8-.2c.1-.1.2-.2.2-.4v-.1c.6-.6 1.1-1.3 1.7-1.9.1-.1-.1-.3-.2-.2l-1.2 1.2c.8-1.9 1.9-3 3-3.8-.8 1.5-1.5 3.3-1.7 5.3-2.1 2-3.8 4.4-5.1 7-.3.6-.6 1.2-.8 1.8-.2-.4-.2-.8-.3-.9-.1-1.8 2.6-5.9 4.4-8zm-4.4 13.5c-.3 1.6-.3 3.2.1 4.7-.8-.8-1.6-1.6-2.2-2.3 0-1.8.3-3.4.9-5 .4.8.7 1.7 1.2 2.6zm-1.4-3c-.8 1.6-1.2 3.3-1 5-.8-.8-1.3-1.5-1.8-1.9l2.8-3.1zm-20.9 14c.3.3.6.8 1.1 1.4-.5-.3-1.1-.6-1.6-1 .1-.1.3-.3.5-.4zm-4.2 4.4c.5-1.2 2-2.6 3.3-3.7.9.6 1.7 1.1 2.7 1.6.5.8 1.1 1.8 1.7 3-1.8-1.1-3.8-1.8-5.8-2.7-.3-.1-.5.3-.2.4 2 .9 4 2.1 6.1 2.8h.2c.4.9.9 1.9 1.3 3-3.1-1.3-6.1-2.6-9.1-4.1H39c-.1-.1-.1-.2 0-.3zm-2.2 10.9c3.3 2.2 6.9 3.9 10.8 4.6.2 0 .3-.3.1-.3-3.8-1.2-7.4-2.6-10.8-4.8 0-1.2.2-2.3.3-3.4 3.8 2.1 7.8 3.9 12.1 4.8.2.1.3-.3.1-.4-4.1-1.5-8.2-3-12.1-4.9.4-2.6 1.1-4.7 1.5-5.9 0 0 0 .1.1.1 3 1.8 6.1 3.4 9.5 4.4.3 1 .7 2.1.9 3.3-3.7-1.5-7.5-2.8-11-4.9-.2-.1-.4.2-.2.4 3.4 2.2 7.2 4.2 11.3 5 .4 1.9.6 3.9.7 6.1v3.9c-5.3-1.5-11.8-4.3-13.1-5-.2-1.2-.2-2.1-.2-3zm.4 20.3c0-.1 0-1.3-.1-3.1 1.7 1.2 3.6 2.4 5.6 3.1h-5.5zm12.8 0h-5.9c-2.4-1-4.7-2-6.9-3.5 0-2-.1-4.5-.1-6.8 3.4 2.9 8.5 5 12.9 6.2v4.1zm0-4.6c-4.3-2-9.1-3-12.9-6v-2.8c3.3 2.6 7.2 4.3 11.2 5.5.1 0 .1-.1.1-.1-3.8-1.8-7.8-3.2-11.2-5.6 0-1.9 0-3.2-.1-3.3 1 .6 6.2 3.1 13 5.1-.1 2.1-.1 4.9-.1 7.2zm99.2 4.6H52v-16.3c-.2-11.5-5.4-18.5-7.3-20.6 1-1.1 3.1-3.3 4.8-4.3 1.9-1.2 8.1-3.5 10.1-4.2 1.9 2.1 9.1 10.1 14.6 12.4 4 1.6 14.4 2.3 21.9 2.7-.3.5-.6 1-.9 1.6-1.1 2.4-3.5 8.1-1.3 10.1.3.3.8.6 1.6.6.6 0 1.2-.2 2.1-.6 3.1-1.7 3.2-3.8 3.3-5.7 0-.7.1-1.4.2-2.1.1-.4.2-.9.4-1.4.2 2.8.5 6.5 1 11.4.1.5.5.9 1 .9h.1c.6-.1 1-.5.9-1.1-.3-3.5-.6-7.1-.9-10.3 1.2 4.1 2.8 8.8 4.3 10.5.3.4 1 .5 1.4.1.4-.4.5-1 .1-1.4-1.6-1.9-3.5-8.4-4.7-12.7.2-.1.4-.1.8-.2.3.5.7 1.5 1.2 2.5 1.2 2.8 2.6 6.2 5.2 7.2.4.2.8.2 1.2.2.9 0 1.6-.4 2.1-1.1 1.1-1.7.5-5.4-2.8-8.8l-1.7-1.7c.4-.1.8-.3 1.3-.4v.1c-.1.1.1.2.2.1l.3-.3c4.5-1.5 9.8-3.3 13.2-4.6l.7-.3c6.2-2.5 12.1-4.8 13.5-8.8 1.6.5 4.5 1.5 5.8 2.1 1.2.5 5.4 3.9 8.1 6.4-1.2 2.1-4.1 8.5-4 21.6-.2.2-.5 13.1-.6 16.4zm2.3 0v-3.2c1.8 1.4 3.9 2.7 6.1 3.1.1 0 .3-.2.1-.3-2.1-1-4.2-1.8-6.2-3.1v-4.6c3.4 2.8 7.6 4.9 11.5 6.8v1.4l-11.5-.1zm-102.3-1.2c.2 0 .2-.2.1-.2-4.2-1.7-8.1-3.2-11.9-5.7-.1-.1-.2.1-.1.2 3.3 2.6 7.6 5 11.9 5.7zm85.3-42.8c.6-1.4.7-3 .6-4.5 0-.2-.3-.2-.3 0 .1 1.5-.1 3-.4 4.5-.1 0 .1.1.1 0z"/>
    <path d="M64.8 80.5c-.2-.3-3.3-4.3-5.9-6.7s-3.4-2.4-4.6-.9c-1.3 1.5-2.9 9.1-2.5 12.4.4 3.4 3.6 8.7 5.2 11.7 1.7 3 3.3 6.7 5.1 6.3 1.9-.4 4.4-4.6 5.7-7.7 1.2-3.1.6-10.9-3-15.1z" fill="#fff"/>
    <path d="M56.9 98.9c-.3-.5-.5-1-.8-1.4l-.6-1c-1.8-3.1-4.4-7.8-4.8-11-.4-3.5 1.2-11.4 2.7-13.2.6-.7 1.2-1.3 2.2-1.4 1.2-.1 2.3.7 3.9 2.2 1.6 1.4 3.5 3.6 5.8 6.5l.2.3c3.9 4.6 4.5 12.8 3.2 16.1-1.1 3-3.9 7.8-6.4 8.3h-.5c-2 .1-3.4-2.6-4.9-5.4zm7.2-17.8s-.1-.1-.2-.3c-2.2-2.8-4.1-5-5.6-6.3-1.2-1.1-2.1-1.7-2.4-1.7-.2 0-.4.2-.8.7-1 1.2-2.6 8.4-2.3 11.7.3 2.8 2.8 7.3 4.5 10.3l.6 1c.3.5.5 1 .8 1.4.9 1.7 2.5 4.6 3.3 4.4 1.2-.2 3.6-3.7 4.9-7.1 1.1-2.8.4-10.2-2.8-14.1z"/>
    <path d="M54 87c-.3-2.3-.5-7.8.8-9.6 2.2-2.9 6 6.4 6.9 9.3 0 .1.1.2.1.3.2.3-.1.7-.4.6-.4-.2-.9-.6-1.3-.8-1.1-.5-1.6.5-1.3 1.8.4 1.8 1.4 2.9 2.2 4.3.1.2 0 .4-.2.3-1.6-.9-3.5-4.5-3.1-6.6.3-2 1.9-1.8 3.1-.8-.7-1.7-1.5-3.3-2.5-4.8-.6-.9-1.2-2-2.2-2.2-1.2-.2-1 .3-1.2 1.8-.8 4.8-.3 10.4 2.5 14.5.1.1 0 .2-.1.1-1.7-2.3-2.9-4.9-3.3-8.2z"/>
    <path d="M135.2 80.5c.2-.3 3.3-4.3 5.9-6.7 2.6-2.4 3.4-2.4 4.6-.9s2.9 9.1 2.5 12.4c-.4 3.4-3.6 8.7-5.2 11.7-1.7 3-3.3 6.7-5.1 6.3s-4.4-4.6-5.7-7.7c-1.2-3.1-.6-10.9 3-15.1z" fill="#fff"/>
    <path d="M138.1 104.4h-.5c-2.5-.5-5.2-5.4-6.4-8.3-1.3-3.4-.7-11.5 3.2-16.1l.2-.3c2.3-2.9 4.2-5.1 5.8-6.5 1.6-1.4 2.7-2.2 3.9-2.2 1 .1 1.6.7 2.2 1.4 1.5 1.8 3.1 9.7 2.7 13.2-.4 3.2-3 7.9-4.8 11l-.6 1c-.3.5-.5.9-.8 1.4-1.4 2.7-2.8 5.4-4.9 5.4zm-2.2-23.3c-3.2 3.9-3.9 11.2-2.8 14.1 1.3 3.4 3.7 6.9 4.9 7.1.8.2 2.4-2.7 3.3-4.4.3-.5.5-1 .8-1.4l.6-1c1.7-3 4.2-7.5 4.5-10.3.4-3.3-1.3-10.5-2.3-11.7-.4-.4-.6-.7-.8-.7-.3 0-1.2.5-2.4 1.7-1.5 1.4-3.3 3.5-5.6 6.3 0 .2-.1.3-.2.3z"/>
    <path d="M146 87c.3-2.3.5-7.8-.8-9.6-2.2-2.9-6 6.4-6.9 9.3 0 .1-.1.2-.1.3-.2.3.1.7.4.6.4-.2.9-.6 1.3-.8 1.1-.5 1.6.5 1.3 1.8-.4 1.8-1.4 2.9-2.2 4.3-.1.2 0 .4.2.3 1.6-.9 3.5-4.5 3.1-6.6-.3-2-1.9-1.8-3.1-.8.7-1.7 1.5-3.3 2.5-4.8.6-.9 1.2-2 2.2-2.2 1.2-.2 1 .3 1.2 1.8.8 4.8.3 10.4-2.5 14.5-.1.1 0 .2.1.1 1.7-2.3 2.9-4.9 3.3-8.2z"/>
    <path d="M138.2 58.2c-2-10.8-13.3-27.4-37.2-27.4S69.1 43.5 65.5 53c-3 8.1-3 21.3-3 21.3s.4 28.4 10 46.1c9.3 17 28.9 31.8 46.2 11.8 21.5-24.8 20.6-57.8 20.6-57.8s.3-8.5-1.1-16.2z" fill="#fff"/>
    <path d="M100.7 143.1c-.8 0-1.5 0-2.3-.1-11.8-1.3-21.7-12.2-27-22-9.6-17.7-10.2-45.5-10.2-46.7 0-.6 0-13.6 3.1-21.8 5.8-15.5 17.8-23 36.7-23 10.9 0 20.5 3.4 27.7 10 5.5 5 9.6 11.9 10.8 18.5 1.4 7.6 1.2 15.7 1.2 16.4s.1 8.8-2.3 19.9c-2.3 10.5-7.4 25.8-18.7 38.8-5.8 6.6-12.2 10-19 10zm.3-111c-17.7 0-28.9 7-34.3 21.3-2.9 7.8-2.9 20.8-2.9 20.9 0 .3.5 28.3 9.9 45.5 5 9.2 14.2 19.5 25 20.6 6.8.7 13.3-2.3 19.1-9.1 20.9-24.1 20.3-56.6 20.3-57 0-.1.2-8.4-1.2-15.9-1.1-6-4.8-12.4-10-17-6.6-6.1-15.6-9.3-25.9-9.3z"/>
    <path d="M114.77 119.83c-1.13.44-2.28.54-3.44.5-1.86-.99-3.84-2.01-5.96-2.23-2.25-.23-4.37 1.18-6.55.6-1.62-.43-2.83-1.07-4.53-.62-2.55.67-4.74 2.91-7.53 1.8-.08-.03-.14-.02-.19.01-.21-.08-.41-.16-.62-.26-.33-.16-.61.33-.29.49.82.41 1.64.6 2.47.68.01.01 0 .02.02.03 6.71 6.02 16.81 5.73 23.65.07 1.04.01 2.08-.11 3.11-.52.35-.13.2-.68-.14-.55zm-16.76-.81c1.63.54 2.65.39 4.28-.03 2.77-.72 5.16.06 7.55 1.23-2.67-.3-5.34-.96-7.92.34-1.04.52-1.2.66-2.56.65-1.39-.01-1.47-.19-2.53-.68-.69-.31-1.37-.49-2.12-.57-1.26-.13-2.5.04-3.73.18 2.54-1.04 4.18-2.06 7.03-1.12zm-8.95 1.81c1.16 0 2.34-.18 3.57-.28 1.98-.16 3.32.32 5.07 1.13.7.32 1.27.57 2.06.48 1.3-.16 2.36-1.22 3.58-1.61 1.62-.53 3.37-.25 5.01-.01.87.13 1.73.26 2.58.32-6.42 4.96-15.56 5.2-21.87-.03z"/>
    <path d="M85 84.8c-1-1.9-3.2-2.7-5.2-2-2.2.8-3.8 3-3.1 5.4.4 1.2 1.5 2.4 2.8 2.7.5.1 1 .1 1.5.1.5.1 1.1 0 1.7-.2 2.4-.9 3.5-3.7 2.3-6z" fill="#fff"/>
    <path d="M83.4 85.8c0-.1 0-.1-.1-.1-.6-1.1-2-1.5-3.1-1 .2.2.4.5.6.7.2.3.5 1 .1 1.2-.4.2-1 0-1.3-.2-.2-.1-.3-.3-.5-.5 0 .1-.1.1-.1.2-.1.2-.1.4-.1.6-.2.7 0 1.4.5 1.9.2.2.5.3.8.4.6.3 1.2.4 1.8.1-.1-.1-.2-.2-.2-.4 0-.3.2-.6.5-.7.3-.1.6 0 .7.2.3-.3.5-.7.6-1.1.2-.3.1-.9-.2-1.3zm-2 5.3H81c-.5 0-1 0-1.4-.1-1.3-.3-2.4-1.4-2.9-2.8-.8-2.5.9-4.8 3.1-5.5 2.1-.8 4.4.1 5.4 2 .6 1.1.7 2.5.2 3.7s-1.4 2.1-2.6 2.5c-.5.2-1 .2-1.4.2zm-.4-.3c.6.1 1.1 0 1.6-.2 1.1-.4 2-1.2 2.4-2.4.4-1.1.4-2.3-.2-3.4-.9-1.8-3.1-2.6-5-1.9-2.1.7-3.7 2.9-3 5.2.4 1.3 1.5 2.3 2.7 2.6.5.1 1 .1 1.5.1z"/>
    <path d="M81 74.4c-6.9 0-12.5 5.6-12.5 12.5S74.1 99.4 81 99.4s12.5-5.6 12.5-12.5S87.9 74.4 81 74.4zm7.1 17s-3.9.4-5.4.4c-4.1 0-7.1-1.8-7.1-1.8s-7.5-5.3-2.3-7.1c5-1.7 11.2.8 13.2 2.9 2.1 2.1 1.6 5.6 1.6 5.6z" fill="#fff"/>
    <path d="M71.3 84c-.3.8-.2 1.7.4 2.8 1.4 2.4 3.9 4.2 7.1 4.9 1.2.3 2.5.4 3.9.4s3-.1 4.7-.4c.1 0 .2-.1.3-.2 0 .1.1.3.3.3.2.1.5 0 .6-.3.7-1.9 0-4.3-1.6-6-1.2-1.3-3-2.2-5.4-3-3.2-.9-5.9-1-8.2-.2-1.2.5-1.8 1-2.1 1.7zm.8.4c.2-.5.7-.8 1.5-1.1 2.1-.7 4.7-.6 7.7.2 2.3.7 3.9 1.5 5 2.7 1.4 1.4 1.9 3.4 1.4 4.9-.1-.2-.2-.3-.4-.3h-.1c-3.3.6-6 .6-8.3 0-2.9-.7-5.3-2.3-6.5-4.5-.3-.5-.6-1.3-.3-1.9zm-4.9-3c.1 0 .2.1.2.2 0 .3.1.5.3.7.4.3 1.3.4 2.2.3.4-.1.9-.3 1.6-.5 1.6-.6 3.8-1.3 6.5-1.4 3.6-.1 8.3 1.2 10.3 4.2 1.2 1.7 1.7 4.2 1.5 7.2v.1c0 .1-.1.2-.2.2s-.2-.1-.2-.2V92c.2-2.9-.3-5.3-1.4-7-1.9-2.8-6.5-4.1-9.9-4-2.6 0-4.8.8-6.4 1.3-.6.2-1.2.4-1.6.5-1.1.4-2.1.2-2.6-.2-.3-.2-.5-.6-.5-1 0-.1.1-.2.2-.2z"/>
    <path d="M123.4 84.8c-1-1.9-3.2-2.7-5.2-2-2.2.8-3.8 3-3.1 5.4.4 1.2 1.5 2.4 2.8 2.7.4.1.9.1 1.4.1.5.1 1.1 0 1.7-.2 2.5-.9 3.6-3.7 2.4-6z" fill="#fff"/>
    <path d="M121.8 85.8c0-.1 0-.1-.1-.1-.6-1.1-2-1.5-3.1-1 .2.2.4.5.6.7.2.3.5 1 .1 1.2-.4.2-1 0-1.3-.2-.2-.1-.3-.3-.5-.5 0 .1-.1.1-.1.2-.1.2-.1.4-.1.6-.2.7 0 1.4.5 1.9.2.2.5.3.8.4.6.3 1.2.4 1.8.1-.1-.1-.2-.2-.2-.4 0-.3.2-.6.5-.7.3-.1.6 0 .7.2.3-.3.5-.7.6-1.1.2-.3 0-.9-.2-1.3zm-2.1 5.3h-.4c-.5 0-1 0-1.4-.1-1.3-.3-2.4-1.4-2.9-2.8-.8-2.5.9-4.8 3.1-5.5 2.1-.8 4.4.1 5.4 2 .6 1.1.7 2.5.2 3.7s-1.4 2.1-2.6 2.5c-.5.2-.9.2-1.4.2zm-.3-.3c.6.1 1.1 0 1.6-.2 1.1-.4 2-1.2 2.4-2.4.4-1.1.4-2.3-.2-3.4-.9-1.8-3.1-2.6-5-1.9-2.1.7-3.7 2.9-3 5.2.4 1.3 1.5 2.3 2.7 2.6.5.1 1 .1 1.5.1z"/>
    <path d="M119 74.4c-6.9 0-12.5 5.6-12.5 12.5s5.6 12.5 12.5 12.5 12.5-5.6 12.5-12.5-5.6-12.5-12.5-12.5zm5.3 15.6s-3 1.7-7.1 1.8c-1.5 0-5.4-.4-5.4-.4s-.5-3.4 1.5-5.5 8.2-4.6 13.2-2.9c5.4 1.7-2.2 7-2.2 7z" fill="#fff"/>
    <path d="M126.6 82.4c-2.3-.8-5.1-.7-8.2.2-2.4.7-4.2 1.7-5.4 3-1.6 1.7-2.3 4-1.6 6 .1.2.3.4.6.3.2-.1.3-.2.3-.3.1.1.2.2.3.2 1.7.3 3.3.4 4.7.4 1.4 0 2.7-.1 3.9-.4 3.1-.7 5.7-2.6 7.1-4.9.6-1.1.7-2 .4-2.8-.4-.8-1-1.3-2.1-1.7zm.9 3.9c-1.2 2.2-3.6 3.8-6.5 4.5-2.3.6-4.9.5-8.3 0h-.1c-.2 0-.4.1-.4.3-.5-1.6.1-3.5 1.4-4.9 1.1-1.2 2.7-2 5-2.7 3-.9 5.6-.9 7.7-.2.8.3 1.3.6 1.5 1.1.3.6 0 1.4-.3 1.9zm5.2-4.9c-.1 0-.2.1-.2.2 0 .3-.1.5-.3.7-.4.3-1.3.4-2.2.3-.4-.1-.9-.3-1.6-.5-1.6-.6-3.8-1.3-6.5-1.4-3.6-.1-8.3 1.2-10.3 4.2-1.2 1.7-1.7 4.2-1.5 7.2v.1c0 .1.1.2.2.2s.2-.1.2-.2V92c-.2-2.9.3-5.3 1.4-7 1.9-2.8 6.5-4.1 9.9-4 2.6 0 4.8.8 6.4 1.3.6.2 1.2.4 1.6.5 1.1.2 2.1.1 2.6-.3.3-.2.5-.6.5-1 0 0-.1-.1-.2-.1z"/>
    <path d="M74.33 71.59c1.52-.07 17.06 3.38 17.49 4.03.43.65-.65 3.02-1.15 3.17-.5.14-15.19-4.53-15.83-4.39-.65.14-6.91 2.59-7.34 2.38-.44-.22 5.32-5.12 6.83-5.19z" fill="#fff"/>
    <path d="M67.28 77.2c.35.18.9.08 5.66-1.64.84-.31 1.71-.62 1.97-.69.63.05 4.8 1.29 8.16 2.29 5.89 1.75 7.16 2.1 7.6 2.1.06 0 .11-.01.15-.02.67-.19 1.21-1.59 1.31-1.87.24-.64.45-1.52.11-2.03-.69-1.04-16.86-4.29-17.91-4.24-1.63.08-7.13 4.66-7.31 5.5-.07.26.04.49.26.6zm7.07-5.13c.13-.01.37.01.68.06l2.07 2.3c-1.61-.45-2.16-.55-2.37-.5-.03.01-.08.02-.12.04l-2.21-.88c.86-.59 1.6-1 1.95-1.02zm3.91 2.69-2.22-2.47c.77.13 1.74.32 2.82.54l1.57 2.56c-.84-.25-1.56-.46-2.17-.63zm3.08.9-1.63-2.65c.72.15 1.47.31 2.23.48l.63 2.53c-.43-.13-.84-.25-1.23-.36zm6.77 1.99c-.33-.1-.68-.2-1.05-.3l.67-2.5c.48.12.93.24 1.34.35l-.96 2.45zm1.59-2.28c.3.08.57.16.81.23l-.96 2.45c-.24-.07-.52-.14-.81-.22l.96-2.46zm-3.25 1.8c-.48-.14-.98-.29-1.48-.44l.38-2.46c.61.14 1.2.29 1.76.43l-.66 2.47zm4.1 1.13c-.09-.01-.22-.04-.37-.08l.95-2.41c.14.05.25.09.32.13.11.44-.52 1.99-.9 2.36zm-7.22-2.05c-.01 0-.03-.01-.04-.01l-.65-2.59c.7.16 1.4.32 2.08.48l-.37 2.43c-.34-.11-.69-.22-1.02-.31zm-10.72-1.59c-.12.04-.25.09-.39.14-.53.02-1.48.07-2.24.11.57-.47 1.19-.95 1.79-1.38l1.9.75c-.3.1-.63.23-1.06.38zm-3.91 1.36c.14-.13.31-.28.48-.43.27-.01.6-.03.96-.05-.52.18-1.02.35-1.44.48z"/>
    <path d="M125.67 71.59c-1.52-.07-17.06 3.38-17.49 4.03-.43.65.65 3.02 1.15 3.17.5.14 15.19-4.53 15.83-4.39.65.14 6.91 2.59 7.34 2.38s-5.32-5.12-6.83-5.19z" fill="#fff"/>
    <path d="M133 76.61c-.18-.84-5.68-5.42-7.31-5.5-1.06-.05-17.22 3.2-17.91 4.24-.34.51-.13 1.39.11 2.03.1.28.65 1.68 1.31 1.87.04.01.08.02.15.02.43 0 1.71-.35 7.6-2.1 3.36-1 7.53-2.24 8.16-2.29.25.07 1.12.38 1.97.69 4.76 1.72 5.3 1.81 5.66 1.64.2-.12.31-.35.26-.6zm-5.4-3.52-2.21.88c-.04-.01-.09-.03-.12-.04-.21-.05-.76.06-2.37.5l2.07-2.3c.31-.04.55-.06.68-.06.35.02 1.09.43 1.95 1.02zm-8.02 2.3 1.57-2.56c1.08-.22 2.05-.41 2.82-.54l-2.22 2.47c-.62.17-1.34.38-2.17.63zm-2.16.63.63-2.53c.76-.17 1.51-.33 2.23-.48l-1.63 2.65c-.38.11-.79.23-1.23.36zm-6.5-.82c.41-.11.86-.23 1.34-.35l.67 2.5c-.37.11-.72.21-1.05.3l-.96-2.45zm.35 2.63c-.3.08-.57.16-.81.22l-.96-2.45c.24-.07.51-.15.81-.23l.96 2.46zm1.61-3.13c.56-.14 1.15-.28 1.76-.43l.38 2.46c-.5.15-.99.29-1.48.44l-.66-2.47zm-4.32 1.23c.07-.04.18-.08.32-.13l.95 2.41c-.16.04-.29.07-.37.08-.39-.36-1.02-1.91-.9-2.36zm7.09.62-.37-2.43c.68-.16 1.38-.32 2.08-.48l-.65 2.59c-.01 0-.03.01-.04.01-.33.1-.68.21-1.02.31zm10.68-2.27 1.9-.75c.6.43 1.22.92 1.79 1.38-.76-.04-1.71-.09-2.24-.11-.14-.05-.27-.1-.39-.14-.43-.15-.76-.28-1.06-.38zm3.54 1.26c.36.02.68.03.96.05.17.15.33.3.48.43-.43-.13-.93-.3-1.44-.48zM95.9 107.5c2 1 4.3 2 6.4 1 2.2-1.1 2.2-3.4 2-5.6-.8-6.5-1.9-13-3.3-19.4-.2-.8-1.4-.5-1.2.3 1 4.7 1.9 9.4 2.6 14.2.3 2.3 1.1 5 .8 7.3-.5 3.6-4.5 2.2-6.6 1.1-.8-.3-1.4.8-.7 1.1z"/>
    <path d="M176.3 114.9c-1.2.3-1.9-.3-2.2-1.8l.9-1.2c.5-1 .6-1.8.6-2.8 0-.8-.5-1.5-1.1-1.8 1.4-3.2-.1-4.7-1.1-7.9-.8-2.6.4-4.4-2-6.5-.7-.6-1-.3-1.6-1.1-.3-.4-.2-1.2-.4-1.7-.4-.8-1.6-1.8-1.9-2.5-.5-1.4.5-3-.1-4.6-.5-1.3-1.6-1.7-1.7-3.2-.2-2.4 1.1-4.2-1-6.2-1.8-1.7-1.7-.6-1.9-3.4-.1-1.1.1-1.9-.5-2.9-.9-1.3-2-.7-3-1.5s-.4-1.3-.5-2.8c-.2-2.8-1.4-2.9-3.1-3.8-.1-2.2 0-3.9-1.4-5.2.3-1.2.2-2.5-.8-3.6-.7-.8-1.8-.7-2.5-1.1-.1 0-.1-.1-.1-.1 0-.1-.1-.4-.1-.7-.6-2-.9-3.1-3-3.6-1.6-.4-2.2.5-3.5-1.1-.3-.4-.1-1.6-.5-2.2-.9-1.3-1.9-.9-2.9-.9-.3-.8-.6-1.4-1.6-2-.2-.2-.5-.3-.8-.3-.3-.7-.7-1.3-1.7-1.7-.2 0-.6-.1-1-.1-.2-.8-.3-1.5-1.3-2.1-.1-.1-.3-.1-.5-.2-.9-1-1.9-1.2-3-1-.2-1.5-1.4-2.8-3.1-2.3-2.9.8-2.3-.4-4.3-1.7-1.7-1.1-2.9.1-4.3-.4-.8-.3-1.6-1.5-2.7-1.8-1.4-.4-2.7.7-3.9.4-1-.3-1.4-1.6-2.7-1.8-.7-.1-2.7.7-2.8 1.2-.5-.5-1.1-1.2-1.8-1.2-1.2 0-2.3 1-3.3 1.8-.6-.8-1.4-1.4-2.5-1.4-.4-.6-1.1-1.1-2.1-1.2-.7-.1-1.4 0-2.1.3-.7-.8-1.7-1.2-2.8-.9-.7.2-1.1.4-1.7.8l-.4.4c-.4-.2-.9-.4-1.4-.5-.9-.1-1.7.1-2.4.4-.2-.1-.4-.2-.7-.3-1.2-.2-2.3-.3-3.4.1-.6.2-1 .6-1.4 1-.2 0-.3-.1-.5-.1-.7-.1-1.4-.1-2 .2-.5.2-1.3.9-1.5 1.5 0 .1 0 .1-.1.2-.2-.1-.3-.2-.5-.3-2.1-1-3.9.9-4.4 2.9-.5-.1-1 0-1.5.4-1 .9-2.2 1.1-3.5.9-1.8-.4-3.2.8-3.3 2.6-.1 1.5-1.8.3-3.2 1-1.4.7-1.5 1.9-2 3.1-.5 1.3 1 .1.1.9-.3.2-1.4.2-1.8.4-1.1.6-1.6 1.6-1.8 2.7-.1.5 0 .9 0 1.4.1.9.1 1.5.3 1.4-.7.4-2 .5-2.7 1.2-1.1 1.1-1.5 2.6-1.3 4-.8.3-1.6.4-2.6.6-1.2.2-1.7 1.7-1.5 2.7.1.5 1.4 2.6 1.3 2.8-.2 1.1-1.4.9-2.2 1.5-.9.8-1.3 4.6-2.2 4.5-.9-.1-1.4.8-1.5 1.5-.2 1.4 1.8 3.6-.5 4.1-1.2.3-1.9 1.9-1.2 3 1.5 2.3-1.1 2.5-1.6 4.5-.2.7 0 1.6.3 2.2.3.5.4.8.6.9-.9.4-2.2.4-2.9 1.5-.6.9-.3 4.6-.7 4.6-1.8.1-3.3 2.1-2.2 3.8.5.6.9 1.2 1.2 1.9-2 .2-3.1 2.1-2.2 3.9l1.3.7c-1.7-.3-3.5 1.1-2.9 2.9.3 1.1.8 1.9 1.2 2.8-.7.4-1.5.7-1.9 1.6-.6 1.4.9 3.9-.9 4.6-.8.3-1.1 1.1-.8 1.8.5 1.1.8 2 .6 3.3-.1.6-.9 1.1-.8 1.8 0 1.5.2 2.2 1.6 2.7 1.3.6 2.8-.9 1.6-2.1.4.4 1.1-3.8 1.1-3.9-.1-.6-.5-1.1-1-1.6 1.4-.5 2.5-1.3 2.8-3 .1-.4.1-1.8-.3-1.9.4-.2 1.2-.5 1.8-.8-.7.9-.6 2.5.1 3.4-1.6 1.2-1.9 4.5.7 4.9 1.1.2 1.3.4 1 1-1.2.5-2 2-.8 3.1.1.1.2.2.3.2.1.1.1.2.2.3-.2.1-.4.1-.6.3-.6.4-1.2 1.1-1.4 1.8-.2.8-.1 1.6.3 2.3.4.6 1 1.3 1.8 1.4 0 .2 0 .3-.1.5-.2 2.3 3.2 3.1 4.3 1.2.3-.8.8-1.4 1.6-1.8 2.1-.2 3.4-2.2 2.4-4.1.1-.8.2-1.7.3-2.5.7-.7.9-1.6.8-2.5.2.8.6 1.5 1.2 2-1.7.8-2.6 3.6-.4 4.6.1 0 .2.1.2.1-.1.1-.2.1-.2.2-1.7 1.1-1.6 3.2 0 4.3-.1.3-.2.6-.4.9-1.9 1.3-.8 5 1.7 4 3-1.2 4.1-3.9 3.3-6.4.4-.3.9-.7 1.4-1.2.9-.8.8-2.2 0-3.1 0 0 0-.1-.1-.1.4-.3.8-.6 1.3-.9.2-.1.3-.3.4-.5.2.6.6 1.1 1.1 1.4.1.1.2.2.3.2-.5.3-1 .6-1.4 1.4-.7 1.2-.2 3.1 1.1 3.7-1.5 1-1 3.4.5 4.2-.3 1.7 1.2 3.9 3.2 3.1.7-.3 1.4-.6 2.2-.9 2.3-.9 2.5-3.4.6-4.9l-.9-.6c.3-.9.3-1.9 0-2.8.1-.1.2-.1.3-.2.7-.6 1.1-1.2 1.3-2.1.3-1.5-.2-2.5-1-3.4 1-.7 1.9-1.5 1.9-3.2 0-1.5-.7-2.6-1.8-3.5.4-.5.8-1.1.8-1.6.2-1.4-.1-2.2-.9-3.3-.2-.2-.9-1.1-1.5-1.4.6-1 1.4-3.1 1.2-4.2-.2-1.2-.8-2.2-1.6-3.1 1.5-1.8 1.5-4.4.2-6.5 1.6-1.8 1.8-4.3.9-6.5.4-.3.8-.8 1.1-1.2-.2.5-.2.9-.2 1.5.2 2 1.2 3.7 1.1 5.8-.1 1.7-.6 1.5-.1 3.2.1.3.5.5.6.8.5 1.2 1 2.4.7 4.1-.2 1.2-1.2 2-1 3.4.1 1.2.6 1.2 1.1 2.3.8 1.6.4 1.2-.3 3.1-.8 2.2-.3 2.3.8 3.9.8-.1 1.1.3.9 1.1.1.4.1.9-.1 1.3 0 .5-.2.8-.1 1.2.2.7.3 1.1.6 1.4-.8 1.6-1 3-.2 4.8.2.4.9.6 1 0 .1-1.6.7-3 1.8-4.3.5-.6.5-1.6-.2-2-.8-.4.3-2.8.2-3.5-.1-.7-.6-1.2-1-1.8-1-1.3-1.4.1-.4-2 .4-.8 1.2-1.3 1.3-2.3.3-2.9-2.9-2.2-2.2-5.4.7-3.1 1.8-3.1.4-6.2-1.1-2.5-.1-4-.5-6.6-.1-.6-.8-.9-.9-1.5-.4-1.2.1-2.8.5-4 .3-.9 1-1.6.8-2.6-.1-.8-.6-1-.9-1.6-.1-.2-.8-.2-.9-.4-.4-1.1 1-2.6 1.2-3.7.1-.4.1-.7.2-1.1.4.1.9-.2.9-.7 0-1.1 0-2.1.1-3.1.1-.8.1-1.6.2-2.4.2.7.4 1.3.7 2 .3.7 1.3.2 1.2-.5-.2-1.3-.3-2.6-.3-4 .3 1.6.7 3.2 1.3 4.8.2.6 1.3.6 1.2-.2-.3-3.5-.8-6.6-.6-9.9-.1 3.3.1 6.4.7 9.2.2.8 1.3.6 1.3-.2.1-1.6.1-3.2.2-4.9.2 1.7.5 3.4.9 4.8.2.8 1.4.6 1.4-.2.1-1.2 0-2.5 0-3.7.2 1.4.5 2.8.9 4.1.2.7 1.3.6 1.3-.2 0-1.8 0-3.5-.1-5.3.3 1.7.6 3.4 1.2 5 .2.6 1.1.4 1-.3-.2-1.4-.4-2.7-.5-4.1l.2.2c.1 1.4.2 2.7.4 4 .1.8 1.5.6 1.5-.2-.1-1.2-.1-2.4 0-3.6.1 1.5.3 3.1.5 4.5.1.7 1.2.5 1.2-.2v-2c.1.8.2 1.6.4 2.4.1.5.9.4.9-.1.1-1.9.3-3.9.5-5.8 0 1.8 0 3.6.1 5.3.1.7.9.6 1 0l.3-2.4v3.6c0 .6.9.7 1 .1.1-.3.1-.6.1-.8v.2c0 .5.8.7.9.1.1-.2.1-.5.2-.8 0 .4 0 .8.1 1.1 0 .4.7.6.8.1l.3-2.1c0 .5 0 1 .1 1.5 0 .4.7.6.8.1l.3-2.1c0 .8 0 1.5.1 2.2 0 .4.7.6.8.1.7-4.7.8-9.5.8-14.2.1-1.3.1-2.5 0-3.8 0-.8.1-1.7.1-2.6 0-.2.1-.4.1-.5.4 7 0 13.9 0 21.1 0 .4.7.6.8.1 1.3-7.8 2.1-16.4.9-24.5.5 2 1 4.1 1.6 6.1.1.8.2 1.5.3 2.3.5 5.2.1 10.5.5 15.7 0 .5.8.6.9.1.9-3.7 1-7.6.8-11.5.1-.1.1-.2.1-.3l-.3-3.9v-.2l-.3-4.2.6 2.7c1.1 5.6 1.7 11.3 2.4 17 .1 1.1 1.7 1.1 1.7 0 0-.8-.1-1.6-.1-2.4h.1c.1.8.2 1.6.2 2.4.1.5.7.5.8 0 .5-4.1.6-8.4.3-12.7 0-.8.1-1.6.1-2.5v.1c.1.8.1 1.6.1 2.4.2 4.4-.3 8.8.2 13.1.1.4.7.6.8.1.3-1.2.6-2.5.7-3.9.1.9.3 1.8.4 2.7.1.7 1.1.5 1.1-.2v-4.8c.2 1 .3 2 .6 3 .1.6 1 .4 1-.1.2-6.6-.4-15.2-2.2-22.2.8 2.5 1.4 5.1 1.8 7.7.9 5.5.9 11.1 1 16.7 0 .5.7.6.8.1.5-2.1.8-4.2.9-6.4.2 1.9.4 3.8.5 5.8 0 .2.2.4.4.4.1.4.8.4.9-.1.1-1.2.3-2.3.4-3.5.2 0 .4 0 .6-.1.1 1.3.1 2.6.2 3.9 0 .6 1.1.8 1.2.2 0-.2 0-.4.1-.6.1 1 .2 2.1.3 3.1.1.5.7.5.8 0v-.4c.1.3.6.4.7 0 1-5.2 1-11 .3-16.6.1 0 .1 0 .1-.1.1.8.3 1.6.3 2.3.5 4.6.4 9 .2 13.5 0 .7 1.1.8 1.2.2 1.2-4.1 1.1-8.4.7-12.7.8 3.4 1.6 6.8 2.1 10.3v.4c0 .3.2.4.4.4 0 .3.1.5.1.8 0 .2.2.4.3.4v.1c0 .6.7.6.9.1.6-1.6 1-3.3 1.3-5 0 1.7.1 3.4.1 5.1 0 .5.7.6.8.1.1-.5.2-1.1.3-1.6v.8c0 .7 1 .8 1.2.2 0-.2.1-.3.1-.5.1 1.8.3 3.6.4 5.3 0 .5.6.6.8.2 0 .6.8.7 1 .1.2-.7.4-1.3.6-2l.3 6.3c0 .6 1 .8 1.1.2.1-.4.1-.9.2-1.3V77c0 .4.3.6.6.7.2.3.5.4.4 1.1-.1.1-.2.2-.3.4-.3.5-.4 1.2-.4 1.8v.1c-.9 2.2-1.2 2.1-1 4.4.2.4.6.7.9.9-.1.9-.5 1.7-1.1 2.4-.2.5-.4 1-.5 1.6-.2 1.2.7 1.6.3 3.2-.3 1-1.2 1-1.4 2.2-.2 1.3.2 2.3 1 3.1-1.1 1.8-1.2 3.8.4 5.5.5.5 1.4 0 1.2-.7-.5-1.4-.4-2.8.5-4.2.4-.6.4-1.2-.2-1.6-2.7-2 .9-2.7 1-3.9 0-.4-.2-2.4-.2-2.6.2-1.4.9-2.4 1.3-3.6.1.2.2.4.2.7 0 .6-.6.9-.7 1.6-.2 1.1-.5 1.5-.2 2.6.2.9 1.3 1.5 1.5 2.2.3.9-.1.9-.6 2.1-.4.9-.7 1.7-.5 2.7.1.7.4 1.4.8 1.9.3.3.5.5.7.6l-.1.1c-1.5 2.1-1.6 4.5-.4 6.3-.7.9-1.2 1.9-1.2 3.2 0 .7.3 1.6.6 2.2.1.1.4.6.8.9-.1.3-.2.6-.2.9-.2.8-.3 1-.2 1.8.1 1.1.6 2 1.2 2.7-.8 1.6-.8 3.5.1 5.1-.8 1.4-.8 3.1.1 4.5-.8 2.5 2.6 4.4 4.1 2 .2-.4.5-.8.7-1.2.5-.8.4-2.2-.4-2.8-.1-.1-.2-.3-.3-.4 1.5-1.1 1.5-3 0-4.1 0-.4 0-.8.1-1.2 1.6-1.1 1.4-3 0-4.1-.9-.7.3-2.6.1-3.7-.2-1.3-2.4-2.8-.9-3.9.2-.1.3-.3.5-.4.3.4.5.9.7 1.5.2.7 1 1 1.6.7-.6 1-1 2.1-.5 3.5.2.7.7 1.2 1.2 1.6-.4.9-.7 2.3-.6 2.9.2 1.2.9 2 1.7 2.6-.3 1.7-.9 2.9.8 4.5.6.6 2.1 1.6 3 1.6 1.5-.1 2.5-1.7 1.7-3-.9-1.7-.7-2.8-.5-4.7.1-1.1-.9-2-1.8-2.4 1.1.4 1.4-2.1 1.1-3.2-.1-.5-1-1.3-1.1-1.6 0-.3 1-1.5 1.3-2.1.1-.2.2-.5.3-.7.4.9 1 1.7 1.1 2.7.1 1.6-.9 2.7-.1 4.4.2.5 1 1 1.3 1.5-.1 0-.2.2-.2.9-.1 1.5-.5 2.2.4 3.7.3.6.8.9 1.4 1.1-.1.8.3 1.5 1 2 .5.3.9.6 1.2.7.1.5.4.9.9 1.4.3.3.7.4 1.1.1 1.1-.6 1.3-1.1 1.6-2.3.2-.8-.1-1.8-.9-2.2h-.1c.1-.2.3-.4.4-.6.7-.9.9-2.7-.4-3.2-.1-.1-.2-.1-.3-.2.1-.3.2-.5.2-.8.1-.6.1-1.2-.1-1.8.2-.4.4-.9.5-1.4.2.3.6.6.9.8-.1.2-.1.6-.3 1.2-.3 1.7.4 3.4 2 4.2.3.1.6.2 1 .2.1.2.3.4.4.6.4.4 4.2 1.9 4.1.6 0 1 1.2 1.8 2.1 1.2.1-.1.3-.2.4-.3.6-.5.9-1.1.8-1.9-.1-.8-.5-1.3-.9-1.7v-.4c0-.9-.2-1.8-.6-2.6-.2-.4-.8-.8-.9-1.2v-.1c.5.4.8.1.9-.8.1-.1.1-.2.1-.3.9.8 2.1 1 3.3 1-.6 1.3 1.2 2.7 2.2 1.5.9-1.1 1.2-1.9 1.3-3.2.8-.5 0-1.2-.8-1.2zm-135-23c-.1 1.3 0 4.2-1.5 4.8-.5.2-1 .6-1.4 1 .3-.8.4-1.8.3-2.8 1.9-1.3 2.3-3.7 1.5-6.1.6-.4 1.1-1 1.5-1.6.2.7.6 1.3.9 2.1.1.2.2.4.3.5-.9.4-1.6 1.1-1.6 2.1zm1.7-9c-.3.5-.3 1-.3 1.5-.2.1-.3.3-.4.5 0-.6-.4-1.3-.4-1.8.1-.1.2-.2.4-.3.4-.3.8-.4 1.2-.6-.3.2-.4.5-.5.7zm3.2-8c-.2.1-.3.2-.5.3.3-.9.4-1.6.4-2.3.2.2.3.5.5.7-.1.5-.3.9-.4 1.3zm.3-8.8c-.1-.1-.2-.3-.3-.4 2-.5 2-2.8 3.4-4.4-.3 1-.4 2-.3 3-.5.2-1 .3-1.4.6-.6.3-1 .8-1.4 1.2zm1.3 46.5c-.1-.2-.2-.5-.3-.7 0-.4.1-.8.1-1.1.4-.5.7-1.1.8-1.7.2.2.4.3.7.4l.1.1c-1.2.6-1.6 1.8-1.4 3zm1.8-9c-1.1.5-1.8 1.6-2 2.8-.2-.2-.3-.3-.5-.4 0-.4 0-.8-.1-1.2 2.6-1 2.9-4.7 0-5.6.7-.8 1.3-1.5 2-2.3-.1 1.1.2 2.3 1.1 3.1-.8 1-1 2.4-.5 3.6zm1.4-9.4c.2-1-.2-1.9-1.3-2.4 0 0 .5-.5 1.2-1.1-.2 1.1 0 2.3.9 3.1-.3.2-.5.3-.8.4zm2.3-11-.2-.2c-.1-.4-.2-.7-.3-1.1 0 0 0-.1.1-.1.2.3.5.6.9.8h.1l-.6.6zm3.7 23.2c.2.2.3.3.5.4.1.1.1.1.2.1-.6.5-1 1.1-1.3 2.1 0-.5-.1-1-.2-1.5.3-.3.5-.7.8-1.1zm-.1 7.4-.3.3c-.1-.2-.1-.3-.2-.5-.4-.5-.7-.9-1.1-1.3.5-.7.8-1.5.9-2.3.1.9.5 1.9 1.4 2.3.3.1.5.2.8.4-.5.3-.9.6-1.5 1.1zM136.8 85l-.3.9c-.1-.1-.1-.2-.1-.3 0-.5.1-1 .3-1.5.1 0 .2.1.3.1-.1.3-.1.5-.2.8zm12.5 6.3c.1.1.2.1.2.1.1.4-.5 1.4-1 2.2v-.1c-.1-.7.7-1.4.8-2.2zm2.2 18.1c-.3-.5-.9-.9-1.5-1.2-.6-.2-1-.3-1.2-.4.2-.1.4-.2.4-.8-.1-.8.5-1.2.3-2.2-.1-.6-.7-1.5-1.1-1.9-.3-.3-.5-.4-.6-.6.3-1.1.8-2.2 1.1-3.4.8 1 .9.6.9 1.8.1 1.5-.8 2.6.1 4.1.4.6 2.5 2.1 2.4 1.7 0 .1-.6 1.8-.8 2.9zm6.4-39.7c.9.6.9.9.9 1.6-.2-.2-.5-.4-.8-.8-.2-.3-.3-.6-.4-.9.2 0 .3 0 .3.1zm-.5 30.4c-.3-.7-.2-1.3.1-2 .4.2.8.3 1.2.5.1.1.2.1.2.1v.6c.1 1.2-.1 2.1.2 3.1-.5-.8-1.3-1.4-1.7-2.3zm2.8 8c-.2 1.7.8 3.1.7 4.6 0 .3-.1.6-.1.9-1.2-1.8-2.9-2.1-2.1-5.6.4-1.7 1.5-2.6 1.1-4.5 0-.1 0-.1-.1-.1.1.1.2.3.3.4.6.7 1.2.9 1.3 1.2.1.6-1 2.4-1.1 3.1zm.7-26.8c-.2-.5.1-2.4-.2-3.3-.5-1.3-1.2-.9-1.3-2.7 0-.2.1-.4.2-.6.1.2.2.3.4.5.8 1 1.2.4 1.8 1.8.5 1.2.1 1.4.2 2.5 0 1.2.4 2.2.8 3.1-.7-.4-1.7-.8-1.9-1.3zm2.4 3.8c-.1-.4-.1-.8-.1-1.2.2.7.4 1.3.5 2.1-.1-.3-.3-.5-.4-.9zm2.2 9.4c-.3-1-.5-1.9-.6-2.8 0-.1 0-.4.1-.7.2.5.4 1 .7 1.7.2.7.3 1.2.5 1.6-.3 0-.5.1-.7.2zm4.6 17.9c0 .2-.1.3-.1.5-.5-.6-.8-.1-1-.7v-.1h1.2c-.1-.1-.1.1-.1.3z"/>
    <path d="M91.1 36c-1.1 7.7-1.5 15.3-1.6 23.1 0 .2-.3.2-.3 0-.5-7.7.3-15.5 1.7-23.1 0-.1.2-.1.2 0zm-4.6 3.7c-1.4 4.2-2.5 8.5-2.9 12.9 0 .2.3.2.3 0 .7-4.4 1.6-8.6 2.9-12.8.1-.2-.2-.3-.3-.1zm-3.3 1.1c-1.7 5.2-2.6 10.5-2.3 16.1 0 .1.2.1.2 0 0-5.5.7-10.8 2.3-16 0-.2-.1-.2-.2-.1zm-.7-4.3c.1-.2-.2-.2-.3-.1-3.6 8.9-6.8 18.3-4.8 28 0 .1.3.1.3 0-1.2-9.8 1.5-18.8 4.8-27.9zm-5.6 6c-2.7 5.2-4.7 10.7-5.2 16.6 0 .2.3.2.3 0 1-5.8 2.5-11.2 5.1-16.5.2-.1-.1-.3-.2-.1zm-7.4 5c-1 5.3-1.5 10.7-1.2 16.1 0 .1.2.1.2 0 0-5.4.3-10.7 1.3-16 .1-.2-.2-.3-.3-.1zM101.3 36c2.3 6.3 3.8 12.8 5.2 19.4 0 .1.3.1.3 0-.9-6.7-2.8-13.2-5.3-19.4 0-.2-.2-.1-.2 0zm3.6 2.6c1.1 4.2 1.8 8.5 2.5 12.8 0 .2.4.2.4 0-.3-4.4-1.3-8.7-2.5-12.8-.1-.3-.4-.2-.4 0zm8.3 1.2c1.8 5.6 2.8 11.2 3.5 17 0 .2.4.2.3 0-.3-5.8-1.6-11.6-3.6-17.1 0-.2-.3-.1-.2.1zm3.9 7c.3 3.2.5 6.4 1.1 9.6 0 .2.4.2.4 0-.2-3.2-.8-6.4-1.2-9.6-.1-.2-.3-.2-.3 0zm7.3 2.6c.8 2.7 1.5 5.4 2.4 8 0 .1.2.1.2 0-.7-2.7-1.5-5.3-2.3-8-.1-.2-.3-.2-.3 0zm5.8.1c1.1 4 1.9 8 2.8 12.1 0 .2.4.2.4-.1-.5-4.1-1.6-8.2-3-12.1-.1-.1-.3 0-.2.1zM95.5 27.2c0-.1 0 0 0 0-.7 1-1.6 2.3-3 1.9-.7-.2-1.3-.8-1.9-1.1-.8-.4-1.5-.4-2.1.3-.9 1.2-.9 2.9-2.9 2.5-1.1-.2-2.1-.9-3.3-.9-2.5.1-1.8 4.9-4.7 3.5-.7-.3-1.5-1.1-2.4-.6-1 .5-.7 2.1-1.8 2.7-1.6.9-4.4-.5-5.6 1.2-.8 1.1.1 2.6-1.3 3.4-.9.5-2.1.5-2.9 1.2-.8.7-.4 1.4-.3 2.3.4 2.3-1.8 1.8-3.2 2.4-.8.4-1.1 1-1.1 1.8 0 .5.1 1 .2 1.6.1.7.1 1.1-.6 1.7-.4.3-.9.3-1.2.6-.7.5-1.1 1.3-1.2 2.1-.1.5-.1 1 .1 1.5 0 0 .2.7.2.6v.2s-.1 0-.2.1c-.8.5-1.4.5-1.8 1.5-.6 1.4 1.1 2.8-.2 4-1.5 1.4-3.7 1.6-3.5 4.1 0 .6.2 1.3.3 1.9.1 1.2-.3 1.7-1.4 2.2-.7.3-1.3.7-1.2 1.6.2 1.3 1.5 2.2 1.5 3.6 0 1.2-1.1 2.3-1.8 3.2-.5.7-1.1 1.5-1 2.3.1 1.6 2.1 2.3 1 4-.7 1.1-1.9 1.8-2.4 3-.2.5-.2 1-.2 1.5.1 1 .8 1.6 1 2.5.5 2.3-3.7 2.4-3.4 5 .2 1.5 2.2 3.6-.1 4.5-.7.3-1.6.6-1.4 1.5.2 1.1 1.8 1.5 2.1 2.6.3 1.4-1.8 2-2.5 2.8-.6.6-.7 1.4-.2 2.1.4.7 2.9 2 2.4 2.9-.2.3-.9.6-1.1 1-.3.5-.6 1.1-.7 1.7-.1 1.1.1 2 .8 2.8.1.1.2 0 .2-.2-1.4-1.7-.8-4.3 1.2-5.2l.1-.1c-.3-1-1-1.5-1.7-2.1-.4-.3-.8-.7-1-1.1-.5-1.1.5-1.8 1.3-2.4 1.4-.9 2.3-1.9.9-3.4-.3-.3-.7-.6-.9-.9-.8-1.1.2-1.5 1.1-2 .7-.3 1-.8 1-1.6-.1-1.3-1.4-2.5-1-3.9.3-1.2 1.8-1.6 2.6-2.3.5-.4.8-.9.8-1.5 0-.8-.6-1.4-.9-2.1-.4-1.3.1-2.5 1-3.5.6-.7 1.6-1.4 1.8-2.4.3-1.3-.9-1.8-1.3-2.9-.6-2.1 2.5-3.7 2.8-5.8.1-1-.4-1.8-.9-2.6-.2-.3-.4-.7-.5-1.1-.2-1 .5-1.2 1.2-1.6.4-.2.8-.3 1-.7.6-.9.2-2 0-3-.3-2 .6-2.8 2.3-3.8.7-.4 1.5-.9 1.7-1.7.1-.5 0-.8-.2-1.3-.3-.8-.5-1.4 0-2.1.5-.7 1.2-1.1 2.1-1 .1 0 .1-.1.1-.2-.9-1.2-.8-3 .3-4.1.7-.7 1.9-.7 2.2-1.8.2-1-.4-2-.1-3 .4-1.4 2-1.2 3.1-1.6.5-.2 1-.4 1.2-.9.5-1.3-1-2.6.6-3.5 1.3-.8 3.3-.6 3.5-2.6.1-.8 0-1.7.8-2.2.5-.3 1.1-.3 1.6-.3.9 0 1.8.1 2.6-.1.5-.1 1.1-.3 1.4-.8.3-.3.3-.7.5-1 .3-.8.5-1.4 1.6-1.2.3.1.7.3 1 .5 1.4.8 2.4.5 3-1 .5-1.2.9-2.5 2.5-2.3 1 .2 1.9.7 3 .9.7.1 1.3-.1 1.8-.6 1-1.1 1-3.5 3.2-2.2.8.5 1.7 1.3 2.7 1 .5-.1.9-.5 1.2-.8l.3-.3c.1-.2.3-.4.4-.6.7-.1 1.1.2 1.4.7 0 .1.1.1.1 0-.7-.5-1.1-.8-1.7-1zM62.4 55.9c.5-.4 1-.5 1.6-.9 1.4-.9.7-2.8.7-4.1 0-.7.1-1.2.5-1.7.5-.5 1.2-.5 1.9-.8.6-.2 1.1-.5 1.2-1.2.1-.5 0-1 0-1.5 0-.8.3-1.6.8-2.3.9-1.4 2.5-2.2 4.1-2.2.1 0 .1-.1.1-.1-.1-.3-.2-.6-.3-.8-.3-1.5.2-2.1 1.6-1.8 0 .1.1 0 0 0-1-.9-2 .4-1.9 1.4 0 .7.5 1-.2 1.2-.5.1-.9.2-1.4.4-.8.4-1.5.9-2 1.6-.5.7-.9 1.5-1 2.3v.7c0 .8.1.7-.4 1.4s-.4.6-1.1.8c-.3.1-.6.1-.9.3-1.5.6-1.3 2.1-1.1 3.5.1 1.4.1 2.5-1.4 3-.6.2-1.3.4-1.5 1.1-.2.6.2 1.2.5 1.8.2.4.9 1.3.3 1.8-.2.2-.9.2-1.2.4-1.6 1-1.6 2.7-.7 4.1.3.4.4.3.1.7-.3.5-1 .8-1.5 1.2-.5.4-1.1.9-1.4 1.6-.7 2.1 2.9 3.2 1 5.2-.9 1-2.5 1.7-1.6 3.3.5.9 1.5 1.4 1.7 2.4.3 1.2-.6 2.1-1.2 3-.9 1.2-1.4 2.3-.2 3.6 1 1 1.4 1.8.7 3.1-.4.8-1.1 1.5-1.6 2.3-.9 1.3-1.2 2.5-.2 3.8 2.3 3.3-3.1 2.9-2.5 5.6.1.7.7.9 1.2 1.2.2.1.5.2.7.3.3.4.3 1.2 0 1.5-.3.3-.8.5-1.2.6-1.4.8-1.8 1.8-.8 3 .9 1.2 1.8 2.1.8 3.6-.5.8-1.3 1.4-1.9 2.2-.4.5-.7 1.1-.6 1.8.1.4.3.8.5 1.2.1.2.3.4.4.6.3.3.2.7-.1 1.1 0 .5-.2.8-.6 1-1 1-1.4 2.5-.1 3.5.1.1.2-.1.1-.2-.8-.6-1-1.7-.5-2.6.4-.6 1.1-.6 1.5-1.2.6-.8-.2-1.6-.6-2.3-1.6-2.7 1.8-3.6 2.4-5.9.2-.8-.1-1.4-.5-2.1-.3-.4-.8-.8-1.1-1.3-.6-1.2.2-1.8 1.1-2.3 1.1-.6 2.7-1.7.9-2.7-1-.5-2-.9-1.1-2.3.4-.6 1.2-.9 1.7-1.3.8-.6 1.3-1.4.9-2.4-.2-.5-.7-.9-.9-1.4-.4-.8-.2-1.5.2-2.3.5-1 1.3-1.8 1.9-2.7.4-.6.7-1.4.5-2.1-.3-1.3-2.2-1.8-1.8-3.3.5-1.7 3-3 2-5-.7-1.4-2.9-2.4-1.2-4.1.7-.7 1.9-1.3 1.8-2.5-.1-1.3-1.7-1.9-1.7-3.3 0-1.6 2.3-2.5 3.3-3.6 0 0 .1-.1 0-.2-1.9-1.5-1-4.4 1.5-4.5.1 0 .1 0 .1-.1.2-.7-.1-1.3-.5-2-.1-.2-.2-.3-.3-.5-.1-.8-.1-1.1.5-1.6zm-1.7 68.5c.6-.8.9-1.6.1-2.5-.6-.6-2.1-.9-1.1-1.9.4-.3.9-.4 1.2-.9.4-.5.2-1.1-.3-1.4-.2-.1-.4-.2-.7-.2-.9-.3-1.1-1.8-.4-2.4.5-.5 1.1-.9 1.4-1.5.6-1.2-.3-2.3-1.2-3-.4-.3-1.2-1-1.2-1.5 0-.3.4-.7.7-.9.4-.4.8-.7 1.1-1.1.4-.7.2-1.3-.4-1.7-.1-.1-.3-.1-.4-.2-.1-.1-.2-.1-.4-.2-.1-.5-.2-1.1-.3-1.6.1-.4.6-.8.8-1.2.2-.5.3-1 .2-1.4-.1-.7-.5-1-.9-1.5-.3-.3-.4-.1-.2-.7s.6-1.2.8-1.7c.1-.1-.1-.2-.2-.1-.4.8-.8 1.5-1.1 2.3 0 .1 0 .2.1.2 1.3.5 1.7 1.9 1 3.1-.3.5-.8 1-.9 1.6-.2 1 .7 1.1 1.3 1.7 2.1 1.8-2.9 2.8-.8 4.7.6.6 1.5.9 1.9 1.8.7 1.5-.5 2.1-1.3 3-.5.6-1.1 1.5-.5 2.2.2.2.5.3.7.5.2.1.8.2 1 .4.7.8 0 1.1-.4 1.5-.6.4-1.3.7-1.3 1.4v.1c.7.3 1.5.6 1.9 1.3.6.9-.1 1.4-.5 2.2-.2.3-.4.5-.4.9.1 1.1 1.6 1.4 1.9 2.4 0 .1.1 0 .1 0-.3-1.8-2.5-1.9-1.3-3.7zm8.2-30.7c0-.1 0-.2-.1-.2-2.3 0-.6-3.5-.8-4.6-.1-.6-.4-.9-.8-1.2-.5-.5-.9-.9-.7-1.7.1-.4.3-.8.4-1.1.3-.8.6-1.6.1-2.4-.4-.6-.9-.8-1.2-1.5-.4-1.1-.1-2.3.8-3.1.1-.1 0-.2-.1-.2-1-.2-1.7-.9-2-1.9-.3-1.3.4-1.8 1-2.7.7-1.2-.8-2-.4-3.3.3-1 1.4-1.8 1.4-2.9 0-.5-.3-.9-.5-1.3-.7-1.4-.5-2.8.8-3.8.1-.1 0-.2-.1-.1-1.2.8-1.7 2.3-1.1 3.7.2.5.7 1 .7 1.6 0 .6-.3 1.1-.6 1.5-.4.6-.9 1.2-.9 1.9-.1 1.2 1.2 1.5.4 2.9-.3.6-.8.9-.9 1.6-.1.6 0 1.2.4 1.8.3.6.8.8 1.3 1.2.1.1.1.1.2.1 0 0-.1.1-.1.3-.1.2-.3.5-.4.8-.2.7-.3 1.5 0 2.1.4 1 1.6 1.5 1.5 2.6-.1.9-.7 1.6-.8 2.5 0 .5.1.8.4 1.2.5.6 1.1 1 1.2 1.9.1.7-.4 1.5-.5 2.2 0 .5 0 1.1.3 1.5.2.4.8.6.8.8 0 .2-.7 1.1-.8 1.4-.2.4-.3.8-.3 1.2-.1.5 0 1 .2 1.5.3.7.6.7.6 1.7 0 .9-.4 1.2-.6 1.9-.1.3-.1.6-.1 1 .2 1.4 1.9 3 .7 4.4-.1.1 0 .2.1.1.5-.5.6-1.1.5-1.8-.1-.5-.3-.9-.5-1.3-.2-.5-.6-1.2-.6-1.8 0-.5.3-1 .6-1.5.4-.7.4-1.3 0-2-.5-.9-.8-1.6-.5-2.6.1-.9.6-1.7 1-2.4zm-17 2.5c-.1 0-.1.2 0 .2 1.1-.4 1.1-1.5.8-2.5-.2-.8-.7-1.6-.2-2.5.5-.8.7-.5 1.2-1 .3-.3.4-.5.3-1-.2-.9-.9-1.5-.9-2.5 0-1.4.9-1.8 1.7-2.7.7-.8.5-1.6 0-2.5-.3-.6-.7-1.1-1-1.7-.2-.6-.4-1.2-.1-1.8.2-.4.7-.7 1-1 .7-.7.4-1.4-.1-2.1-.5-.6-1-1.1-.6-2 .2-.4.5-.7.8-.9.4-.3.8-.6 1-1.1.1-.3.2-.6.1-.9.1-.2 0-.2-.2-.4-.6-1-.6-2.1.7-2.6.1 0 .1-.2 0-.1-.9.2-1.4 1.2-1.2 2.1.2.9 1.2 1.6.3 2.5-.4.4-1 .8-1.3 1.2-.6.8-.2 1.5.3 2.2.6.7.8 1.4.1 2.2-.2.2-.5.4-.7.6-.3.4-.4.8-.4 1.2.1 1.3 1.2 2.2 1.6 3.4.3 1.3-.6 1.6-1.3 2.4-.4.5-.6 1-.7 1.7-.1.6 0 1.2.2 1.8l.3.6c.3.8.1 1.3-.5 1.5-.2.2-.3.2-.6.5-1 1.5 1.4 4.5-.6 5.2zM43 80.5c.1 0 .1-.1.1-.2-.3-1-.6-2.1-.4-3.1.3-1.2 1.4-2.5 2.8-1.8.1 0 .2 0 .2-.1-.3-.9-.5-1.8-.5-2.7 0-.5.1-1.1.4-1.5.5-.8 1.2-.7 1.9-1.1.5-.3.6-.7.7-1.2.2-1 .2-2 .6-3 .5-1.1 1.4-1.8 2.2-2.7.4-.4.6-.9.6-1.5s-.3-1.2-.5-1.8c-.2-1 .2-1.4.9-2.2l.5-.5c.8-1.6-1.3-3.5.6-4.7 1.2-.8 2.4-.7 2.4-2.5 0-1-.3-2 .5-2.9.5-.6 1.3-1 2-1.3 1.1-.5 2.3-1.1 2.8-2.2.4-.9.3-2 .6-2.9.5-1.4 1.8-1.5 3-1.9.5-.2 1-.4 1.3-.8.2-.3.3-.6.3-1v-.8c0-1.1.5-1.5 1.6-1.2 0 0 .1 0 .1-.1-.4-.6-1.2-.3-1.6.2-.3.4-.2.9-.3 1.4-.2 1.6-1.2 1.8-2.5 2.2-1.2.3-2.1.8-2.3 2.1-.2.8-.1 1.7-.5 2.5-.4.9-1.2 1.4-2 1.8-1 .6-2.3 1-3 2-1 1.4.3 3.3-1.2 4.5-.9.7-2.2.5-2.4 2-.1.6.1 1.1.2 1.7.1.5.3 1.1.1 1.5-.2.6-.9.9-1.3 1.3-.7.9 0 2 .2 2.9.4 1.5-.7 2-1.6 2.9-.5.6-.9 1.2-1.2 1.9-.3.7-.4 1.4-.5 2.2-.1.9-.2 1.4-1.1 1.8-.3.2-.7.2-1 .4-.9.7-1 1.9-.9 3 0 .2.5 1.6.4 1.7-.1 0-1-.1-1.2 0-1.2.4-1.7 1.6-1.7 2.8 0 .6.6 2 .3 2.4-.1.1-1.2.4-1.4.6-.9.6-1.5 1.7-1.6 2.8-.1.6 0 1.2.2 1.7.3.8 0 .5-.7.9-1.2.6-1.8 2-1.5 3.4.3 1.4 1.2 2.6 0 3.8-.5.5-1.1.7-1.3 1.5-.3.9.1 1.8 0 2.7-.1 1.5-.7 2.7-1.7 3.8-.1.1 0 .2.1.1.9-.9 1.6-2 1.8-3.3.1-.7 0-1.3 0-1.9-.1-.7-.1-1.4.5-2 .2-.3.5-.4.8-.6.8-.8.9-1.5.6-2.5-.2-.7-.6-1.4-.6-2.1-.1-1.5 1.1-2.7 2.5-2.8.1 0 .2-.1.1-.2-1.3-2.1.1-5.2 2.6-5.4zM92.8 32c-1.2.4-2-1.5-3 0-.6.9-.5 1.9-1.8 2.3-.7.2-1.5.2-2.2.5-.4.2-.6.5-.9.8-.1.1-.2.3-.2.4-.6.3-1.1.2-1.6-.2-.3-.1-.3-.2-.6-.2-1-.2-2 .4-2.4 1.3 0 .1.1.1.2.1.7-1.2 1.8-1.3 3-.7.4.2.6.4 1.1.3.3-.1.5-.5.7-.7.6-.9 1.3-.9 2.3-1.1.9-.2 1.7-.3 2.2-1.2.2-.3.2-.7.4-1 .1-.7.7-.9 1.6-.6.1.1.3.2.4.2.4.1.5.3 1 .1 0-.1-.1-.3-.2-.3zm16-.8c-.4-.6-.3-1.2-1-1.6-.5-.3-1.1-.3-1.6-.1-.4.1-.8.3-1.1.5-.1.1-.7.6-.8.6 0 0-.4-.9-.6-1-.5-.4-1.1-.6-1.7-.6-1.6.1-2.5 1.7-3.2 2.9 0 .1.1.2.1.1.5-.9 1-1.9 2-2.5 1.2-.6 3.1-.2 3.1 1.4 0 .1.1.1.2.1.7-.6 1.6-1.4 2.6-1.3.8 0 1.2.7 1.6 1.4.1.1.1.3.2.4.6.8 1.7.2 2.5.6.1 0 .2-.1.1-.1-.7-.6-1.9 0-2.4-.8zM136.2 49c.3 1.3 1.1 1.6 2.3 1.6.6 0 1.2 0 1.7.2.7.3 1.1 1 1.4 1.7.6 1.1 1.1 2.3 1.7 3.4.1.1.2 0 .2-.1-.4-.9-.8-1.7-1.2-2.6-.4-.8-.7-1.8-1.4-2.3-1.5-1.2-4 .5-4.5-2.2-.2-1.3-.5-2.1-1.9-2.3-1-.1-2.1.1-2.8-.8-.6-.7-.2-2-.5-2.8-1.1-2.3-4.2-.1-6-.7-1.7-.5-.8-3-2.3-3.8-1.2-.6-2.5-.1-3.7.2-2.6.7-2.2-2.6-4.1-3.4-1.2-.4-2.5-.1-3.2.9-.1.1 0 .2.1.1 1.4-1.8 3.7-1 4.5.8.4.9.8 2 1.9 2 1.7.1 3.7-1.7 5 .2.7 1 .2 2.5 1.5 3.1 2.4 1 5.9-2.3 6.3 2 .1.9.2 1.8 1.2 2.2.6.2 1.2.2 1.7.2.8.1 1.4.3 1.8 1.1.3.3.2.8.3 1.3zm5.1 75.7c0-.7.2-1.3.3-2 0-.4 0-.6-.2-1-.6-1-1.2-.6-1-2.4.1-.6.4-1.1.3-1.8 0-.6-.2-1.2-.4-1.8-.5-1.6-1.3-3.8.4-4.9.1-.1.1-.2 0-.2-2.8-.6 0-4.6.1-6.1 0-.7-.2-1.1-.6-1.6-.5-.6-.5-.5-.5-1.4 0-.7 0-.7.3-1.2.2-.4.4-.8.5-1.2.2-.8-.1-1.5-.4-2.2-.5-1.5-.4-2.5.3-3.9.5-1.1.9-2.3-.1-3.2-.5-.4-1.3-.9-1.2-1.8 0-.4.5-1 .7-1.4.3-.6.5-1.2.3-1.9s-.8-1.2-1.1-1.9c-.7-1.3 0-2.2.7-3.3.7-1 .9-1.9-.2-2.7-.9-.8-.9-1.4-.4-2.5.1-.4.3-.7.4-1.1.1-.7-.1-1.3-.5-1.9-.3-.4-1.9-1.5-1.9-1.9 0-.1.5-.5.7-.7.2-.3.4-.7.5-1.1.4-1.7-.8-3.1-2.4-3.5-.1 0-.1.1 0 .1 2.5.6 3.1 3.7.8 5.1-.1 0-.1.2 0 .2 1.5 1 3 2.2 2.3 4.2-.3.8-.9 1.6-.4 2.4.1.2.3.4.5.5.9.8 1 1.4.4 2.5-.4.7-1 1.4-1.1 2.2-.1.8.3 1.4.7 2 .3.5.7 1 .8 1.6.1.9-.4 1.6-.7 2.3-.2.5-.4 1-.2 1.5.1.3.3.5.5.7.3.2.7.4 1 .7.5.6.4 1.1.2 1.7-.3 1-.9 1.8-1 2.8-.1 1 .4 1.9.6 2.9.5 1.6-.7 2.2-.9 3.6-.2 1 .6 1.4 1 2.1 1.2 2.1-1.9 4.3-.7 6.6.1.2.8.8.8.8s-.5.6-.6.8c-.2.3-.2.7-.3 1.1-.1 1.3.4 2.4.7 3.6.2.6.2 1.1.2 1.8-.1.6-.3 1.1-.4 1.7 0 .3-.1.6 0 .9.2.5.7.8 1 1.2.5.7.2 1.4 0 2.2-.2 1.2.2 2.3.9 3.2.1.1.4 0 .3-.1-.6-.7-.9-1.5-1-2.3zm8.5-6.6c-.6-1.3-1.2-2.1-.8-3.6.4-1.3 1.2-2.7.7-4.1-.2-.6-.6-.8-1.1-1.1-1.2-.7-1.2-1.5-.7-2.7.4-.8 1-1.7.9-2.6-.2-1.4-2-1.2-2.5-2.3-.8-2 1.9-4.4.4-6.3-.3-.4-.8-.6-1.3-.8-1.7-.8-1.3-2.2-.6-3.6.4-.9 1-2.2.3-3.2-.3-.4-.7-.5-1.1-.6-1.7-.6-1.3-2.2-.5-3.4.6-1 1.7-2.1 1.4-3.4-.1-.4-.3-.7-.6-1-.5-.4-.7-.4-1.2-1-.6-.6-.7-.6-.4-1.3.1-.3.3-.7.5-1 .5-.8 1.2-2 .5-2.9-.5-.7-1.6-.5-2-1.2-.5-.9.5-2.2.7-3 .3-1.1-.1-2.1-.9-2.8-.6-.5-1.1-.5-1.8-.7-.5-.1-.4.1-.2-.6.1-.5.3-.9.4-1.4.2-1.2-.2-2.8-1.5-3.3-.3-.1-.6-.1-.8-.1-1.8-.6-1-1.8-.5-2.7.3-.5.7-1.2.4-1.8-.2-.7-1.2-1.1-1.7-.5 0 .1 0 .2.1.1h1.1v1.7c-.1.2-.3.5-.4.7-.2.3-.3.6-.4 1-.1.5-.1 1.1.3 1.5.6.6 1.6.2 2.3.8 1.4 1.3.6 3.4.1 4.8 0 .1.1.2.2.2 1.1-.3 2.3.3 2.9 1.3.6 1 .2 1.9-.2 2.9-.3.8-.6 1.6-.2 2.4.2.3.4.4.7.6.6.4 1.2-.7 1.5 1.1.1.4-.2 1-.3 1.4-.4.8-1.2 1.7-1 2.7.3 1.2 1.9 1.1 2.4 2.2.6 1.3-1.3 3-1.8 4.1-.3.7-.5 1.5-.2 2.2.1.3.3.5.6.7.3.2.4.1.7.3 1.1.4 1.4 1.1 1.1 2.2-.4 1.7-2.4 3.9 0 5.1.7.3 1.4.5 1.7 1.2.2.6.2 1.2 0 1.7-.2.9-.6 1.8-.8 2.8-.1.6-.1 1.3.3 1.8.8 1 2.6.8 2.2 2.5-.2 1.2-1.8 2.9-1 4.2.5.7 1.4.7 1.8 1.4.5.9.2 2.1-.2 3-.5 1.3-.9 2.4-.3 3.7.4.9 1 1.6 1 2.6 0 .8-.3 1.6-.5 2.3-.3 1.1-.5 2.1.2 3.1.1.1.3 0 .2-.1-1-1.6.2-3.3.4-5-.1-1.1-.2-1.7-.5-2.2zm7.6 1.8c-.9-1-.2-1.8-.5-2.9-.3-1.4-2-1.7-1.7-3.4.2-1.2 1-2.2 1.3-3.4.2-.8.1-1.5-.4-2.1-.2-.3-.5-.4-.7-.7-.8-1.1-.4-1.8.1-2.8.3-.6.6-1.1.7-1.8 0-.4 0-.9-.3-1.3-.4-.5-.9-.4-1.4-.7-1.7-1.2.1-3.6.3-5 .1-.8-.1-1.6-.8-2-.6-.4-1.2-.1-1.8-.9-.3-.4-.3-.9-.3-1.4 0-.9.4-1.7.6-2.6.2-.9.4-2-.3-2.8-.3-.4-.7-.6-1.1-.9-1-.8-1-1.7-.7-2.8.3-.9.8-1.9.8-2.9-.1-1.1-1-1.2-1.8-1.7-2.2-1.3.9-4.7-1.1-6.2-.5-.4-1.2-.5-1.7-.8-1.4-.8-.9-2-.7-3.2.1-1.1-.1-1.8-1-2.4-.6-.4-1.4-.6-1.9-1.1-.9-1 .3-2.1.4-3.1.1-1.1-.5-2-1.4-2.5-.1-.1-.2.1-.1.1 1.2.7 1.5 2 1 3.2-.2.5-.6.9-.5 1.5.1.8.8 1.2 1.4 1.5.6.3 1.4.6 1.7 1.3.5.9 0 1.9-.1 2.8-.1.8.1 1.5.8 2 .5.3 1.2.4 1.7.7.9.5 1 1.5.8 2.4-.1.9-.5 1.9-.3 2.8.2 1.1 1 1.1 1.8 1.6 1.4.9.3 2.7 0 3.8-.2.8-.4 1.6.1 2.3.2.3.5.5.8.7.4.3.9.5 1.2 1.1.4.7.2 1.6 0 2.3-.3 1.1-.8 2.1-.6 3.3.1.4.2.8.5 1.1.4.4.9.4 1.4.6 3 1.6-1.6 5.2.9 7.2.7.5 1.4-.4 1.6 1.4.1.5-.2 1.1-.4 1.6s-.6 1-.7 1.6c-.4 1.7 1.2 1.8 1.6 3.2.6 2.1-2.5 4.3-1 6.3.2.3.5.5.7.7.4.5.7 1.1.7 1.7 0 .6-.2 1.2.1 1.8.1.2.3.3.4.5.7.9.6 1.5.5 2.5-.1 1-.3 2-.4 3 0 .1.2.2.2 0 .2-1 .3-1.9.4-2.9.1-.5.3-1.2.2-1.7-.3-.1-.6-.3-1-.6zm15.4-10c-.2-.7-.5-1.3-.5-2 0-.8.4-1.4.5-2.2 0-.6-.1-.8-.5-1.1.1.1.2.5.1 1.4 0 .3-.2.6-.3.9-.6 2.1 2.3 5.8-.2 7.2-.2.1 0 .3.1.2 1.7-.9 1.2-2.9.8-4.4zm-.6-5.3-.1-.1c-.5-.5-.9.6-1.1-1 0-.2.1-.6.2-.8.1-.3.2-.6.2-1 0-.7-.3-1.1-.8-1.6-.7-.5-1.3-1-1-2 .1-.5.4-.9.7-1.4.3-.5.6-1.1.5-1.8-.1-.7-.6-1-1.2-1.3-.7-.4-1.3-.5-1.6-1.4-.2-.6-.1-1.4-.1-2 0-.8-.1-1.4-.7-2-.7-.7-1.2-1.2-1-2.3.1-.5.2-1 .1-1.5-.2-.8-1-1.1-1.3-1.8-.6-1 .1-2.3.2-3.3.1-.7-.1-1.3-.6-1.8s-1.3-.8-1.5-1.7c-.2-.7.1-1.4.3-2 .2-.7.3-1.4-.2-2-.3-.3-.7-.4-1-.6-.9-.5-1.3-1.1-1.7-2.1-.3-.8-.7-1.6-1.4-2.1-.2-.2-.8-.2-1-.4-.5-.4-.3-2.2-.3-2.7 0-.1-.1-.1-.1-.1-1.4.1-2.5-.9-2.8-2.2-.3-1 0-1.8 0-2.8 0-.8-.2-1.4-1.1-1.5-1.2-.2-3.2.9-3.7-1-.2-1 .2-2.3-.7-3.2-1-1-2.8-.4-3.2-2.1-.2-1 .1-2.1-.4-3.1-.3-.7-.9-.9-1.6-.9-.3 0-.6.1-.9.2-1.1.1-1.6-.5-1.9-1.3-.3-1-.5-2-.8-3l-.1-.1c-2 0-3.6-1.6-3.6-3.7 0-.1-.1-.2-.2-.1-.7.3-1.5.7-2.2.6-.5 0-.8-.1-1.1-.5-.6-.3-.8-.8-.7-1.5-.1-.4-.2-.7-.6-.9-1.5-1-3.1 1.2-4.6 0-.9-.7-1.2-2-2.4-2.3-.9-.2-1.8.4-2.7.2-1.4-.3-2.3-1.6-2.4-2.9 0-.1-.1-.1-.1-.1-.5.2-1.1.4-1.6.5-.7.1-.4.2-.7-.3-.2-.6-.3-1.1-.8-1.5-1.1-.9-2.6-.6-3.5.4-.1.1 0 .2.1.1 1.5-1.7 4.2-.5 3.9 1.7 0 .1.1.1.1.1.4-.1 1.6-.8 2-.6.4.1.3.5.5.9.3.9 1.1 1.7 2 2 1.2.4 2.7-.5 3.7.2.8.6 1.1 1.6 1.9 2.1.8.5 1.6.2 2.5-.1 1.2-.4 1.7-.5 2.5 1.1.2.5.2.9.7 1.3.5.4 1.2.5 1.8.4.2 0 1.4-.5 1.6-.5.2.1.3.9.4 1.2.3.9 1 1.7 1.9 2.1.3.2.7.2 1 .4.4.2.3-.2.7.4.3.4.3 1.2.4 1.6.2.7.3 1.9 1 2.3 1.1.7 2.6-.9 3.5.4.9 1.4-.3 3.5 1.2 4.5.4.2.8.3 1.2.5 1.1.3 1.6.8 1.8 2 .1.8-.1 1.8.5 2.4.5.6 1.4.5 2.1.4 1.2-.2 2-.5 2.2 1.5 0 .6-.1 1.1 0 1.7.1 1.1.6 2.1 1.5 2.7.3.2 1.1.3 1.4.5.6.5.3 2.1.3 2.7 0 .1.1.1.1.1 2.3-.2 2.2 3.2 3.7 4.2.6.4 1.3.5 1.6 1.2.2.5 0 1.2-.2 1.6-.2.7-.4 1.4-.2 2 .2.7.8 1 1.2 1.4 1.2 1.1.7 2.2.5 3.6-.1.6-.1 1.1.1 1.6.1.2.3.4.5.6.7.7 1 1.4.8 2.4-.1.6-.2 1.1 0 1.7.1.3.4.5.6.7.7.6.9 1.2 1 2.1 0 1.6-.1 2.6 1.5 3.4.6.3 1.2.5 1.4 1.2.2.6-.2 1.2-.4 1.7-.3.6-.7 1.2-.8 1.9 0 .4.1.8.3 1.1.2.2.4.4.7.6.8.7 1 1.2.8 2.2-.1.5-.4 1.1-.1 1.6.1.2.3.3.5.4.5.8.8.5.9.6zm-5.3 12.9c-.5-.4-1.2-1-1.2-1.8 0-.4.4-.9.5-1.3.4-1.1.2-2-.4-3-.4-.6-.8-1.1-1.1-1.7-.5-1 .2-1.7.5-2.7.1-.4.1-.8-.1-1.2l-.6-.6c-.6-.7-.7-1.4-.5-2.2.3-1.1 1.1-2.4.5-3.5-.2-.4-.5-.6-.9-.8-.6-.3-1.2-.3-1.5-1.1-.2-.6.1-1.4.3-2 .5-1.1 1.3-2.3.5-3.5-.9-1.4-2.9-1.4-2.7-3.5.1-1 .8-2.3.1-3.2-.6-.8-1.7-.7-2.6-.7-.5 0-.8 0-1.2-.4-.3-.4-.1-.5 0-1 .2-.6.4-1.3.3-2-.1-1-.8-1.5-1.7-1.7-.7-.2-.9-.1-1.4-.7-.5-.6-.4-.8-.2-1.5.2-.5.5-1.1.5-1.7 0-1.5-1.7-1.2-2.3-2.3-.7-1.3 1.1-2.5.8-3.8-.4-1.5-2.7-.8-2.7-2.7 0-1 .7-2.3.1-3.2-.2-.3-.5-.3-.9-.5-.8-.4.3.7-1-.8-.7-.8-.7-.6-.4-1.4.1-.2.2-.5.2-.7.1-.7-.2-1.6-1-1.5-.1 0-.1.1 0 .1 1.8-.2-.1 3.1.5 4 .2.4.6.3 1 .5.7.2 1.5.2 1.6 1.1 0 .3-.1.7-.1 1-.1.8-.5 1.9 0 2.6.3.5.8.5 1.3.7 1.6.7 1.1 1.6.6 2.8-.3.8-.7 1.6 0 2.3.5.6 1.5.6 1.9 1.3.4.8-.2 1.7-.4 2.5s-.2 1.5.6 2c.9.5 2.3.1 2.7 1.4.3 1-.2 2.2-.7 3v.2c.6.9 1.6.7 2.5.7 1.5 0 2 .9 1.7 2.3-.1.6-.3 1.2-.3 1.9.1 1.3 1.3 1.7 2.2 2.4 2 1.6-.4 3.6-.4 5.5 0 .4.1.8.3 1 .6.8 1.7.5 2.1 1.5.6 1.7-1.1 3.1-.5 4.8.1.2.2.4.3.5.6.7.7.4.8 1.5.1.9 0 .7-.3 1.5-.1.3-.2.6-.2.9.1 1.2 1.1 2.1 1.6 3.1.6 1.2 0 2.1-.3 3.3-.2.5-.2 1 0 1.5.4.7 1.4 1 1.9 1.7.9 1.1 1.2 2.5 1 3.9 0 .2.2.3.3.1.2-1.3 0-2.6-.7-3.7-.1-.4-.5-.8-.9-1.2z" fill="#fff"/>
</svg>
